<svg width="151" height="51" viewBox="0 0 151 51" fill="none"
  xmlns="http://www.w3.org/2000/svg">
  <path d="M0.920898 50.143L16.2765 9.7207H21.4647L6.10916 50.143H0.920898Z"
    fill="#FBFAFE" />
  <path
    d="M78.1849 37.2551C79.2728 37.2551 80.2769 37.0126 81.1974 36.5275C82.1458 36.0155 83.0524 35.2205 83.9171 34.1426V23.0264C83.1361 22.5144 82.3411 22.1371 81.5322 21.8946C80.7232 21.6521 79.9143 21.5308 79.1054 21.5308C77.5712 21.5308 76.4415 21.9216 75.7163 22.703C75.019 23.4576 74.6703 24.6433 74.6703 26.2602V32.8895C74.6703 34.3716 74.9632 35.4765 75.5489 36.2041C76.1347 36.9048 77.0134 37.2551 78.1849 37.2551ZM82.7456 37.6189C82.2156 38.9394 81.3369 40.0038 80.1096 40.8123C78.8823 41.6207 77.4876 42.0249 75.9255 42.0249C73.4987 42.0249 71.6577 41.2299 70.4025 39.64C69.1752 38.0231 68.5615 35.8134 68.5615 33.0107V26.0581C68.5615 23.2824 69.3983 21.0996 71.072 19.5097C72.7735 17.9197 75.0887 17.1248 78.0175 17.1248C79.1054 17.0978 80.1375 17.2056 81.1138 17.4481C82.1179 17.6637 83.0524 17.9467 83.9171 18.297V13.7697H78.9799V9.28284H89.984V37.1338H94.5865V41.6207H83.9171V37.6189H82.7456Z"
    fill="#FBFAFE" />
  <path fill-rule="evenodd" clip-rule="evenodd"
    d="M109.135 8.30093H111.555V5.14303H109.135V0.143066H113.093V3.30109H116.172V0.143066H121.891V3.30109H124.97V0.143066H130.689V3.30109H133.768V0.143066H139.486V3.30109H142.565V0.143066H148.281V3.30109H150.921V10.4062H148.501V13.5641H150.921V20.6693H148.282V24.3536H150.921V31.1957H148.282V34.8799H150.921V41.722H148.282V45.4062H150.921V50.1431H146.961V46.9851H143.882V50.1431H138.167V46.9851H135.088V50.1431H129.37V46.9851H126.291V50.1431H120.572V46.9851H117.493V50.1431H111.775V46.9851H109.135V40.143H111.775V36.4588H109.135V29.6167H111.775V25.9325H109.135V19.0904H111.775V15.4062H109.135V8.30093ZM113.313 13.5641H115.952V10.4062H113.313V13.5641ZM122.111 13.5641H124.75V10.4062H122.111V13.5641ZM130.909 13.5641H133.548V10.4062H130.909V13.5641ZM139.706 13.5641H142.345V10.4062H139.706V13.5641ZM117.492 19.0906H120.571V15.4064H117.492V19.0906ZM113.094 24.3536H116.173V20.6693H113.094V24.3536ZM117.493 29.6167H120.572V25.9325H117.493V29.6167ZM113.094 34.8799H116.173V31.1957H113.094V34.8799ZM117.493 40.143H120.572V36.4588H117.493V40.143ZM113.094 41.722V45.4062H116.173V41.722H113.094ZM117.493 8.56409H120.572V4.87988H117.493V8.56409ZM121.892 24.3536H124.971V20.6693H121.892V24.3536ZM121.892 34.8799H124.971V31.1957H121.892V34.8799ZM121.892 41.722V45.4062H124.971V41.722H121.892ZM126.29 19.0906H129.369V15.4064H126.29V19.0906ZM126.291 29.6167H129.37V25.9325H126.291V29.6167ZM126.291 40.143H129.37V36.4588H126.291V40.143ZM126.291 8.56409H129.37V4.87988H126.291V8.56409ZM130.69 24.3536H133.769V20.6693H130.69V24.3536ZM130.69 34.8799H133.769V31.1957H130.69V34.8799ZM130.69 41.722V45.4062H133.769V41.722H130.69ZM135.087 19.0906H138.165V15.4064H135.087V19.0906ZM135.088 29.6167H138.167V25.9325H135.088V29.6167ZM135.088 40.143H138.167V36.4588H135.088V40.143ZM135.088 8.56409H138.167V4.87988H135.088V8.56409ZM139.487 24.3536H142.566V20.6693H139.487V24.3536ZM139.487 34.8799H142.566V31.1957H139.487V34.8799ZM139.487 41.722V45.4062H142.566V41.722H139.487ZM143.881 15.4064V19.0906H146.96V15.4064H143.881ZM143.882 25.9325V29.6167H146.961V25.9325H143.882ZM143.882 36.4588V40.143H146.961V36.4588H143.882ZM143.882 8.56409H146.961V4.87988H143.882V8.56409Z"
    fill="#FBFAFE" />
  <path
    d="M43.6284 37.1338V41.6206H28.9841V37.1338H33.5866V21.8541H28.9841V17.3672H39.6954V21.3286H40.8251C41.4108 19.9004 42.3453 18.8224 43.6284 18.0948C44.9115 17.3403 46.3202 16.963 47.8543 16.963C50.0022 16.963 51.7316 17.6637 53.0426 19.065C54.3815 20.4393 55.0509 22.42 55.0509 25.0071V37.1338H59.6534V41.6206H48.9422V25.8155C48.9422 24.4411 48.6214 23.4171 47.9799 22.7434C47.3662 22.0697 46.5433 21.7328 45.5112 21.7328C44.3676 21.7328 43.3076 22.0697 42.3313 22.7434C41.383 23.3902 40.5043 24.2795 39.6954 25.4113V37.1338H43.6284Z"
    fill="#FBFAFE" />
</svg>