<svg width="64" height="22" viewBox="0 0 64 22" fill="none"
  xmlns="http://www.w3.org/2000/svg">
  <path d="M0.727295 20.6364L7.40002 2.45459H9.12729L2.45457 20.6364H0.727295Z"
    fill="#282C34" />
  <path
    d="M20.8191 14.9819V17H14.4555V14.9819H16.4555V8.10914H14.4555V6.09095H19.11V7.87277H19.6009C19.8555 7.23035 20.2616 6.7455 20.8191 6.41823C21.3767 6.07883 21.9888 5.90914 22.6555 5.90914C23.5888 5.90914 24.3403 6.22429 24.91 6.85459C25.4919 7.47277 25.7828 8.36368 25.7828 9.52732V14.9819H27.7828V17H23.1282V9.89095C23.1282 9.27277 22.9888 8.81217 22.71 8.50914C22.4434 8.20611 22.0858 8.05459 21.6373 8.05459C21.1403 8.05459 20.6797 8.20611 20.2555 8.50914C19.8434 8.80004 19.4616 9.20005 19.11 9.70914V14.9819H20.8191Z"
    fill="#282C34" />
  <path
    d="M37.4867 15.0364C37.9594 15.0364 38.3958 14.9273 38.7958 14.7091C39.2079 14.4788 39.6018 14.1213 39.9776 13.6364V8.63641C39.6382 8.40611 39.2927 8.23641 38.9412 8.12732C38.5897 8.01823 38.2382 7.96368 37.8867 7.96368C37.22 7.96368 36.7291 8.13944 36.4139 8.49095C36.1109 8.83035 35.9594 9.36368 35.9594 10.091V13.0728C35.9594 13.7394 36.0867 14.2364 36.3412 14.5637C36.5958 14.8788 36.9776 15.0364 37.4867 15.0364ZM39.4685 15.2C39.2382 15.794 38.8564 16.2728 38.323 16.6364C37.7897 17 37.1836 17.1819 36.5049 17.1819C35.4503 17.1819 34.6503 16.8243 34.1049 16.1091C33.5715 15.3819 33.3049 14.3879 33.3049 13.1273V10C33.3049 8.75156 33.6685 7.76974 34.3958 7.05459C35.1352 6.33944 36.1412 5.98186 37.4139 5.98186C37.8867 5.96974 38.3352 6.01823 38.7594 6.12732C39.1958 6.22429 39.6018 6.35156 39.9776 6.50914V4.47277H37.8321V2.45459H42.6139V14.9819H44.6139V17H39.9776V15.2H39.4685Z"
    fill="#282C34" />
  <path
    d="M50 21H50.8V22H50V21ZM51 20H51.8V21H51V20ZM50 19H50.8V20H50V19ZM51 18H51.8V19H51V18ZM50 17H50.8V18H50V17ZM51 16H51.8V17H51V16ZM50 15H50.8V16H50V15ZM51 14H51.8V15H51V14ZM50 13H50.8V14H50V13ZM51 12H51.8V13H51V12ZM50 11H50.8V12H50V11ZM51 10H51.8V11H51V10ZM50 9H50.8V10H50V9ZM51 8H51.8V9H51V8ZM50 7H50.8V8H50V7ZM51 6H51.8V7H51V6ZM50 5H50.8V6H50V5ZM51 4H51.8V5H51V4ZM50 3H50.8V4H50V3ZM51 2H51.8V3H51V2ZM50 0.999999H50.8V2H50V0.999999ZM51 0H51.8V0.999999H51V0ZM52 21H52.8V22H52V21ZM53 20H53.8V21H53V20ZM52 19H52.8V20H52V19ZM53 18H53.8V19H53V18ZM52 17H52.8V18H52V17ZM53 16H53.8V17H53V16ZM52 15H52.8V16H52V15ZM53 14H53.8V15H53V14ZM52 13H52.8V14H52V13ZM53 12H53.8V13H53V12ZM52 11H52.8V12H52V11ZM53 10H53.8V11H53V10ZM52 9H52.8V10H52V9ZM53 8H53.8V9H53V8ZM52 7H52.8V8H52V7ZM53 6H53.8V7H53V6ZM52 5H52.8V6H52V5ZM53 4H53.8V5H53V4ZM52 3H52.8V4H52V3ZM53 2H53.8V3H53V2ZM52 0.999999H52.8V2H52V0.999999ZM53 0H53.8V0.999999H53V0ZM54 21H54.8V22H54V21ZM55 20H55.8V21H55V20ZM54 19H54.8V20H54V19ZM55 18H55.8V19H55V18ZM54 17H54.8V18H54V17ZM55 16H55.8V17H55V16ZM54 15H54.8V16H54V15ZM55 14H55.8V15H55V14ZM54 13H54.8V14H54V13ZM55 12H55.8V13H55V12ZM54 11H54.8V12H54V11ZM55 10H55.8V11H55V10ZM54 9H54.8V10H54V9ZM55 8H55.8V9H55V8ZM54 7H54.8V8H54V7ZM55 6H55.8V7H55V6ZM54 5H54.8V6H54V5ZM55 4H55.8V5H55V4ZM54 3H54.8V4H54V3ZM55 2H55.8V3H55V2ZM54 0.999999H54.8V2H54V0.999999ZM55 0H55.8V0.999999H55V0ZM56 21H56.8V22H56V21ZM57 20H57.8V21H57V20ZM56 19H56.8V20H56V19ZM57 18H57.8V19H57V18ZM56 17H56.8V18H56V17ZM57 16H57.8V17H57V16ZM56 15H56.8V16H56V15ZM57 14H57.8V15H57V14ZM56 13H56.8V14H56V13ZM57 12H57.8V13H57V12ZM56 11H56.8V12H56V11ZM57 10H57.8V11H57V10ZM56 9H56.8V10H56V9ZM57 8H57.8V9H57V8ZM56 7H56.8V8H56V7ZM57 6H57.8V7H57V6ZM56 5H56.8V6H56V5ZM57 4H57.8V5H57V4ZM56 3H56.8V4H56V3ZM57 2H57.8V3H57V2ZM56 0.999999H56.8V2H56V0.999999ZM57 0H57.8V0.999999H57V0ZM58 21H58.8V22H58V21ZM59 20H59.8V21H59V20ZM58 19H58.8V20H58V19ZM59 18H59.8V19H59V18ZM58 17H58.8V18H58V17ZM59 16H59.8V17H59V16ZM58 15H58.8V16H58V15ZM59 14H59.8V15H59V14ZM58 13H58.8V14H58V13ZM59 12H59.8V13H59V12ZM58 11H58.8V12H58V11ZM59 10H59.8V11H59V10ZM58 9H58.8V10H58V9ZM59 8H59.8V9H59V8ZM58 7H58.8V8H58V7ZM59 6H59.8V7H59V6ZM58 5H58.8V6H58V5ZM59 4H59.8V5H59V4ZM58 3H58.8V4H58V3ZM59 2H59.8V3H59V2ZM58 0.999999H58.8V2H58V0.999999ZM59 0H59.8V0.999999H59V0ZM60 21H60.8V22H60V21ZM61 20H61.8V21H61V20ZM60 19H60.8V20H60V19ZM61 18H61.8V19H61V18ZM60 17H60.8V18H60V17ZM61 16H61.8V17H61V16ZM60 15H60.8V16H60V15ZM61 14H61.8V15H61V14ZM60 13H60.8V14H60V13ZM61 12H61.8V13H61V12ZM60 11H60.8V12H60V11ZM61 10H61.8V11H61V10ZM60 9H60.8V10H60V9ZM61 8H61.8V9H61V8ZM60 7H60.8V8H60V7ZM61 6H61.8V7H61V6ZM60 5H60.8V6H60V5ZM61 4H61.8V5H61V4ZM60 3H60.8V4H60V3ZM61 2H61.8V3H61V2ZM60 0.999999H60.8V2H60V0.999999ZM61 0H61.8V0.999999H61V0ZM62 21H62.8V22H62V21ZM63 20H63.8V21H63V20ZM62 19H62.8V20H62V19ZM63 18H63.8V19H63V18ZM62 17H62.8V18H62V17ZM63 16H63.8V17H63V16ZM62 15H62.8V16H62V15ZM63 14H63.8V15H63V14ZM62 13H62.8V14H62V13ZM63 12H63.8V13H63V12ZM62 11H62.8V12H62V11ZM63 10H63.8V11H63V10ZM62 9H62.8V10H62V9ZM63 8H63.8V9H63V8ZM62 7H62.8V8H62V7ZM63 6H63.8V7H63V6ZM62 5H62.8V6H62V5ZM63 4H63.8V5H63V4ZM62 3H62.8V4H62V3ZM63 2H63.8V3H63V2ZM62 0.999999H62.8V2H62V0.999999ZM63 0H63.8V0.999999H63V0Z"
    fill="#282C34" />
</svg>