<svg width="57" height="22" viewBox="0 0 57 22" fill="none"
  xmlns="http://www.w3.org/2000/svg">
  <path
    d="M45.2666 21.5166H46.4053V20.3779H47.5225V21.5166H48.6611V20.3779H49.7998V21.5166H50.9277V20.3779H52.0664V21.5166H53.1943V20.3779H54.3223V21.5166H55.4609V20.3779H56.5996V16.9834H55.4609V15.8555H56.5996V12.4609H55.4609V11.3223H56.5996V7.91699H55.4609V6.7998H56.5996V3.39453H55.4609V2.25586H56.5996V0H55.4609V1.13867H54.3223V0H53.1943V1.13867H52.0664V0H50.9277V1.13867H49.7998V0H48.6611V1.13867H47.5225V0H46.4053V1.13867H45.2666V0H44.1387V1.13867H43V4.52246H44.1387V5.66113H43V9.05566H44.1387V10.1943H43V13.5889H44.1387V14.7168H43V18.1221H44.1387V19.25H43V21.5166H44.1387V20.3779H45.2666V21.5166ZM54.3223 2.25586V3.39453H53.1943V2.25586H54.3223ZM52.0664 2.25586V3.39453H50.9277V2.25586H52.0664ZM49.7998 2.25586V3.39453H48.6611V2.25586H49.7998ZM47.5225 2.25586V3.39453H46.4053V2.25586H47.5225ZM45.2666 2.25586V3.39453H44.1387V2.25586H45.2666ZM53.1943 5.66113H52.0664V4.52246H53.1943V5.66113ZM46.4053 5.66113H45.2666V4.52246H46.4053V5.66113ZM55.4609 5.66113H54.3223V4.52246H55.4609V5.66113ZM48.6611 5.66113H47.5225V4.52246H48.6611V5.66113ZM50.9277 5.66113H49.7998V4.52246H50.9277V5.66113ZM49.7998 6.7998V7.91699H48.6611V6.7998H49.7998ZM54.3223 6.7998V7.91699H53.1943V6.7998H54.3223ZM45.2666 6.7998V7.91699H44.1387V6.7998H45.2666ZM47.5225 6.7998V7.91699H46.4053V6.7998H47.5225ZM52.0664 6.7998V7.91699H50.9277V6.7998H52.0664ZM50.9277 9.05566V10.1943H49.7998V9.05566H50.9277ZM46.4053 10.1943H45.2666V9.05566H46.4053V10.1943ZM55.4609 9.05566V10.1943H54.3223V9.05566H55.4609ZM48.6611 9.05566V10.1943H47.5225V9.05566H48.6611ZM53.1943 9.05566V10.1943H52.0664V9.05566H53.1943ZM54.3223 11.3223V12.4609H53.1943V11.3223H54.3223ZM46.4053 12.4609V11.3223H47.5225V12.4609H46.4053ZM45.2666 11.3223V12.4609H44.1387V11.3223H45.2666ZM52.0664 11.3223V12.4609H50.9277V11.3223H52.0664ZM49.7998 11.3223V12.4609H48.6611V11.3223H49.7998ZM52.0664 14.7168V13.5889H53.1943V14.7168H52.0664ZM45.2666 14.7168V13.5889H46.4053V14.7168H45.2666ZM49.7998 14.7168V13.5889H50.9277V14.7168H49.7998ZM47.5225 14.7168V13.5889H48.6611V14.7168H47.5225ZM54.3223 14.7168V13.5889H55.4609V14.7168H54.3223ZM45.2666 15.8555V16.9834H44.1387V15.8555H45.2666ZM47.5225 15.8555V16.9834H46.4053V15.8555H47.5225ZM54.3223 15.8555V16.9834H53.1943V15.8555H54.3223ZM49.7998 15.8555V16.9834H48.6611V15.8555H49.7998ZM52.0664 15.8555V16.9834H50.9277V15.8555H52.0664ZM49.7998 19.25V18.1221H50.9277V19.25H49.7998ZM54.3223 19.25V18.1221H55.4609V19.25H54.3223ZM45.2666 19.25V18.1221H46.4053V19.25H45.2666ZM47.5225 19.25V18.1221H48.6611V19.25H47.5225ZM52.0664 19.25V18.1221H53.1943V19.25H52.0664Z"
    fill="#282C34" />
  <path
    d="M13.7122 5.99998H16.5522V7.89998H16.7522C16.8455 7.21998 17.1388 6.69998 17.6322 6.33997C18.1255 5.97998 18.7722 5.79998 19.5722 5.79998C20.7055 5.79998 21.5922 6.16664 22.2322 6.89998C22.8722 7.61998 23.1922 8.61998 23.1922 9.89998V17H20.1922V10.2C20.1922 9.63998 20.0322 9.19998 19.7122 8.87998C19.4055 8.55998 18.9855 8.39998 18.4522 8.39998C17.9188 8.39998 17.4922 8.55998 17.1722 8.87998C16.8655 9.19998 16.7122 9.63998 16.7122 10.2V17H13.7122V5.99998Z"
    fill="#282C34" />
  <path
    d="M27.4443 10.1C27.4443 9.44664 27.531 8.85331 27.7043 8.31998C27.891 7.78664 28.151 7.33331 28.4843 6.95998C28.831 6.58664 29.2377 6.29998 29.7043 6.09998C30.1843 5.89998 30.711 5.79998 31.2843 5.79998C32.071 5.79998 32.711 5.98664 33.2043 6.35998C33.711 6.73331 34.0177 7.24664 34.1243 7.89998H34.3243C34.311 7.67331 34.2977 7.44664 34.2843 7.21998C34.2577 7.01998 34.2377 6.81331 34.2243 6.59998C34.2243 6.37331 34.2243 6.17331 34.2243 5.99998V2.59998H37.2243V17H34.3243V15.08H34.1243C34.0177 15.7466 33.711 16.2666 33.2043 16.64C32.711 17.0133 32.071 17.2 31.2843 17.2C30.711 17.2 30.1843 17.1 29.7043 16.9C29.2377 16.6866 28.831 16.3933 28.4843 16.02C28.151 15.6333 27.891 15.1733 27.7043 14.64C27.531 14.0933 27.4443 13.48 27.4443 12.8V10.1ZM30.4443 10.2V12.7C30.4443 13.26 30.6043 13.7133 30.9243 14.06C31.2577 14.4066 31.7243 14.58 32.3243 14.58C32.9243 14.58 33.391 14.4133 33.7243 14.08C34.0577 13.7466 34.2243 13.32 34.2243 12.8V10.2C34.2243 9.65331 34.051 9.21998 33.7043 8.89998C33.3577 8.56664 32.8977 8.39998 32.3243 8.39998C31.751 8.39998 31.291 8.55998 30.9443 8.87998C30.611 9.19998 30.4443 9.63998 30.4443 10.2Z"
    fill="#282C34" />
  <path d="M7.1 0.400024H9L1.9 19.2H0L7.1 0.400024Z" fill="#282C34" />
</svg>