<svg width="151" height="46" viewBox="0 0 151 46" fill="none"
  xmlns="http://www.w3.org/2000/svg">
  <path
    d="M77.8593 32.9529C78.8797 32.9529 79.8215 32.7096 80.6849 32.2231C81.5745 31.7096 82.4248 30.9123 83.2358 29.8312V18.6826C82.5033 18.1691 81.7576 17.7907 80.9989 17.5475C80.2402 17.3042 79.4814 17.1826 78.7227 17.1826C77.2837 17.1826 76.2241 17.5745 75.5439 18.3583C74.8898 19.115 74.5627 20.3042 74.5627 21.9258V28.5745C74.5627 30.061 74.8375 31.1691 75.3869 31.8988C75.9363 32.6015 76.7605 32.9529 77.8593 32.9529ZM82.137 33.3177C81.6399 34.642 80.8157 35.7096 79.6646 36.5204C78.5134 37.3312 77.2052 37.7366 75.7401 37.7366C73.4639 37.7366 71.7371 36.9393 70.5598 35.3447C69.4086 33.7231 68.833 31.5069 68.833 28.6961V21.7231C68.833 18.9393 69.6179 16.7502 71.1877 15.1556C72.7837 13.561 74.9552 12.7637 77.7023 12.7637C78.7227 12.7366 79.6907 12.8447 80.6064 13.088C81.5483 13.3042 82.4248 13.588 83.2358 13.9393V9.3988H78.605V4.8988H88.9263V32.8312H93.2433V37.3312H83.2358V33.3177H82.137Z"
    fill="#FBFAFE" />
  <path d="M0.920898 45.4393L15.3237 4.8988H20.1901L5.78725 45.4393H0.920898Z"
    fill="#FBFAFE" />
  <path fill-rule="evenodd" clip-rule="evenodd"
    d="M111.782 45.1813H114.24V42.8135H116.651V45.1813H119.109V42.8135H121.567V45.1813H124.024V42.8135H126.459V45.1813H128.917V42.8135H131.328V45.1813H133.786V42.8135H136.244V45.1813H138.678V42.8135H141.136V45.1813H143.571V42.8135H146.005V45.1813H148.463V42.8135H150.921V35.7549H148.463V33.4095H150.921V26.3508H148.463V23.983H150.921V16.9021H148.463V14.579H150.921V7.49798H148.463V5.1302H150.921V0.439331H148.463V2.8071H146.005V0.439331H143.571V2.8071H141.136V0.439331H138.678V2.8071H136.244V0.439331H133.786V2.8071H131.328V0.439331H128.893V2.8071H126.459V0.439331H124.001V2.8071H121.567V0.439331H119.109V2.8071H116.651V0.439331H114.24V2.8071H111.782V0.439331H109.347V2.8071H106.889V9.84341H109.347V12.2112H106.889V19.2698H109.347V21.6376H106.889V28.6962H109.347V31.0417H106.889V38.1227H109.347V40.4681H106.889V45.1813H109.347V42.8135H111.782V45.1813ZM111.782 7.49792V5.13015H109.347V7.49792H111.782ZM116.651 5.13015V7.49792H114.24V5.13015H116.651ZM121.567 7.49792V5.13015H119.109V7.49792H121.567ZM126.459 7.49792V5.13015H124.001V7.49792H126.459ZM131.328 5.13015V7.49792H128.893V5.13015H131.328ZM136.244 7.49792H133.786V5.13015H136.244V7.49792ZM133.786 16.902H136.244V14.5789H133.786V16.902ZM136.244 26.3508H133.786V23.983H136.244V26.3508ZM136.244 35.7548H133.786V33.4094H136.244V35.7548ZM126.459 12.2111H128.917V9.84335H126.459V12.2111ZM111.782 12.2111H114.24V9.84335H111.782V12.2111ZM133.786 12.2111H131.328V9.84335H133.786V12.2111ZM116.651 12.2111H119.109V9.84335H116.651V12.2111ZM121.567 12.2111H124.024V9.84335H121.567V12.2111ZM121.567 16.902V14.5789H119.109V16.902H121.567ZM131.328 16.902V14.5789H128.893V16.902H131.328ZM111.782 16.902V14.5789H109.347V16.902H111.782ZM116.651 14.5789V16.902H114.24V14.5789H116.651ZM126.459 14.5789V16.902H124.001V14.5789H126.459ZM121.567 21.6375H124.024V19.2698H121.567V21.6375ZM111.782 21.6375H114.24V19.2698H111.782V21.6375ZM133.786 19.2698V21.6375H131.328V19.2698H133.786ZM119.109 21.6375V19.2698H116.651V21.6375H119.109ZM126.459 21.6375H128.917V19.2698H126.459V21.6375ZM131.328 23.983V26.3508H128.893V23.983H131.328ZM114.24 26.3508V23.983H116.651V26.3508H114.24ZM111.782 26.3508V23.983H109.347V26.3508H111.782ZM126.459 23.983V26.3508H124.024V23.983H126.459ZM121.567 26.3508V23.983H119.109V26.3508H121.567ZM126.459 28.6962V31.0416H128.917V28.6962H126.459ZM111.782 28.6962V31.0416H114.24V28.6962H111.782ZM121.567 28.6962V31.0416H124.024V28.6962H121.567ZM116.651 28.6962V31.0416H119.109V28.6962H116.651ZM131.328 31.0416V28.6962H133.786V31.0416H131.328ZM111.782 35.7548V33.4094H109.347V35.7548H111.782ZM116.651 33.4094V35.7548H114.24V33.4094H116.651ZM131.328 33.4094V35.7548H128.893V33.4094H131.328ZM121.567 33.4094V35.7548H119.109V33.4094H121.567ZM126.459 33.4094V35.7548H124.001V33.4094H126.459ZM121.567 38.1226V40.468H124.024V38.1226H121.567ZM131.328 38.1226V40.468H133.786V38.1226H131.328ZM111.782 40.468V38.1226H114.24V40.468H111.782ZM116.651 38.1226V40.468H119.109V38.1226H116.651ZM126.459 38.1226V40.468H128.917V38.1226H126.459ZM146.005 7.49792V5.13015H143.571V7.49792H146.005ZM141.136 5.13015V7.49792H138.678V5.13015H141.136ZM141.136 12.2111H143.571V9.84335H141.136V12.2111ZM148.463 12.2111H146.005V9.84335H148.463V12.2111ZM136.244 12.2111H138.678V9.84335H136.244V12.2111ZM146.005 14.5789V16.902H143.571V14.5789H146.005ZM141.136 16.902V14.5789H138.678V16.902H141.136ZM138.678 19.2698V21.6375H136.244V19.2698H138.678ZM148.463 21.6375V19.2698H146.005V21.6375H148.463ZM143.571 19.2698V21.6375H141.136V19.2698H143.571ZM146.005 26.3508V23.983H143.571V26.3508H146.005ZM141.136 23.983V26.3508H138.678V23.983H141.136ZM141.136 28.6962V31.0416H143.571V28.6962H141.136ZM136.244 31.0416V28.6962H138.678V31.0416H136.244ZM146.005 28.6962V31.0416H148.463V28.6962H146.005ZM146.005 33.4094V35.7548H143.571V33.4094H146.005ZM141.136 35.7548V33.4094H138.678V35.7548H141.136ZM136.244 40.468V38.1226H138.678V40.468H136.244ZM146.005 38.1226V40.468H148.463V38.1226H146.005ZM141.136 40.468V38.1226H143.571V40.468H141.136Z"
    fill="#FBFAFE" />
  <path
    d="M46.8621 32.831V37.331H33.1265V32.831H37.4434V17.5067H33.1265V13.0067H43.1731V16.9797H44.2327C44.7822 15.5473 45.6586 14.4662 46.8621 13.7365C48.0656 12.9797 49.3869 12.6013 50.8259 12.6013C52.8404 12.6013 54.4625 13.304 55.6922 14.7094C56.948 16.0878 57.576 18.0743 57.576 20.6689V32.831H61.8929V37.331H51.8462V21.4797C51.8462 20.1013 51.5453 19.0743 50.9436 18.3986C50.368 17.7229 49.5962 17.3851 48.6282 17.3851C47.5555 17.3851 46.5613 17.7229 45.6455 18.3986C44.756 19.0473 43.9319 19.9392 43.1731 21.0743V32.831H46.8621Z"
    fill="#FBFAFE" />
</svg>