<svg width="62" height="23" viewBox="0 0 62 23" fill="none" xmlns="http://www.w3.org/2000/svg">
<path d="M13.7737 18V16.4182H15.7737V8.67277H13.7737V7.09095H17.5373V8.78186H18.0464C18.2767 8.21217 18.6585 7.75762 19.1919 7.41823C19.7252 7.07883 20.3373 6.90914 21.0282 6.90914C22.01 6.90914 22.7858 7.23035 23.3555 7.87277C23.9252 8.5152 24.21 9.3758 24.21 10.4546V16.4182H26.2282V18H20.81V16.4182H22.4464V10.7273C22.4464 9.9758 22.2646 9.43035 21.901 9.09095C21.5494 8.75156 21.0949 8.58186 20.5373 8.58186C19.907 8.58186 19.3555 8.7455 18.8828 9.07277C18.41 9.40004 17.9616 9.83641 17.5373 10.3819V16.4182H19.1919V18H13.7737Z" fill="#FBFAFE"/>
<path d="M35.1212 16.5091C35.6788 16.5091 36.2 16.3576 36.6848 16.0546C37.1697 15.7516 37.6363 15.291 38.0848 14.6728V9.1455C37.7454 8.9152 37.3818 8.7455 36.9939 8.63641C36.6182 8.5152 36.206 8.45459 35.7576 8.45459C34.8727 8.45459 34.2182 8.66065 33.7939 9.07277C33.3818 9.48489 33.1757 10.1152 33.1757 10.9637V14.1637C33.1757 14.9637 33.3333 15.5576 33.6485 15.9455C33.9757 16.3213 34.4667 16.5091 35.1212 16.5091ZM37.5757 16.3091C37.3091 16.891 36.9151 17.3516 36.3939 17.691C35.8848 18.0182 35.3091 18.1819 34.6667 18.1819C33.6485 18.1819 32.8485 17.8243 32.2667 17.1091C31.697 16.394 31.4121 15.4122 31.4121 14.1637V10.9455C31.4121 9.68489 31.7879 8.69701 32.5394 7.98186C33.303 7.25459 34.3515 6.89095 35.6848 6.89095C36.0848 6.90308 36.4909 6.95762 36.903 7.05459C37.3151 7.13944 37.7091 7.26065 38.0848 7.41823V5.03641H35.7576V3.45459H39.8485V16.4182H41.8485V18H38.0848V16.3091H37.5757Z" fill="#FBFAFE"/>
<path d="M0.227295 21.6364L6.90002 3.45459H8.62729L1.95457 21.6364H0.227295Z" fill="#FBFAFE"/>
<path d="M47.3 21.5386H48.1V22.5386H47.3V21.5386ZM48.3 20.5386H49.1V21.5386H48.3V20.5386ZM47.3 19.5386H48.1V20.5386H47.3V19.5386ZM48.3 18.5386H49.1V19.5386H48.3V18.5386ZM47.3 17.5386H48.1V18.5386H47.3V17.5386ZM48.3 16.5386H49.1V17.5386H48.3V16.5386ZM47.3 15.5386H48.1V16.5386H47.3V15.5386ZM48.3 14.5386H49.1V15.5386H48.3V14.5386ZM47.3 13.5386H48.1V14.5386H47.3V13.5386ZM48.3 12.5386H49.1V13.5386H48.3V12.5386ZM47.3 11.5386H48.1V12.5386H47.3V11.5386ZM48.3 10.5386H49.1V11.5386H48.3V10.5386ZM47.3 9.53857H48.1V10.5386H47.3V9.53857ZM48.3 8.53857H49.1V9.53857H48.3V8.53857ZM47.3 7.53857H48.1V8.53857H47.3V7.53857ZM48.3 6.53857H49.1V7.53857H48.3V6.53857ZM47.3 5.53857H48.1V6.53857H47.3V5.53857ZM48.3 4.53857H49.1V5.53857H48.3V4.53857ZM47.3 3.53857H48.1V4.53857H47.3V3.53857ZM48.3 2.53857H49.1V3.53857H48.3V2.53857ZM47.3 1.53857H48.1V2.53857H47.3V1.53857ZM48.3 0.538574H49.1V1.53857H48.3V0.538574ZM49.3 21.5386H50.1V22.5386H49.3V21.5386ZM50.3 20.5386H51.1V21.5386H50.3V20.5386ZM49.3 19.5386H50.1V20.5386H49.3V19.5386ZM50.3 18.5386H51.1V19.5386H50.3V18.5386ZM49.3 17.5386H50.1V18.5386H49.3V17.5386ZM50.3 16.5386H51.1V17.5386H50.3V16.5386ZM49.3 15.5386H50.1V16.5386H49.3V15.5386ZM50.3 14.5386H51.1V15.5386H50.3V14.5386ZM49.3 13.5386H50.1V14.5386H49.3V13.5386ZM50.3 12.5386H51.1V13.5386H50.3V12.5386ZM49.3 11.5386H50.1V12.5386H49.3V11.5386ZM50.3 10.5386H51.1V11.5386H50.3V10.5386ZM49.3 9.53857H50.1V10.5386H49.3V9.53857ZM50.3 8.53857H51.1V9.53857H50.3V8.53857ZM49.3 7.53857H50.1V8.53857H49.3V7.53857ZM50.3 6.53857H51.1V7.53857H50.3V6.53857ZM49.3 5.53857H50.1V6.53857H49.3V5.53857ZM50.3 4.53857H51.1V5.53857H50.3V4.53857ZM49.3 3.53857H50.1V4.53857H49.3V3.53857ZM50.3 2.53857H51.1V3.53857H50.3V2.53857ZM49.3 1.53857H50.1V2.53857H49.3V1.53857ZM50.3 0.538574H51.1V1.53857H50.3V0.538574ZM51.3 21.5386H52.1V22.5386H51.3V21.5386ZM52.3 20.5386H53.1V21.5386H52.3V20.5386ZM51.3 19.5386H52.1V20.5386H51.3V19.5386ZM52.3 18.5386H53.1V19.5386H52.3V18.5386ZM51.3 17.5386H52.1V18.5386H51.3V17.5386ZM52.3 16.5386H53.1V17.5386H52.3V16.5386ZM51.3 15.5386H52.1V16.5386H51.3V15.5386ZM52.3 14.5386H53.1V15.5386H52.3V14.5386ZM51.3 13.5386H52.1V14.5386H51.3V13.5386ZM52.3 12.5386H53.1V13.5386H52.3V12.5386ZM51.3 11.5386H52.1V12.5386H51.3V11.5386ZM52.3 10.5386H53.1V11.5386H52.3V10.5386ZM51.3 9.53857H52.1V10.5386H51.3V9.53857ZM52.3 8.53857H53.1V9.53857H52.3V8.53857ZM51.3 7.53857H52.1V8.53857H51.3V7.53857ZM52.3 6.53857H53.1V7.53857H52.3V6.53857ZM51.3 5.53857H52.1V6.53857H51.3V5.53857ZM52.3 4.53857H53.1V5.53857H52.3V4.53857ZM51.3 3.53857H52.1V4.53857H51.3V3.53857ZM52.3 2.53857H53.1V3.53857H52.3V2.53857ZM51.3 1.53857H52.1V2.53857H51.3V1.53857ZM52.3 0.538574H53.1V1.53857H52.3V0.538574ZM53.3 21.5386H54.1V22.5386H53.3V21.5386ZM54.3 20.5386H55.1V21.5386H54.3V20.5386ZM53.3 19.5386H54.1V20.5386H53.3V19.5386ZM54.3 18.5386H55.1V19.5386H54.3V18.5386ZM53.3 17.5386H54.1V18.5386H53.3V17.5386ZM54.3 16.5386H55.1V17.5386H54.3V16.5386ZM53.3 15.5386H54.1V16.5386H53.3V15.5386ZM54.3 14.5386H55.1V15.5386H54.3V14.5386ZM53.3 13.5386H54.1V14.5386H53.3V13.5386ZM54.3 12.5386H55.1V13.5386H54.3V12.5386ZM53.3 11.5386H54.1V12.5386H53.3V11.5386ZM54.3 10.5386H55.1V11.5386H54.3V10.5386ZM53.3 9.53857H54.1V10.5386H53.3V9.53857ZM54.3 8.53857H55.1V9.53857H54.3V8.53857ZM53.3 7.53857H54.1V8.53857H53.3V7.53857ZM54.3 6.53857H55.1V7.53857H54.3V6.53857ZM53.3 5.53857H54.1V6.53857H53.3V5.53857ZM54.3 4.53857H55.1V5.53857H54.3V4.53857ZM53.3 3.53857H54.1V4.53857H53.3V3.53857ZM54.3 2.53857H55.1V3.53857H54.3V2.53857ZM53.3 1.53857H54.1V2.53857H53.3V1.53857ZM54.3 0.538574H55.1V1.53857H54.3V0.538574ZM55.3 21.5386H56.1V22.5386H55.3V21.5386ZM56.3 20.5386H57.1V21.5386H56.3V20.5386ZM55.3 19.5386H56.1V20.5386H55.3V19.5386ZM56.3 18.5386H57.1V19.5386H56.3V18.5386ZM55.3 17.5386H56.1V18.5386H55.3V17.5386ZM56.3 16.5386H57.1V17.5386H56.3V16.5386ZM55.3 15.5386H56.1V16.5386H55.3V15.5386ZM56.3 14.5386H57.1V15.5386H56.3V14.5386ZM55.3 13.5386H56.1V14.5386H55.3V13.5386ZM56.3 12.5386H57.1V13.5386H56.3V12.5386ZM55.3 11.5386H56.1V12.5386H55.3V11.5386ZM56.3 10.5386H57.1V11.5386H56.3V10.5386ZM55.3 9.53857H56.1V10.5386H55.3V9.53857ZM56.3 8.53857H57.1V9.53857H56.3V8.53857ZM55.3 7.53857H56.1V8.53857H55.3V7.53857ZM56.3 6.53857H57.1V7.53857H56.3V6.53857ZM55.3 5.53857H56.1V6.53857H55.3V5.53857ZM56.3 4.53857H57.1V5.53857H56.3V4.53857ZM55.3 3.53857H56.1V4.53857H55.3V3.53857ZM56.3 2.53857H57.1V3.53857H56.3V2.53857ZM55.3 1.53857H56.1V2.53857H55.3V1.53857ZM56.3 0.538574H57.1V1.53857H56.3V0.538574ZM57.3 21.5386H58.1V22.5386H57.3V21.5386ZM58.3 20.5386H59.1V21.5386H58.3V20.5386ZM57.3 19.5386H58.1V20.5386H57.3V19.5386ZM58.3 18.5386H59.1V19.5386H58.3V18.5386ZM57.3 17.5386H58.1V18.5386H57.3V17.5386ZM58.3 16.5386H59.1V17.5386H58.3V16.5386ZM57.3 15.5386H58.1V16.5386H57.3V15.5386ZM58.3 14.5386H59.1V15.5386H58.3V14.5386ZM57.3 13.5386H58.1V14.5386H57.3V13.5386ZM58.3 12.5386H59.1V13.5386H58.3V12.5386ZM57.3 11.5386H58.1V12.5386H57.3V11.5386ZM58.3 10.5386H59.1V11.5386H58.3V10.5386ZM57.3 9.53857H58.1V10.5386H57.3V9.53857ZM58.3 8.53857H59.1V9.53857H58.3V8.53857ZM57.3 7.53857H58.1V8.53857H57.3V7.53857ZM58.3 6.53857H59.1V7.53857H58.3V6.53857ZM57.3 5.53857H58.1V6.53857H57.3V5.53857ZM58.3 4.53857H59.1V5.53857H58.3V4.53857ZM57.3 3.53857H58.1V4.53857H57.3V3.53857ZM58.3 2.53857H59.1V3.53857H58.3V2.53857ZM57.3 1.53857H58.1V2.53857H57.3V1.53857ZM58.3 0.538574H59.1V1.53857H58.3V0.538574ZM59.3 21.5386H60.1V22.5386H59.3V21.5386ZM60.3 20.5386H61.1V21.5386H60.3V20.5386ZM59.3 19.5386H60.1V20.5386H59.3V19.5386ZM60.3 18.5386H61.1V19.5386H60.3V18.5386ZM59.3 17.5386H60.1V18.5386H59.3V17.5386ZM60.3 16.5386H61.1V17.5386H60.3V16.5386ZM59.3 15.5386H60.1V16.5386H59.3V15.5386ZM60.3 14.5386H61.1V15.5386H60.3V14.5386ZM59.3 13.5386H60.1V14.5386H59.3V13.5386ZM60.3 12.5386H61.1V13.5386H60.3V12.5386ZM59.3 11.5386H60.1V12.5386H59.3V11.5386ZM60.3 10.5386H61.1V11.5386H60.3V10.5386ZM59.3 9.53857H60.1V10.5386H59.3V9.53857ZM60.3 8.53857H61.1V9.53857H60.3V8.53857ZM59.3 7.53857H60.1V8.53857H59.3V7.53857ZM60.3 6.53857H61.1V7.53857H60.3V6.53857ZM59.3 5.53857H60.1V6.53857H59.3V5.53857ZM60.3 4.53857H61.1V5.53857H60.3V4.53857ZM59.3 3.53857H60.1V4.53857H59.3V3.53857ZM60.3 2.53857H61.1V3.53857H60.3V2.53857ZM59.3 1.53857H60.1V2.53857H59.3V1.53857ZM60.3 0.538574H61.1V1.53857H60.3V0.538574Z" fill="#FBFAFE"/>
</svg>
