<svg width="62" height="23" viewBox="0 0 62 23" fill="none"
  xmlns="http://www.w3.org/2000/svg">
  <path
    d="M47.8 21.5386H48.6V22.5386H47.8V21.5386ZM48.8 20.5386H49.6V21.5386H48.8V20.5386ZM47.8 19.5386H48.6V20.5386H47.8V19.5386ZM48.8 18.5386H49.6V19.5386H48.8V18.5386ZM47.8 17.5386H48.6V18.5386H47.8V17.5386ZM48.8 16.5386H49.6V17.5386H48.8V16.5386ZM47.8 15.5386H48.6V16.5386H47.8V15.5386ZM48.8 14.5386H49.6V15.5386H48.8V14.5386ZM47.8 13.5386H48.6V14.5386H47.8V13.5386ZM48.8 12.5386H49.6V13.5386H48.8V12.5386ZM47.8 11.5386H48.6V12.5386H47.8V11.5386ZM48.8 10.5386H49.6V11.5386H48.8V10.5386ZM47.8 9.53857H48.6V10.5386H47.8V9.53857ZM48.8 8.53857H49.6V9.53857H48.8V8.53857ZM47.8 7.53857H48.6V8.53857H47.8V7.53857ZM48.8 6.53857H49.6V7.53857H48.8V6.53857ZM47.8 5.53857H48.6V6.53857H47.8V5.53857ZM48.8 4.53857H49.6V5.53857H48.8V4.53857ZM47.8 3.53857H48.6V4.53857H47.8V3.53857ZM48.8 2.53857H49.6V3.53857H48.8V2.53857ZM47.8 1.53857H48.6V2.53857H47.8V1.53857ZM48.8 0.538574H49.6V1.53857H48.8V0.538574ZM49.8 21.5386H50.6V22.5386H49.8V21.5386ZM50.8 20.5386H51.6V21.5386H50.8V20.5386ZM49.8 19.5386H50.6V20.5386H49.8V19.5386ZM50.8 18.5386H51.6V19.5386H50.8V18.5386ZM49.8 17.5386H50.6V18.5386H49.8V17.5386ZM50.8 16.5386H51.6V17.5386H50.8V16.5386ZM49.8 15.5386H50.6V16.5386H49.8V15.5386ZM50.8 14.5386H51.6V15.5386H50.8V14.5386ZM49.8 13.5386H50.6V14.5386H49.8V13.5386ZM50.8 12.5386H51.6V13.5386H50.8V12.5386ZM49.8 11.5386H50.6V12.5386H49.8V11.5386ZM50.8 10.5386H51.6V11.5386H50.8V10.5386ZM49.8 9.53857H50.6V10.5386H49.8V9.53857ZM50.8 8.53857H51.6V9.53857H50.8V8.53857ZM49.8 7.53857H50.6V8.53857H49.8V7.53857ZM50.8 6.53857H51.6V7.53857H50.8V6.53857ZM49.8 5.53857H50.6V6.53857H49.8V5.53857ZM50.8 4.53857H51.6V5.53857H50.8V4.53857ZM49.8 3.53857H50.6V4.53857H49.8V3.53857ZM50.8 2.53857H51.6V3.53857H50.8V2.53857ZM49.8 1.53857H50.6V2.53857H49.8V1.53857ZM50.8 0.538574H51.6V1.53857H50.8V0.538574ZM51.8 21.5386H52.6V22.5386H51.8V21.5386ZM52.8 20.5386H53.6V21.5386H52.8V20.5386ZM51.8 19.5386H52.6V20.5386H51.8V19.5386ZM52.8 18.5386H53.6V19.5386H52.8V18.5386ZM51.8 17.5386H52.6V18.5386H51.8V17.5386ZM52.8 16.5386H53.6V17.5386H52.8V16.5386ZM51.8 15.5386H52.6V16.5386H51.8V15.5386ZM52.8 14.5386H53.6V15.5386H52.8V14.5386ZM51.8 13.5386H52.6V14.5386H51.8V13.5386ZM52.8 12.5386H53.6V13.5386H52.8V12.5386ZM51.8 11.5386H52.6V12.5386H51.8V11.5386ZM52.8 10.5386H53.6V11.5386H52.8V10.5386ZM51.8 9.53857H52.6V10.5386H51.8V9.53857ZM52.8 8.53857H53.6V9.53857H52.8V8.53857ZM51.8 7.53857H52.6V8.53857H51.8V7.53857ZM52.8 6.53857H53.6V7.53857H52.8V6.53857ZM51.8 5.53857H52.6V6.53857H51.8V5.53857ZM52.8 4.53857H53.6V5.53857H52.8V4.53857ZM51.8 3.53857H52.6V4.53857H51.8V3.53857ZM52.8 2.53857H53.6V3.53857H52.8V2.53857ZM51.8 1.53857H52.6V2.53857H51.8V1.53857ZM52.8 0.538574H53.6V1.53857H52.8V0.538574ZM53.8 21.5386H54.6V22.5386H53.8V21.5386ZM54.8 20.5386H55.6V21.5386H54.8V20.5386ZM53.8 19.5386H54.6V20.5386H53.8V19.5386ZM54.8 18.5386H55.6V19.5386H54.8V18.5386ZM53.8 17.5386H54.6V18.5386H53.8V17.5386ZM54.8 16.5386H55.6V17.5386H54.8V16.5386ZM53.8 15.5386H54.6V16.5386H53.8V15.5386ZM54.8 14.5386H55.6V15.5386H54.8V14.5386ZM53.8 13.5386H54.6V14.5386H53.8V13.5386ZM54.8 12.5386H55.6V13.5386H54.8V12.5386ZM53.8 11.5386H54.6V12.5386H53.8V11.5386ZM54.8 10.5386H55.6V11.5386H54.8V10.5386ZM53.8 9.53857H54.6V10.5386H53.8V9.53857ZM54.8 8.53857H55.6V9.53857H54.8V8.53857ZM53.8 7.53857H54.6V8.53857H53.8V7.53857ZM54.8 6.53857H55.6V7.53857H54.8V6.53857ZM53.8 5.53857H54.6V6.53857H53.8V5.53857ZM54.8 4.53857H55.6V5.53857H54.8V4.53857ZM53.8 3.53857H54.6V4.53857H53.8V3.53857ZM54.8 2.53857H55.6V3.53857H54.8V2.53857ZM53.8 1.53857H54.6V2.53857H53.8V1.53857ZM54.8 0.538574H55.6V1.53857H54.8V0.538574ZM55.8 21.5386H56.6V22.5386H55.8V21.5386ZM56.8 20.5386H57.6V21.5386H56.8V20.5386ZM55.8 19.5386H56.6V20.5386H55.8V19.5386ZM56.8 18.5386H57.6V19.5386H56.8V18.5386ZM55.8 17.5386H56.6V18.5386H55.8V17.5386ZM56.8 16.5386H57.6V17.5386H56.8V16.5386ZM55.8 15.5386H56.6V16.5386H55.8V15.5386ZM56.8 14.5386H57.6V15.5386H56.8V14.5386ZM55.8 13.5386H56.6V14.5386H55.8V13.5386ZM56.8 12.5386H57.6V13.5386H56.8V12.5386ZM55.8 11.5386H56.6V12.5386H55.8V11.5386ZM56.8 10.5386H57.6V11.5386H56.8V10.5386ZM55.8 9.53857H56.6V10.5386H55.8V9.53857ZM56.8 8.53857H57.6V9.53857H56.8V8.53857ZM55.8 7.53857H56.6V8.53857H55.8V7.53857ZM56.8 6.53857H57.6V7.53857H56.8V6.53857ZM55.8 5.53857H56.6V6.53857H55.8V5.53857ZM56.8 4.53857H57.6V5.53857H56.8V4.53857ZM55.8 3.53857H56.6V4.53857H55.8V3.53857ZM56.8 2.53857H57.6V3.53857H56.8V2.53857ZM55.8 1.53857H56.6V2.53857H55.8V1.53857ZM56.8 0.538574H57.6V1.53857H56.8V0.538574ZM57.8 21.5386H58.6V22.5386H57.8V21.5386ZM58.8 20.5386H59.6V21.5386H58.8V20.5386ZM57.8 19.5386H58.6V20.5386H57.8V19.5386ZM58.8 18.5386H59.6V19.5386H58.8V18.5386ZM57.8 17.5386H58.6V18.5386H57.8V17.5386ZM58.8 16.5386H59.6V17.5386H58.8V16.5386ZM57.8 15.5386H58.6V16.5386H57.8V15.5386ZM58.8 14.5386H59.6V15.5386H58.8V14.5386ZM57.8 13.5386H58.6V14.5386H57.8V13.5386ZM58.8 12.5386H59.6V13.5386H58.8V12.5386ZM57.8 11.5386H58.6V12.5386H57.8V11.5386ZM58.8 10.5386H59.6V11.5386H58.8V10.5386ZM57.8 9.53857H58.6V10.5386H57.8V9.53857ZM58.8 8.53857H59.6V9.53857H58.8V8.53857ZM57.8 7.53857H58.6V8.53857H57.8V7.53857ZM58.8 6.53857H59.6V7.53857H58.8V6.53857ZM57.8 5.53857H58.6V6.53857H57.8V5.53857ZM58.8 4.53857H59.6V5.53857H58.8V4.53857ZM57.8 3.53857H58.6V4.53857H57.8V3.53857ZM58.8 2.53857H59.6V3.53857H58.8V2.53857ZM57.8 1.53857H58.6V2.53857H57.8V1.53857ZM58.8 0.538574H59.6V1.53857H58.8V0.538574ZM59.8 21.5386H60.6V22.5386H59.8V21.5386ZM60.8 20.5386H61.6V21.5386H60.8V20.5386ZM59.8 19.5386H60.6V20.5386H59.8V19.5386ZM60.8 18.5386H61.6V19.5386H60.8V18.5386ZM59.8 17.5386H60.6V18.5386H59.8V17.5386ZM60.8 16.5386H61.6V17.5386H60.8V16.5386ZM59.8 15.5386H60.6V16.5386H59.8V15.5386ZM60.8 14.5386H61.6V15.5386H60.8V14.5386ZM59.8 13.5386H60.6V14.5386H59.8V13.5386ZM60.8 12.5386H61.6V13.5386H60.8V12.5386ZM59.8 11.5386H60.6V12.5386H59.8V11.5386ZM60.8 10.5386H61.6V11.5386H60.8V10.5386ZM59.8 9.53857H60.6V10.5386H59.8V9.53857ZM60.8 8.53857H61.6V9.53857H60.8V8.53857ZM59.8 7.53857H60.6V8.53857H59.8V7.53857ZM60.8 6.53857H61.6V7.53857H60.8V6.53857ZM59.8 5.53857H60.6V6.53857H59.8V5.53857ZM60.8 4.53857H61.6V5.53857H60.8V4.53857ZM59.8 3.53857H60.6V4.53857H59.8V3.53857ZM60.8 2.53857H61.6V3.53857H60.8V2.53857ZM59.8 1.53857H60.6V2.53857H59.8V1.53857ZM60.8 0.538574H61.6V1.53857H60.8V0.538574Z"
    fill="#FBFAFE" />
  <path
    d="M14.2737 18V16.4182H16.2737V8.67277H14.2737V7.09095H18.0373V8.78186H18.5464C18.7767 8.21217 19.1585 7.75762 19.6919 7.41823C20.2252 7.07883 20.8373 6.90914 21.5282 6.90914C22.51 6.90914 23.2858 7.23035 23.8555 7.87277C24.4252 8.5152 24.71 9.3758 24.71 10.4546V16.4182H26.7282V18H21.31V16.4182H22.9464V10.7273C22.9464 9.9758 22.7646 9.43035 22.401 9.09095C22.0494 8.75156 21.5949 8.58186 21.0373 8.58186C20.407 8.58186 19.8555 8.7455 19.3828 9.07277C18.91 9.40004 18.4616 9.83641 18.0373 10.3819V16.4182H19.6919V18H14.2737Z"
    fill="#FBFAFE" />
  <path
    d="M35.6212 16.5091C36.1788 16.5091 36.7 16.3576 37.1848 16.0546C37.6697 15.7516 38.1363 15.291 38.5848 14.6728V9.1455C38.2454 8.9152 37.8818 8.7455 37.4939 8.63641C37.1182 8.5152 36.706 8.45459 36.2576 8.45459C35.3727 8.45459 34.7182 8.66065 34.2939 9.07277C33.8818 9.48489 33.6757 10.1152 33.6757 10.9637V14.1637C33.6757 14.9637 33.8333 15.5576 34.1485 15.9455C34.4757 16.3213 34.9667 16.5091 35.6212 16.5091ZM38.0757 16.3091C37.8091 16.891 37.4151 17.3516 36.8939 17.691C36.3848 18.0182 35.8091 18.1819 35.1667 18.1819C34.1485 18.1819 33.3485 17.8243 32.7667 17.1091C32.197 16.394 31.9121 15.4122 31.9121 14.1637V10.9455C31.9121 9.68489 32.2879 8.69701 33.0394 7.98186C33.803 7.25459 34.8515 6.89095 36.1848 6.89095C36.5848 6.90308 36.9909 6.95762 37.403 7.05459C37.8151 7.13944 38.2091 7.26065 38.5848 7.41823V5.03641H36.2576V3.45459H40.3485V16.4182H42.3485V18H38.5848V16.3091H38.0757Z"
    fill="#FBFAFE" />
  <path d="M0.727295 21.6364L7.40002 3.45459H9.12729L2.45457 21.6364H0.727295Z"
    fill="#FBFAFE" />
</svg>