<svg width="151" height="46" viewBox="0 0 151 46" fill="none"
  xmlns="http://www.w3.org/2000/svg">
  <path
    d="M46.0549 33.6757V38.041H32.1235V33.6757H36.502V18.8101H32.1235V14.4448H42.3133V18.2988H43.388C43.9453 16.9093 44.8342 15.8606 46.0549 15.1527C47.2755 14.4186 48.6156 14.0515 50.0751 14.0515C52.1183 14.0515 53.7636 14.7332 55.0107 16.0965C56.2845 17.4336 56.9213 19.3607 56.9213 21.8776V33.6757H61.2997V38.041H51.11V22.6641C51.11 21.327 50.8048 20.3307 50.1945 19.6753C49.6107 19.0198 48.8279 18.6921 47.846 18.6921C46.7581 18.6921 45.7497 19.0198 44.821 19.6753C43.9187 20.3045 43.0829 21.1697 42.3133 22.2709V33.6757H46.0549Z"
    fill="#FBFAFE" />
  <path
    d="M77.6085 33.7939C78.6434 33.7939 79.5987 33.5579 80.4744 33.086C81.3766 32.5878 82.239 31.8144 83.0616 30.7657V19.9508C82.3186 19.4526 81.5623 19.0856 80.7928 18.8496C80.0233 18.6136 79.2537 18.4957 78.4842 18.4957C77.0247 18.4957 75.95 18.8758 75.2601 19.6361C74.5967 20.3702 74.265 21.5238 74.265 23.0969V29.5465C74.265 30.9885 74.5436 32.0635 75.1009 32.7714C75.6581 33.453 76.494 33.7939 77.6085 33.7939ZM81.9471 34.1478C81.4429 35.4325 80.607 36.4681 79.4395 37.2546C78.2719 38.0412 76.9451 38.4344 75.4591 38.4344C73.1505 38.4344 71.3991 37.661 70.205 36.1141C69.0374 34.5411 68.4536 32.3912 68.4536 29.6645V22.9003C68.4536 20.1998 69.2497 18.0762 70.8418 16.5293C72.4605 14.9825 74.663 14.209 77.4493 14.209C78.4842 14.1828 79.466 14.2877 80.3948 14.5236C81.3501 14.7334 82.239 15.0087 83.0616 15.3495V10.9449H78.3648V6.57959H88.8332V33.6759H93.2116V38.0412H83.0616V34.1478H81.9471Z"
    fill="#FBFAFE" />
  <path fill-rule="evenodd" clip-rule="evenodd"
    d="M110.589 45.6561H113.081V43.3592H115.527V45.6561H118.02V43.3592H120.513V45.6561H123.005V43.3592H125.475V45.6561H127.968V43.3592H130.413V45.6561H132.906V43.3592H135.399V45.6561H137.868V43.3592H140.361V45.6561H142.83V43.3592H145.299V45.6561H147.792V43.3592H150.285V36.5118H147.792V34.2366H150.285V27.3892H147.792V25.0924H150.285V18.2233H147.792V15.9698H150.285V9.10076H147.792V6.80387H150.285V2.25342H147.792V4.55031H145.299V2.25342H142.83V4.55031H140.361V2.25342H137.868V4.55031H135.399V2.25342H132.906V4.55031H130.413V2.25342H127.944V4.55031H125.475V2.25342H122.982V4.55031H120.513V2.25342H118.02V4.55031H115.527V2.25342H113.081V4.55031H110.589V2.25342H108.119V4.55031H105.626V11.376H108.119V13.6729H105.626V20.5202H108.119V22.8171H105.626V29.6645H108.119V31.9397H105.626V38.8087H108.119V41.0839H105.626V45.6561H108.119V43.3592H110.589V45.6561ZM110.589 9.10071V6.80381H108.119V9.10071H110.589ZM115.527 6.80381V9.10071H113.081V6.80381H115.527ZM120.513 9.10071V6.80381H118.02V9.10071H120.513ZM125.475 9.10071V6.80381H122.982V9.10071H125.475ZM130.413 6.80381V9.10071H127.944V6.80381H130.413ZM135.399 9.10071H132.906V6.80381H135.399V9.10071ZM132.906 18.2233H135.399V15.9697H132.906V18.2233ZM135.399 27.3892H132.906V25.0923H135.399V27.3892ZM135.399 36.5118H132.906V34.2365H135.399V36.5118ZM125.475 13.6728H127.968V11.3759H125.475V13.6728ZM110.589 13.6728H113.081V11.3759H110.589V13.6728ZM132.906 13.6728H130.413V11.3759H132.906V13.6728ZM115.527 13.6728H118.02V11.3759H115.527V13.6728ZM120.513 13.6728H123.005V11.3759H120.513V13.6728ZM120.513 18.2233V15.9697H118.02V18.2233H120.513ZM130.413 18.2233V15.9697H127.944V18.2233H130.413ZM110.589 18.2233V15.9697H108.119V18.2233H110.589ZM115.527 15.9697V18.2233H113.081V15.9697H115.527ZM125.475 15.9697V18.2233H122.982V15.9697H125.475ZM120.513 22.8171H123.005V20.5202H120.513V22.8171ZM110.589 22.8171H113.081V20.5202H110.589V22.8171ZM132.906 20.5202V22.8171H130.413V20.5202H132.906ZM118.02 22.8171V20.5202H115.527V22.8171H118.02ZM125.475 22.8171H127.968V20.5202H125.475V22.8171ZM130.413 25.0923V27.3892H127.944V25.0923H130.413ZM113.081 27.3892V25.0923H115.527V27.3892H113.081ZM110.589 27.3892V25.0923H108.119V27.3892H110.589ZM125.475 25.0923V27.3892H123.005V25.0923H125.475ZM120.513 27.3892V25.0923H118.02V27.3892H120.513ZM125.475 29.6644V31.9396H127.968V29.6644H125.475ZM110.589 29.6644V31.9396H113.081V29.6644H110.589ZM120.513 29.6644V31.9396H123.005V29.6644H120.513ZM115.527 29.6644V31.9396H118.02V29.6644H115.527ZM130.413 31.9396V29.6644H132.906V31.9396H130.413ZM110.589 36.5118V34.2365H108.119V36.5118H110.589ZM115.527 34.2365V36.5118H113.081V34.2365H115.527ZM130.413 34.2365V36.5118H127.944V34.2365H130.413ZM120.513 34.2365V36.5118H118.02V34.2365H120.513ZM125.475 34.2365V36.5118H122.982V34.2365H125.475ZM120.513 38.8087V41.0839H123.005V38.8087H120.513ZM130.413 38.8087V41.0839H132.906V38.8087H130.413ZM110.589 41.0839V38.8087H113.081V41.0839H110.589ZM115.527 38.8087V41.0839H118.02V38.8087H115.527ZM125.475 38.8087V41.0839H127.968V38.8087H125.475ZM145.299 9.10071V6.80381H142.83V9.10071H145.299ZM140.361 6.80381V9.10071H137.868V6.80381H140.361ZM140.361 13.6728H142.83V11.3759H140.361V13.6728ZM147.792 13.6728H145.299V11.3759H147.792V13.6728ZM135.399 13.6728H137.868V11.3759H135.399V13.6728ZM145.299 15.9697V18.2233H142.83V15.9697H145.299ZM140.361 18.2233V15.9697H137.868V18.2233H140.361ZM137.868 20.5202V22.8171H135.399V20.5202H137.868ZM147.792 22.8171V20.5202H145.299V22.8171H147.792ZM142.83 20.5202V22.8171H140.361V20.5202H142.83ZM145.299 27.3892V25.0923H142.83V27.3892H145.299ZM140.361 25.0923V27.3892H137.868V25.0923H140.361ZM140.361 29.6644V31.9396H142.83V29.6644H140.361ZM135.399 31.9396V29.6644H137.868V31.9396H135.399ZM145.299 29.6644V31.9396H147.792V29.6644H145.299ZM145.299 34.2365V36.5118H142.83V34.2365H145.299ZM140.361 36.5118V34.2365H137.868V36.5118H140.361ZM135.399 41.0839V38.8087H137.868V41.0839H135.399ZM145.299 38.8087V41.0839H147.792V38.8087H145.299ZM140.361 41.0839V38.8087H142.83V41.0839H140.361Z"
    fill="#FBFAFE" />
  <path d="M0.285156 45.6561L17.0004 0.656128H22.6481L5.93282 45.6561H0.285156Z"
    fill="#FBFAFE" />
</svg>