<svg width="57" height="22" viewBox="0 0 57 22" fill="none"
  xmlns="http://www.w3.org/2000/svg">
  <path
    d="M13.7122 5.99998H16.5522V7.89998H16.7522C16.8455 7.21998 17.1388 6.69998 17.6322 6.33997C18.1255 5.97998 18.7722 5.79998 19.5722 5.79998C20.7055 5.79998 21.5922 6.16664 22.2322 6.89998C22.8722 7.61998 23.1922 8.61998 23.1922 9.89998V17H20.1922V10.2C20.1922 9.63998 20.0322 9.19998 19.7122 8.87998C19.4055 8.55998 18.9855 8.39998 18.4522 8.39998C17.9188 8.39998 17.4922 8.55998 17.1722 8.87998C16.8655 9.19998 16.7122 9.63998 16.7122 10.2V17H13.7122V5.99998Z"
    fill="#282C34" />
  <path
    d="M27.4443 10.1C27.4443 9.44664 27.531 8.85331 27.7043 8.31998C27.891 7.78664 28.151 7.33331 28.4843 6.95998C28.831 6.58664 29.2377 6.29998 29.7043 6.09998C30.1843 5.89998 30.711 5.79998 31.2843 5.79998C32.071 5.79998 32.711 5.98664 33.2043 6.35998C33.711 6.73331 34.0177 7.24664 34.1243 7.89998H34.3243C34.311 7.67331 34.2977 7.44664 34.2843 7.21998C34.2577 7.01998 34.2377 6.81331 34.2243 6.59998C34.2243 6.37331 34.2243 6.17331 34.2243 5.99998V2.59998H37.2243V17H34.3243V15.08H34.1243C34.0177 15.7466 33.711 16.2666 33.2043 16.64C32.711 17.0133 32.071 17.2 31.2843 17.2C30.711 17.2 30.1843 17.1 29.7043 16.9C29.2377 16.6866 28.831 16.3933 28.4843 16.02C28.151 15.6333 27.891 15.1733 27.7043 14.64C27.531 14.0933 27.4443 13.48 27.4443 12.8V10.1ZM30.4443 10.2V12.7C30.4443 13.26 30.6043 13.7133 30.9243 14.06C31.2577 14.4066 31.7243 14.58 32.3243 14.58C32.9243 14.58 33.391 14.4133 33.7243 14.08C34.0577 13.7466 34.2243 13.32 34.2243 12.8V10.2C34.2243 9.65331 34.051 9.21998 33.7043 8.89998C33.3577 8.56664 32.8977 8.39998 32.3243 8.39998C31.751 8.39998 31.291 8.55998 30.9443 8.87998C30.611 9.19998 30.4443 9.63998 30.4443 10.2Z"
    fill="#282C34" />
  <path d="M7.1 0.400024H9L1.9 19.2H0L7.1 0.400024Z" fill="#282C34" />
  <path
    d="M43 21.4H43.4V22H43V21.4ZM44 20.4H44.4V21H44V20.4ZM43 19.4H43.4V20H43V19.4ZM44 18.4H44.4V19H44V18.4ZM43 17.4H43.4V18H43V17.4ZM44 16.4H44.4V17H44V16.4ZM43 15.4H43.4V16H43V15.4ZM44 14.4H44.4V15H44V14.4ZM43 13.4H43.4V14H43V13.4ZM44 12.4H44.4V13H44V12.4ZM43 11.4H43.4V12H43V11.4ZM44 10.4H44.4V11H44V10.4ZM43 9.40002H43.4V10H43V9.40002ZM44 8.40002H44.4V9.00002H44V8.40002ZM43 7.40002H43.4V8.00002H43V7.40002ZM44 6.40002H44.4V7.00002H44V6.40002ZM43 5.40002H43.4V6.00002H43V5.40002ZM44 4.40002H44.4V5.00002H44V4.40002ZM43 3.40002H43.4V4.00002H43V3.40002ZM44 2.40002H44.4V3.00002H44V2.40002ZM43 1.40002H43.4V2.00002H43V1.40002ZM44 0.400024H44.4V1.00002H44V0.400024ZM45 21.4H45.4V22H45V21.4ZM46 20.4H46.4V21H46V20.4ZM45 19.4H45.4V20H45V19.4ZM46 18.4H46.4V19H46V18.4ZM45 17.4H45.4V18H45V17.4ZM46 16.4H46.4V17H46V16.4ZM45 15.4H45.4V16H45V15.4ZM46 14.4H46.4V15H46V14.4ZM45 13.4H45.4V14H45V13.4ZM46 12.4H46.4V13H46V12.4ZM45 11.4H45.4V12H45V11.4ZM46 10.4H46.4V11H46V10.4ZM45 9.40002H45.4V10H45V9.40002ZM46 8.40002H46.4V9.00002H46V8.40002ZM45 7.40002H45.4V8.00002H45V7.40002ZM46 6.40002H46.4V7.00002H46V6.40002ZM45 5.40002H45.4V6.00002H45V5.40002ZM46 4.40002H46.4V5.00002H46V4.40002ZM45 3.40002H45.4V4.00002H45V3.40002ZM46 2.40002H46.4V3.00002H46V2.40002ZM45 1.40002H45.4V2.00002H45V1.40002ZM46 0.400024H46.4V1.00002H46V0.400024ZM47 21.4H47.4V22H47V21.4ZM48 20.4H48.4V21H48V20.4ZM47 19.4H47.4V20H47V19.4ZM48 18.4H48.4V19H48V18.4ZM47 17.4H47.4V18H47V17.4ZM48 16.4H48.4V17H48V16.4ZM47 15.4H47.4V16H47V15.4ZM48 14.4H48.4V15H48V14.4ZM47 13.4H47.4V14H47V13.4ZM48 12.4H48.4V13H48V12.4ZM47 11.4H47.4V12H47V11.4ZM48 10.4H48.4V11H48V10.4ZM47 9.40002H47.4V10H47V9.40002ZM48 8.40002H48.4V9.00002H48V8.40002ZM47 7.40002H47.4V8.00002H47V7.40002ZM48 6.40002H48.4V7.00002H48V6.40002ZM47 5.40002H47.4V6.00002H47V5.40002ZM48 4.40002H48.4V5.00002H48V4.40002ZM47 3.40002H47.4V4.00002H47V3.40002ZM48 2.40002H48.4V3.00002H48V2.40002ZM47 1.40002H47.4V2.00002H47V1.40002ZM48 0.400024H48.4V1.00002H48V0.400024ZM49 21.4H49.4V22H49V21.4ZM50 20.4H50.4V21H50V20.4ZM49 19.4H49.4V20H49V19.4ZM50 18.4H50.4V19H50V18.4ZM49 17.4H49.4V18H49V17.4ZM50 16.4H50.4V17H50V16.4ZM49 15.4H49.4V16H49V15.4ZM50 14.4H50.4V15H50V14.4ZM49 13.4H49.4V14H49V13.4ZM50 12.4H50.4V13H50V12.4ZM49 11.4H49.4V12H49V11.4ZM50 10.4H50.4V11H50V10.4ZM49 9.40002H49.4V10H49V9.40002ZM50 8.40002H50.4V9.00002H50V8.40002ZM49 7.40002H49.4V8.00002H49V7.40002ZM50 6.40002H50.4V7.00002H50V6.40002ZM49 5.40002H49.4V6.00002H49V5.40002ZM50 4.40002H50.4V5.00002H50V4.40002ZM49 3.40002H49.4V4.00002H49V3.40002ZM50 2.40002H50.4V3.00002H50V2.40002ZM49 1.40002H49.4V2.00002H49V1.40002ZM50 0.400024H50.4V1.00002H50V0.400024ZM51 21.4H51.4V22H51V21.4ZM52 20.4H52.4V21H52V20.4ZM51 19.4H51.4V20H51V19.4ZM52 18.4H52.4V19H52V18.4ZM51 17.4H51.4V18H51V17.4ZM52 16.4H52.4V17H52V16.4ZM51 15.4H51.4V16H51V15.4ZM52 14.4H52.4V15H52V14.4ZM51 13.4H51.4V14H51V13.4ZM52 12.4H52.4V13H52V12.4ZM51 11.4H51.4V12H51V11.4ZM52 10.4H52.4V11H52V10.4ZM51 9.40002H51.4V10H51V9.40002ZM52 8.40002H52.4V9.00002H52V8.40002ZM51 7.40002H51.4V8.00002H51V7.40002ZM52 6.40002H52.4V7.00002H52V6.40002ZM51 5.40002H51.4V6.00002H51V5.40002ZM52 4.40002H52.4V5.00002H52V4.40002ZM51 3.40002H51.4V4.00002H51V3.40002ZM52 2.40002H52.4V3.00002H52V2.40002ZM51 1.40002H51.4V2.00002H51V1.40002ZM52 0.400024H52.4V1.00002H52V0.400024ZM53 21.4H53.4V22H53V21.4ZM54 20.4H54.4V21H54V20.4ZM53 19.4H53.4V20H53V19.4ZM54 18.4H54.4V19H54V18.4ZM53 17.4H53.4V18H53V17.4ZM54 16.4H54.4V17H54V16.4ZM53 15.4H53.4V16H53V15.4ZM54 14.4H54.4V15H54V14.4ZM53 13.4H53.4V14H53V13.4ZM54 12.4H54.4V13H54V12.4ZM53 11.4H53.4V12H53V11.4ZM54 10.4H54.4V11H54V10.4ZM53 9.40002H53.4V10H53V9.40002ZM54 8.40002H54.4V9.00002H54V8.40002ZM53 7.40002H53.4V8.00002H53V7.40002ZM54 6.40002H54.4V7.00002H54V6.40002ZM53 5.40002H53.4V6.00002H53V5.40002ZM54 4.40002H54.4V5.00002H54V4.40002ZM53 3.40002H53.4V4.00002H53V3.40002ZM54 2.40002H54.4V3.00002H54V2.40002ZM53 1.40002H53.4V2.00002H53V1.40002ZM54 0.400024H54.4V1.00002H54V0.400024ZM55 21.4H55.4V22H55V21.4ZM56 20.4H56.4V21H56V20.4ZM55 19.4H55.4V20H55V19.4ZM56 18.4H56.4V19H56V18.4ZM55 17.4H55.4V18H55V17.4ZM56 16.4H56.4V17H56V16.4ZM55 15.4H55.4V16H55V15.4ZM56 14.4H56.4V15H56V14.4ZM55 13.4H55.4V14H55V13.4ZM56 12.4H56.4V13H56V12.4ZM55 11.4H55.4V12H55V11.4ZM56 10.4H56.4V11H56V10.4ZM55 9.40002H55.4V10H55V9.40002ZM56 8.40002H56.4V9.00002H56V8.40002ZM55 7.40002H55.4V8.00002H55V7.40002ZM56 6.40002H56.4V7.00002H56V6.40002ZM55 5.40002H55.4V6.00002H55V5.40002ZM56 4.40002H56.4V5.00002H56V4.40002ZM55 3.40002H55.4V4.00002H55V3.40002ZM56 2.40002H56.4V3.00002H56V2.40002ZM55 1.40002H55.4V2.00002H55V1.40002ZM56 0.400024H56.4V1.00002H56V0.400024Z"
    fill="#282C34" />
</svg>