<svg width="66" height="21" viewBox="0 0 66 21" fill="none"
  xmlns="http://www.w3.org/2000/svg">
  <path
    d="M19.5221 13.7999V15.9999H12.9221V13.7999H14.9221V7.29083H12.9221V5.09083H17.9221V6.90901H18.413C18.6797 6.24235 19.0979 5.74538 19.6676 5.4181C20.2373 5.07871 20.8494 4.90901 21.5039 4.90901C22.413 4.90901 23.1524 5.2181 23.7221 5.83629C24.3039 6.45447 24.5948 7.36356 24.5948 8.56356V13.7999H26.5948V15.9999H21.5948V8.96356C21.5948 8.38174 21.4736 7.95144 21.2312 7.67265C21.0009 7.39386 20.6797 7.25447 20.2676 7.25447C19.8191 7.25447 19.3948 7.39386 18.9948 7.67265C18.607 7.95144 18.2494 8.33326 17.9221 8.8181V13.7999H19.5221Z"
    fill="#FBFAFE" />
  <path
    d="M35.1351 13.8363C35.5715 13.8363 35.9715 13.7393 36.3351 13.5454C36.7109 13.3393 37.0806 13.0302 37.4442 12.6181V7.83629C37.1048 7.60598 36.7654 7.44235 36.426 7.34538C36.0866 7.23629 35.7594 7.18174 35.4442 7.18174C34.8624 7.18174 34.4381 7.33932 34.1715 7.65447C33.9048 7.9575 33.7715 8.45447 33.7715 9.14538V12.0363C33.7715 12.6545 33.8866 13.109 34.1169 13.3999C34.3594 13.6908 34.6988 13.8363 35.1351 13.8363ZM36.9351 14.1454C36.7169 14.7636 36.3351 15.2605 35.7897 15.6363C35.2563 15.9999 34.6381 16.1817 33.9351 16.1817C32.8684 16.1817 32.0745 15.8181 31.5533 15.0908C31.0321 14.3514 30.7715 13.3514 30.7715 12.0908V9.03629C30.7715 7.7878 31.1291 6.80598 31.8442 6.09083C32.5715 5.36356 33.5654 4.99992 34.826 4.99992C35.323 4.99992 35.7897 5.04841 36.226 5.14538C36.6624 5.24235 37.0685 5.37568 37.4442 5.54538V3.65447H35.3715V1.45447H40.426V13.7999H42.426V15.9999H37.4442V14.1454H36.9351Z"
    fill="#FBFAFE" />
  <path d="M0.121094 19.6363L6.79382 1.45447H9.04837L2.37564 19.6363H0.121094Z"
    fill="#FBFAFE" />
  <path
    d="M45.8711 20H46.2347V20.5454H45.8711V20ZM46.7802 19.0909H47.1438V19.6363H46.7802V19.0909ZM45.8711 18.1818H46.2347V18.7272H45.8711V18.1818ZM46.7802 17.2727H47.1438V17.8181H46.7802V17.2727ZM45.8711 16.3636H46.2347V16.9091H45.8711V16.3636ZM46.7802 15.4545H47.1438V16H46.7802V15.4545ZM45.8711 14.5454H46.2347V15.0909H45.8711V14.5454ZM46.7802 13.6363H47.1438V14.1818H46.7802V13.6363ZM45.8711 12.7272H46.2347V13.2727H45.8711V12.7272ZM46.7802 11.8181H47.1438V12.3636H46.7802V11.8181ZM45.8711 10.9091H46.2347V11.4545H45.8711V10.9091ZM46.7802 9.99997H47.1438V10.5454H46.7802V9.99997ZM45.8711 9.09088H46.2347V9.63633H45.8711V9.09088ZM46.7802 8.18178H47.1438V8.72724H46.7802V8.18178ZM45.8711 7.27269H46.2347V7.81815H45.8711V7.27269ZM46.7802 6.3636H47.1438V6.90906H46.7802V6.3636ZM45.8711 5.45451H46.2347V5.99997H45.8711V5.45451ZM46.7802 4.54542H47.1438V5.09088H46.7802V4.54542ZM45.8711 3.63633H46.2347V4.18178H45.8711V3.63633ZM46.7802 2.72724H47.1438V3.27269H46.7802V2.72724ZM45.8711 1.81815H46.2347V2.3636H45.8711V1.81815ZM46.7802 0.909058H47.1438V1.45451H46.7802V0.909058ZM47.6893 20H48.0529V20.5454H47.6893V20ZM48.5984 19.0909H48.962V19.6363H48.5984V19.0909ZM47.6893 18.1818H48.0529V18.7272H47.6893V18.1818ZM48.5984 17.2727H48.962V17.8181H48.5984V17.2727ZM47.6893 16.3636H48.0529V16.9091H47.6893V16.3636ZM48.5984 15.4545H48.962V16H48.5984V15.4545ZM47.6893 14.5454H48.0529V15.0909H47.6893V14.5454ZM48.5984 13.6363H48.962V14.1818H48.5984V13.6363ZM47.6893 12.7272H48.0529V13.2727H47.6893V12.7272ZM48.5984 11.8181H48.962V12.3636H48.5984V11.8181ZM47.6893 10.9091H48.0529V11.4545H47.6893V10.9091ZM48.5984 9.99997H48.962V10.5454H48.5984V9.99997ZM47.6893 9.09088H48.0529V9.63633H47.6893V9.09088ZM48.5984 8.18178H48.962V8.72724H48.5984V8.18178ZM47.6893 7.27269H48.0529V7.81815H47.6893V7.27269ZM48.5984 6.3636H48.962V6.90906H48.5984V6.3636ZM47.6893 5.45451H48.0529V5.99997H47.6893V5.45451ZM48.5984 4.54542H48.962V5.09088H48.5984V4.54542ZM47.6893 3.63633H48.0529V4.18178H47.6893V3.63633ZM48.5984 2.72724H48.962V3.27269H48.5984V2.72724ZM47.6893 1.81815H48.0529V2.3636H47.6893V1.81815ZM48.5984 0.909058H48.962V1.45451H48.5984V0.909058ZM49.5075 20H49.8711V20.5454H49.5075V20ZM50.4165 19.0909H50.7802V19.6363H50.4165V19.0909ZM49.5075 18.1818H49.8711V18.7272H49.5075V18.1818ZM50.4165 17.2727H50.7802V17.8181H50.4165V17.2727ZM49.5075 16.3636H49.8711V16.9091H49.5075V16.3636ZM50.4165 15.4545H50.7802V16H50.4165V15.4545ZM49.5075 14.5454H49.8711V15.0909H49.5075V14.5454ZM50.4165 13.6363H50.7802V14.1818H50.4165V13.6363ZM49.5075 12.7272H49.8711V13.2727H49.5075V12.7272ZM50.4165 11.8181H50.7802V12.3636H50.4165V11.8181ZM49.5075 10.9091H49.8711V11.4545H49.5075V10.9091ZM50.4165 9.99997H50.7802V10.5454H50.4165V9.99997ZM49.5075 9.09088H49.8711V9.63633H49.5075V9.09088ZM50.4165 8.18178H50.7802V8.72724H50.4165V8.18178ZM49.5075 7.27269H49.8711V7.81815H49.5075V7.27269ZM50.4165 6.3636H50.7802V6.90906H50.4165V6.3636ZM49.5075 5.45451H49.8711V5.99997H49.5075V5.45451ZM50.4165 4.54542H50.7802V5.09088H50.4165V4.54542ZM49.5075 3.63633H49.8711V4.18178H49.5075V3.63633ZM50.4165 2.72724H50.7802V3.27269H50.4165V2.72724ZM49.5075 1.81815H49.8711V2.3636H49.5075V1.81815ZM50.4165 0.909058H50.7802V1.45451H50.4165V0.909058ZM51.3256 20H51.6893V20.5454H51.3256V20ZM52.2347 19.0909H52.5984V19.6363H52.2347V19.0909ZM51.3256 18.1818H51.6893V18.7272H51.3256V18.1818ZM52.2347 17.2727H52.5984V17.8181H52.2347V17.2727ZM51.3256 16.3636H51.6893V16.9091H51.3256V16.3636ZM52.2347 15.4545H52.5984V16H52.2347V15.4545ZM51.3256 14.5454H51.6893V15.0909H51.3256V14.5454ZM52.2347 13.6363H52.5984V14.1818H52.2347V13.6363ZM51.3256 12.7272H51.6893V13.2727H51.3256V12.7272ZM52.2347 11.8181H52.5984V12.3636H52.2347V11.8181ZM51.3256 10.9091H51.6893V11.4545H51.3256V10.9091ZM52.2347 9.99997H52.5984V10.5454H52.2347V9.99997ZM51.3256 9.09088H51.6893V9.63633H51.3256V9.09088ZM52.2347 8.18178H52.5984V8.72724H52.2347V8.18178ZM51.3256 7.27269H51.6893V7.81815H51.3256V7.27269ZM52.2347 6.3636H52.5984V6.90906H52.2347V6.3636ZM51.3256 5.45451H51.6893V5.99997H51.3256V5.45451ZM52.2347 4.54542H52.5984V5.09088H52.2347V4.54542ZM51.3256 3.63633H51.6893V4.18178H51.3256V3.63633ZM52.2347 2.72724H52.5984V3.27269H52.2347V2.72724ZM51.3256 1.81815H51.6893V2.3636H51.3256V1.81815ZM52.2347 0.909058H52.5984V1.45451H52.2347V0.909058ZM53.1438 20H53.5075V20.5454H53.1438V20ZM54.0529 19.0909H54.4165V19.6363H54.0529V19.0909ZM53.1438 18.1818H53.5075V18.7272H53.1438V18.1818ZM54.0529 17.2727H54.4165V17.8181H54.0529V17.2727ZM53.1438 16.3636H53.5075V16.9091H53.1438V16.3636ZM54.0529 15.4545H54.4165V16H54.0529V15.4545ZM53.1438 14.5454H53.5075V15.0909H53.1438V14.5454ZM54.0529 13.6363H54.4165V14.1818H54.0529V13.6363ZM53.1438 12.7272H53.5075V13.2727H53.1438V12.7272ZM54.0529 11.8181H54.4165V12.3636H54.0529V11.8181ZM53.1438 10.9091H53.5075V11.4545H53.1438V10.9091ZM54.0529 9.99997H54.4165V10.5454H54.0529V9.99997ZM53.1438 9.09088H53.5075V9.63633H53.1438V9.09088ZM54.0529 8.18178H54.4165V8.72724H54.0529V8.18178ZM53.1438 7.27269H53.5075V7.81815H53.1438V7.27269ZM54.0529 6.3636H54.4165V6.90906H54.0529V6.3636ZM53.1438 5.45451H53.5075V5.99997H53.1438V5.45451ZM54.0529 4.54542H54.4165V5.09088H54.0529V4.54542ZM53.1438 3.63633H53.5075V4.18178H53.1438V3.63633ZM54.0529 2.72724H54.4165V3.27269H54.0529V2.72724ZM53.1438 1.81815H53.5075V2.3636H53.1438V1.81815ZM54.0529 0.909058H54.4165V1.45451H54.0529V0.909058ZM54.962 20H55.3256V20.5454H54.962V20ZM55.8711 19.0909H56.2347V19.6363H55.8711V19.0909ZM54.962 18.1818H55.3256V18.7272H54.962V18.1818ZM55.8711 17.2727H56.2347V17.8181H55.8711V17.2727ZM54.962 16.3636H55.3256V16.9091H54.962V16.3636ZM55.8711 15.4545H56.2347V16H55.8711V15.4545ZM54.962 14.5454H55.3256V15.0909H54.962V14.5454ZM55.8711 13.6363H56.2347V14.1818H55.8711V13.6363ZM54.962 12.7272H55.3256V13.2727H54.962V12.7272ZM55.8711 11.8181H56.2347V12.3636H55.8711V11.8181ZM54.962 10.9091H55.3256V11.4545H54.962V10.9091ZM55.8711 9.99997H56.2347V10.5454H55.8711V9.99997ZM54.962 9.09088H55.3256V9.63633H54.962V9.09088ZM55.8711 8.18178H56.2347V8.72724H55.8711V8.18178ZM54.962 7.27269H55.3256V7.81815H54.962V7.27269ZM55.8711 6.3636H56.2347V6.90906H55.8711V6.3636ZM54.962 5.45451H55.3256V5.99997H54.962V5.45451ZM55.8711 4.54542H56.2347V5.09088H55.8711V4.54542ZM54.962 3.63633H55.3256V4.18178H54.962V3.63633ZM55.8711 2.72724H56.2347V3.27269H55.8711V2.72724ZM54.962 1.81815H55.3256V2.3636H54.962V1.81815ZM55.8711 0.909058H56.2347V1.45451H55.8711V0.909058ZM56.7802 20H57.1438V20.5454H56.7802V20ZM57.6893 19.0909H58.0529V19.6363H57.6893V19.0909ZM56.7802 18.1818H57.1438V18.7272H56.7802V18.1818ZM57.6893 17.2727H58.0529V17.8181H57.6893V17.2727ZM56.7802 16.3636H57.1438V16.9091H56.7802V16.3636ZM57.6893 15.4545H58.0529V16H57.6893V15.4545ZM56.7802 14.5454H57.1438V15.0909H56.7802V14.5454ZM57.6893 13.6363H58.0529V14.1818H57.6893V13.6363ZM56.7802 12.7272H57.1438V13.2727H56.7802V12.7272ZM57.6893 11.8181H58.0529V12.3636H57.6893V11.8181ZM56.7802 10.9091H57.1438V11.4545H56.7802V10.9091ZM57.6893 9.99997H58.0529V10.5454H57.6893V9.99997ZM56.7802 9.09088H57.1438V9.63633H56.7802V9.09088ZM57.6893 8.18178H58.0529V8.72724H57.6893V8.18178ZM56.7802 7.27269H57.1438V7.81815H56.7802V7.27269ZM57.6893 6.3636H58.0529V6.90906H57.6893V6.3636ZM56.7802 5.45451H57.1438V5.99997H56.7802V5.45451ZM57.6893 4.54542H58.0529V5.09088H57.6893V4.54542ZM56.7802 3.63633H57.1438V4.18178H56.7802V3.63633ZM57.6893 2.72724H58.0529V3.27269H57.6893V2.72724ZM56.7802 1.81815H57.1438V2.3636H56.7802V1.81815ZM57.6893 0.909058H58.0529V1.45451H57.6893V0.909058ZM58.5984 20H58.962V20.5454H58.5984V20ZM59.5075 19.0909H59.8711V19.6363H59.5075V19.0909ZM58.5984 18.1818H58.962V18.7272H58.5984V18.1818ZM59.5075 17.2727H59.8711V17.8181H59.5075V17.2727ZM58.5984 16.3636H58.962V16.9091H58.5984V16.3636ZM59.5075 15.4545H59.8711V16H59.5075V15.4545ZM58.5984 14.5454H58.962V15.0909H58.5984V14.5454ZM59.5075 13.6363H59.8711V14.1818H59.5075V13.6363ZM58.5984 12.7272H58.962V13.2727H58.5984V12.7272ZM59.5075 11.8181H59.8711V12.3636H59.5075V11.8181ZM58.5984 10.9091H58.962V11.4545H58.5984V10.9091ZM59.5075 9.99997H59.8711V10.5454H59.5075V9.99997ZM58.5984 9.09088H58.962V9.63633H58.5984V9.09088ZM59.5075 8.18178H59.8711V8.72724H59.5075V8.18178ZM58.5984 7.27269H58.962V7.81815H58.5984V7.27269ZM59.5075 6.3636H59.8711V6.90906H59.5075V6.3636ZM58.5984 5.45451H58.962V5.99997H58.5984V5.45451ZM59.5075 4.54542H59.8711V5.09088H59.5075V4.54542ZM58.5984 3.63633H58.962V4.18178H58.5984V3.63633ZM59.5075 2.72724H59.8711V3.27269H59.5075V2.72724ZM58.5984 1.81815H58.962V2.3636H58.5984V1.81815ZM59.5075 0.909058H59.8711V1.45451H59.5075V0.909058ZM60.4165 20H60.7802V20.5454H60.4165V20ZM61.3256 19.0909H61.6893V19.6363H61.3256V19.0909ZM60.4165 18.1818H60.7802V18.7272H60.4165V18.1818ZM61.3256 17.2727H61.6893V17.8181H61.3256V17.2727ZM60.4165 16.3636H60.7802V16.9091H60.4165V16.3636ZM61.3256 15.4545H61.6893V16H61.3256V15.4545ZM60.4165 14.5454H60.7802V15.0909H60.4165V14.5454ZM61.3256 13.6363H61.6893V14.1818H61.3256V13.6363ZM60.4165 12.7272H60.7802V13.2727H60.4165V12.7272ZM61.3256 11.8181H61.6893V12.3636H61.3256V11.8181ZM60.4165 10.9091H60.7802V11.4545H60.4165V10.9091ZM61.3256 9.99997H61.6893V10.5454H61.3256V9.99997ZM60.4165 9.09088H60.7802V9.63633H60.4165V9.09088ZM61.3256 8.18178H61.6893V8.72724H61.3256V8.18178ZM60.4165 7.27269H60.7802V7.81815H60.4165V7.27269ZM61.3256 6.3636H61.6893V6.90906H61.3256V6.3636ZM60.4165 5.45451H60.7802V5.99997H60.4165V5.45451ZM61.3256 4.54542H61.6893V5.09088H61.3256V4.54542ZM60.4165 3.63633H60.7802V4.18178H60.4165V3.63633ZM61.3256 2.72724H61.6893V3.27269H61.3256V2.72724ZM60.4165 1.81815H60.7802V2.3636H60.4165V1.81815ZM61.3256 0.909058H61.6893V1.45451H61.3256V0.909058ZM62.2347 20H62.5984V20.5454H62.2347V20ZM63.1438 19.0909H63.5075V19.6363H63.1438V19.0909ZM62.2347 18.1818H62.5984V18.7272H62.2347V18.1818ZM63.1438 17.2727H63.5075V17.8181H63.1438V17.2727ZM62.2347 16.3636H62.5984V16.9091H62.2347V16.3636ZM63.1438 15.4545H63.5075V16H63.1438V15.4545ZM62.2347 14.5454H62.5984V15.0909H62.2347V14.5454ZM63.1438 13.6363H63.5075V14.1818H63.1438V13.6363ZM62.2347 12.7272H62.5984V13.2727H62.2347V12.7272ZM63.1438 11.8181H63.5075V12.3636H63.1438V11.8181ZM62.2347 10.9091H62.5984V11.4545H62.2347V10.9091ZM63.1438 9.99997H63.5075V10.5454H63.1438V9.99997ZM62.2347 9.09088H62.5984V9.63633H62.2347V9.09088ZM63.1438 8.18178H63.5075V8.72724H63.1438V8.18178ZM62.2347 7.27269H62.5984V7.81815H62.2347V7.27269ZM63.1438 6.3636H63.5075V6.90906H63.1438V6.3636ZM62.2347 5.45451H62.5984V5.99997H62.2347V5.45451ZM63.1438 4.54542H63.5075V5.09088H63.1438V4.54542ZM62.2347 3.63633H62.5984V4.18178H62.2347V3.63633ZM63.1438 2.72724H63.5075V3.27269H63.1438V2.72724ZM62.2347 1.81815H62.5984V2.3636H62.2347V1.81815ZM63.1438 0.909058H63.5075V1.45451H63.1438V0.909058ZM64.0529 20H64.4166V20.5454H64.0529V20ZM64.962 19.0909H65.3256V19.6363H64.962V19.0909ZM64.0529 18.1818H64.4166V18.7272H64.0529V18.1818ZM64.962 17.2727H65.3256V17.8181H64.962V17.2727ZM64.0529 16.3636H64.4166V16.9091H64.0529V16.3636ZM64.962 15.4545H65.3256V16H64.962V15.4545ZM64.0529 14.5454H64.4166V15.0909H64.0529V14.5454ZM64.962 13.6363H65.3256V14.1818H64.962V13.6363ZM64.0529 12.7272H64.4166V13.2727H64.0529V12.7272ZM64.962 11.8181H65.3256V12.3636H64.962V11.8181ZM64.0529 10.9091H64.4166V11.4545H64.0529V10.9091ZM64.962 9.99997H65.3256V10.5454H64.962V9.99997ZM64.0529 9.09088H64.4166V9.63633H64.0529V9.09088ZM64.962 8.18178H65.3256V8.72724H64.962V8.18178ZM64.0529 7.27269H64.4166V7.81815H64.0529V7.27269ZM64.962 6.3636H65.3256V6.90906H64.962V6.3636ZM64.0529 5.45451H64.4166V5.99997H64.0529V5.45451ZM64.962 4.54542H65.3256V5.09088H64.962V4.54542ZM64.0529 3.63633H64.4166V4.18178H64.0529V3.63633ZM64.962 2.72724H65.3256V3.27269H64.962V2.72724ZM64.0529 1.81815H64.4166V2.3636H64.0529V1.81815ZM64.962 0.909058H65.3256V1.45451H64.962V0.909058Z"
    fill="#FBFAFE" />
</svg>