<svg width="151" height="51" viewBox="0 0 151 51" fill="none"
  xmlns="http://www.w3.org/2000/svg">
  <path
    d="M82.5462 37.7898C83.6554 37.7898 84.6793 37.537 85.6179 37.0313C86.5849 36.4975 87.5093 35.6688 88.391 34.5451V22.9569C87.5946 22.4231 86.784 22.0298 85.9592 21.777C85.1344 21.5242 84.3096 21.3977 83.4848 21.3977C81.9205 21.3977 80.7686 21.8051 80.0291 22.6198C79.3181 23.4064 78.9626 24.6424 78.9626 26.328V33.2388C78.9626 34.7839 79.2612 35.9357 79.8585 36.6942C80.4558 37.4246 81.3517 37.7898 82.5462 37.7898ZM87.1964 38.169C86.656 39.5456 85.7601 40.6552 84.5087 41.498C83.2573 42.3408 81.8352 42.7622 80.2425 42.7622C77.768 42.7622 75.8909 41.9335 74.611 40.276C73.3596 38.5904 72.7339 36.2868 72.7339 33.3652V26.1173C72.7339 23.2238 73.5871 20.9483 75.2936 19.2908C77.0286 17.6333 79.3892 16.8046 82.3756 16.8046C83.4848 16.7765 84.5371 16.8889 85.5326 17.1417C86.5565 17.3664 87.5093 17.6614 88.391 18.0266V13.3071H83.3568V8.62964H94.577V37.6634H99.2699V42.3408H88.391V38.169H87.1964Z"
    fill="#FBFAFE" />
  <path
    d="M27.3776 3.36756L21.4432 0.768555L0.329102 48.1695L6.32599 50.7686L27.3776 3.36756Z"
    fill="#FBFAFE" />
  <path
    d="M48.85 37.6633V42.3407H33.9182V37.6633H38.6111V21.7347H33.9182V17.0573H44.8398V21.1869H45.9917C46.5889 19.698 47.5417 18.5743 48.85 17.8158C50.1583 17.0292 51.5946 16.6359 53.1589 16.6359C55.3489 16.6359 57.1123 17.3663 58.4491 18.8272C59.8143 20.2599 60.4969 22.3247 60.4969 25.0216V37.6633H65.1897V42.3407H54.2682V25.8644C54.2682 24.4316 53.9411 23.3641 53.2869 22.6618C52.6612 21.9595 51.8222 21.6083 50.7698 21.6083C49.6037 21.6083 48.523 21.9595 47.5275 22.6618C46.5605 23.336 45.6646 24.2631 44.8398 25.443V37.6633H48.85Z"
    fill="#FBFAFE" />
  <path
    d="M114.104 47.7168H116.45V50.6231H114.104V47.7168ZM116.71 45.4812H119.056V48.3875H116.71V45.4812ZM114.104 43.2456H116.45V46.1519H114.104V43.2456ZM116.71 41.0099H119.056V43.9163H116.71V41.0099ZM114.104 38.7743H116.45V41.6806H114.104V38.7743ZM116.71 36.5387H119.056V39.445H116.71V36.5387ZM114.104 34.303H116.45V37.2094H114.104V34.303ZM116.71 32.0674H119.056V34.9737H116.71V32.0674ZM114.104 29.8318H116.45V32.7381H114.104V29.8318ZM116.71 27.5961H119.056V30.5025H116.71V27.5961ZM114.104 25.3605H116.45V28.2668H114.104V25.3605ZM116.71 23.1249H119.056V26.0312H116.71V23.1249ZM114.104 20.8892H116.45V23.7956H114.104V20.8892ZM116.71 18.6536H119.056V21.5599H116.71V18.6536ZM114.104 16.418H116.45V19.3243H114.104V16.418ZM116.71 14.1823H119.056V17.0887H116.71V14.1823ZM114.104 11.9467H116.45V14.853H114.104V11.9467ZM116.71 9.71108H119.056V12.6174H116.71V9.71108ZM114.104 7.47545H116.45V10.3818H114.104V7.47545ZM116.71 5.23982H119.056V8.14614H116.71V5.23982ZM114.104 3.00419H116.45V5.91051H114.104V3.00419ZM116.71 0.768555H119.056V3.67488H116.71V0.768555ZM119.316 47.7168H121.662V50.6231H119.316V47.7168ZM121.923 45.4812H124.268V48.3875H121.923V45.4812ZM119.316 43.2456H121.662V46.1519H119.316V43.2456ZM121.923 41.0099H124.268V43.9163H121.923V41.0099ZM119.316 38.7743H121.662V41.6806H119.316V38.7743ZM121.923 36.5387H124.268V39.445H121.923V36.5387ZM119.316 34.303H121.662V37.2094H119.316V34.303ZM121.923 32.0674H124.268V34.9737H121.923V32.0674ZM119.316 29.8318H121.662V32.7381H119.316V29.8318ZM121.923 27.5961H124.268V30.5025H121.923V27.5961ZM119.316 25.3605H121.662V28.2668H119.316V25.3605ZM121.923 23.1249H124.268V26.0312H121.923V23.1249ZM119.316 20.8892H121.662V23.7956H119.316V20.8892ZM121.923 18.6536H124.268V21.5599H121.923V18.6536ZM119.316 16.418H121.662V19.3243H119.316V16.418ZM121.923 14.1823H124.268V17.0887H121.923V14.1823ZM119.316 11.9467H121.662V14.853H119.316V11.9467ZM121.923 9.71108H124.268V12.6174H121.923V9.71108ZM119.316 7.47545H121.662V10.3818H119.316V7.47545ZM121.923 5.23982H124.268V8.14614H121.923V5.23982ZM119.316 3.00419H121.662V5.91051H119.316V3.00419ZM121.923 0.768555H124.268V3.67488H121.923V0.768555ZM124.529 47.7168H126.874V50.6231H124.529V47.7168ZM127.135 45.4812H129.48V48.3875H127.135V45.4812ZM124.529 43.2456H126.874V46.1519H124.529V43.2456ZM127.135 41.0099H129.48V43.9163H127.135V41.0099ZM124.529 38.7743H126.874V41.6806H124.529V38.7743ZM127.135 36.5387H129.48V39.445H127.135V36.5387ZM124.529 34.303H126.874V37.2094H124.529V34.303ZM127.135 32.0674H129.48V34.9737H127.135V32.0674ZM124.529 29.8318H126.874V32.7381H124.529V29.8318ZM127.135 27.5961H129.48V30.5025H127.135V27.5961ZM124.529 25.3605H126.874V28.2668H124.529V25.3605ZM127.135 23.1249H129.48V26.0312H127.135V23.1249ZM124.529 20.8892H126.874V23.7956H124.529V20.8892ZM127.135 18.6536H129.48V21.5599H127.135V18.6536ZM124.529 16.418H126.874V19.3243H124.529V16.418ZM127.135 14.1823H129.48V17.0887H127.135V14.1823ZM124.529 11.9467H126.874V14.853H124.529V11.9467ZM127.135 9.71108H129.48V12.6174H127.135V9.71108ZM124.529 7.47545H126.874V10.3818H124.529V7.47545ZM127.135 5.23982H129.48V8.14614H127.135V5.23982ZM124.529 3.00419H126.874V5.91051H124.529V3.00419ZM127.135 0.768555H129.48V3.67488H127.135V0.768555ZM129.741 47.7168H132.086V50.6231H129.741V47.7168ZM132.347 45.4812H134.692V48.3875H132.347V45.4812ZM129.741 43.2456H132.086V46.1519H129.741V43.2456ZM132.347 41.0099H134.692V43.9163H132.347V41.0099ZM129.741 38.7743H132.086V41.6806H129.741V38.7743ZM132.347 36.5387H134.692V39.445H132.347V36.5387ZM129.741 34.303H132.086V37.2094H129.741V34.303ZM132.347 32.0674H134.692V34.9737H132.347V32.0674ZM129.741 29.8318H132.086V32.7381H129.741V29.8318ZM132.347 27.5961H134.692V30.5025H132.347V27.5961ZM129.741 25.3605H132.086V28.2668H129.741V25.3605ZM132.347 23.1249H134.692V26.0312H132.347V23.1249ZM129.741 20.8892H132.086V23.7956H129.741V20.8892ZM132.347 18.6536H134.692V21.5599H132.347V18.6536ZM129.741 16.418H132.086V19.3243H129.741V16.418ZM132.347 14.1823H134.692V17.0887H132.347V14.1823ZM129.741 11.9467H132.086V14.853H129.741V11.9467ZM132.347 9.71108H134.692V12.6174H132.347V9.71108ZM129.741 7.47545H132.086V10.3818H129.741V7.47545ZM132.347 5.23982H134.692V8.14614H132.347V5.23982ZM129.741 3.00419H132.086V5.91051H129.741V3.00419ZM132.347 0.768555H134.692V3.67488H132.347V0.768555ZM134.953 47.7168H137.299V50.6231H134.953V47.7168ZM137.559 45.4812H139.905V48.3875H137.559V45.4812ZM134.953 43.2456H137.299V46.1519H134.953V43.2456ZM137.559 41.0099H139.905V43.9163H137.559V41.0099ZM134.953 38.7743H137.299V41.6806H134.953V38.7743ZM137.559 36.5387H139.905V39.445H137.559V36.5387ZM134.953 34.303H137.299V37.2094H134.953V34.303ZM137.559 32.0674H139.905V34.9737H137.559V32.0674ZM134.953 29.8318H137.299V32.7381H134.953V29.8318ZM137.559 27.5961H139.905V30.5025H137.559V27.5961ZM134.953 25.3605H137.299V28.2668H134.953V25.3605ZM137.559 23.1249H139.905V26.0312H137.559V23.1249ZM134.953 20.8892H137.299V23.7956H134.953V20.8892ZM137.559 18.6536H139.905V21.5599H137.559V18.6536ZM134.953 16.418H137.299V19.3243H134.953V16.418ZM137.559 14.1823H139.905V17.0887H137.559V14.1823ZM134.953 11.9467H137.299V14.853H134.953V11.9467ZM137.559 9.71108H139.905V12.6174H137.559V9.71108ZM134.953 7.47545H137.299V10.3818H134.953V7.47545ZM137.559 5.23982H139.905V8.14614H137.559V5.23982ZM134.953 3.00419H137.299V5.91051H134.953V3.00419ZM137.559 0.768555H139.905V3.67488H137.559V0.768555ZM140.165 47.7168H142.511V50.6231H140.165V47.7168ZM142.771 45.4812H145.117V48.3875H142.771V45.4812ZM140.165 43.2456H142.511V46.1519H140.165V43.2456ZM142.771 41.0099H145.117V43.9163H142.771V41.0099ZM140.165 38.7743H142.511V41.6806H140.165V38.7743ZM142.771 36.5387H145.117V39.445H142.771V36.5387ZM140.165 34.303H142.511V37.2094H140.165V34.303ZM142.771 32.0674H145.117V34.9737H142.771V32.0674ZM140.165 29.8318H142.511V32.7381H140.165V29.8318ZM142.771 27.5961H145.117V30.5025H142.771V27.5961ZM140.165 25.3605H142.511V28.2668H140.165V25.3605ZM142.771 23.1249H145.117V26.0312H142.771V23.1249ZM140.165 20.8892H142.511V23.7956H140.165V20.8892ZM142.771 18.6536H145.117V21.5599H142.771V18.6536ZM140.165 16.418H142.511V19.3243H140.165V16.418ZM142.771 14.1823H145.117V17.0887H142.771V14.1823ZM140.165 11.9467H142.511V14.853H140.165V11.9467ZM142.771 9.71108H145.117V12.6174H142.771V9.71108ZM140.165 7.47545H142.511V10.3818H140.165V7.47545ZM142.771 5.23982H145.117V8.14614H142.771V5.23982ZM140.165 3.00419H142.511V5.91051H140.165V3.00419ZM142.771 0.768555H145.117V3.67488H142.771V0.768555ZM145.377 47.7168H147.723V50.6231H145.377V47.7168ZM147.984 45.4812H150.329V48.3875H147.984V45.4812ZM145.377 43.2456H147.723V46.1519H145.377V43.2456ZM147.984 41.0099H150.329V43.9163H147.984V41.0099ZM145.377 38.7743H147.723V41.6806H145.377V38.7743ZM147.984 36.5387H150.329V39.445H147.984V36.5387ZM145.377 34.303H147.723V37.2094H145.377V34.303ZM147.984 32.0674H150.329V34.9737H147.984V32.0674ZM145.377 29.8318H147.723V32.7381H145.377V29.8318ZM147.984 27.5961H150.329V30.5025H147.984V27.5961ZM145.377 25.3605H147.723V28.2668H145.377V25.3605ZM147.984 23.1249H150.329V26.0312H147.984V23.1249ZM145.377 20.8892H147.723V23.7956H145.377V20.8892ZM147.984 18.6536H150.329V21.5599H147.984V18.6536ZM145.377 16.418H147.723V19.3243H145.377V16.418ZM147.984 14.1823H150.329V17.0887H147.984V14.1823ZM145.377 11.9467H147.723V14.853H145.377V11.9467ZM147.984 9.71108H150.329V12.6174H147.984V9.71108ZM145.377 7.47545H147.723V10.3818H145.377V7.47545ZM147.984 5.23982H150.329V8.14614H147.984V5.23982ZM145.377 3.00419H147.723V5.91051H145.377V3.00419ZM147.984 0.768555H150.329V3.67488H147.984V0.768555Z"
    fill="#FBFAFE" />
</svg>