<svg width="65" height="22" viewBox="0 0 65 22" fill="none"
  xmlns="http://www.w3.org/2000/svg">
  <path
    d="M20.8191 14.9819V17H14.4554V14.9819H16.4554V8.10914H14.4554V6.09095H19.11V7.87277H19.6009C19.8554 7.23035 20.2615 6.7455 20.8191 6.41823C21.3767 6.07883 21.9888 5.90914 22.6554 5.90914C23.5888 5.90914 24.3403 6.22429 24.91 6.85459C25.4918 7.47277 25.7827 8.36368 25.7827 9.52732V14.9819H27.7827V17H23.1282V9.89095C23.1282 9.27277 22.9888 8.81217 22.71 8.50914C22.4433 8.20611 22.0857 8.05459 21.6373 8.05459C21.1403 8.05459 20.6797 8.20611 20.2554 8.50914C19.8433 8.80004 19.4615 9.20005 19.11 9.70914V14.9819H20.8191Z"
    fill="#282C34" />
  <path
    d="M37.4866 15.0364C37.9594 15.0364 38.3957 14.9273 38.7957 14.7091C39.2078 14.4788 39.6018 14.1213 39.9775 13.6364V8.63641C39.6381 8.40611 39.2927 8.23641 38.9412 8.12732C38.5897 8.01823 38.2381 7.96368 37.8866 7.96368C37.22 7.96368 36.7291 8.13944 36.4139 8.49095C36.1109 8.83035 35.9594 9.36368 35.9594 10.091V13.0728C35.9594 13.7394 36.0866 14.2364 36.3412 14.5637C36.5957 14.8788 36.9775 15.0364 37.4866 15.0364ZM39.4684 15.2C39.2381 15.794 38.8563 16.2728 38.323 16.6364C37.7897 17 37.1836 17.1819 36.5048 17.1819C35.4503 17.1819 34.6503 16.8243 34.1048 16.1091C33.5715 15.3819 33.3048 14.3879 33.3048 13.1273V10C33.3048 8.75156 33.6684 7.76974 34.3957 7.05459C35.1351 6.33944 36.1412 5.98186 37.4139 5.98186C37.8866 5.96974 38.3351 6.01823 38.7594 6.12732C39.1957 6.22429 39.6018 6.35156 39.9775 6.50914V4.47277H37.8321V2.45459H42.6139V14.9819H44.6139V17H39.9775V15.2H39.4684Z"
    fill="#282C34" />
  <path d="M0.727295 20.6364L7.40002 2.45459H9.12729L2.45457 20.6364H0.727295Z"
    fill="#282C34" />
  <path
    d="M53.2666 21.7158H54.4053V20.5771H55.5225V21.7158H56.6611V20.5771H57.7998V21.7158H58.9277V20.5771H60.0664V21.7158H61.1943V20.5771H62.3223V21.7158H63.4609V20.5771H64.5996V17.1826H63.4609V16.0547H64.5996V12.6602H63.4609V11.5215H64.5996V8.11621H63.4609V6.99902H64.5996V3.59375H63.4609V2.45508H64.5996V0.199219H63.4609V1.33789H62.3223V0.199219H61.1943V1.33789H60.0664V0.199219H58.9277V1.33789H57.7998V0.199219H56.6611V1.33789H55.5225V0.199219H54.4053V1.33789H53.2666V0.199219H52.1387V1.33789H51V4.72168H52.1387V5.86035H51V9.25488H52.1387V10.3936H51V13.7881H52.1387V14.916H51V18.3213H52.1387V19.4492H51V21.7158H52.1387V20.5771H53.2666V21.7158ZM62.3223 2.45508V3.59375H61.1943V2.45508H62.3223ZM60.0664 2.45508V3.59375H58.9277V2.45508H60.0664ZM57.7998 2.45508V3.59375H56.6611V2.45508H57.7998ZM55.5225 2.45508V3.59375H54.4053V2.45508H55.5225ZM53.2666 2.45508V3.59375H52.1387V2.45508H53.2666ZM61.1943 5.86035H60.0664V4.72168H61.1943V5.86035ZM54.4053 5.86035H53.2666V4.72168H54.4053V5.86035ZM63.4609 5.86035H62.3223V4.72168H63.4609V5.86035ZM56.6611 5.86035H55.5225V4.72168H56.6611V5.86035ZM58.9277 5.86035H57.7998V4.72168H58.9277V5.86035ZM57.7998 6.99902V8.11621H56.6611V6.99902H57.7998ZM62.3223 6.99902V8.11621H61.1943V6.99902H62.3223ZM53.2666 6.99902V8.11621H52.1387V6.99902H53.2666ZM55.5225 6.99902V8.11621H54.4053V6.99902H55.5225ZM60.0664 6.99902V8.11621H58.9277V6.99902H60.0664ZM58.9277 9.25488V10.3936H57.7998V9.25488H58.9277ZM54.4053 10.3936H53.2666V9.25488H54.4053V10.3936ZM63.4609 9.25488V10.3936H62.3223V9.25488H63.4609ZM56.6611 9.25488V10.3936H55.5225V9.25488H56.6611ZM61.1943 9.25488V10.3936H60.0664V9.25488H61.1943ZM62.3223 11.5215V12.6602H61.1943V11.5215H62.3223ZM54.4053 12.6602V11.5215H55.5225V12.6602H54.4053ZM53.2666 11.5215V12.6602H52.1387V11.5215H53.2666ZM60.0664 11.5215V12.6602H58.9277V11.5215H60.0664ZM57.7998 11.5215V12.6602H56.6611V11.5215H57.7998ZM60.0664 14.916V13.7881H61.1943V14.916H60.0664ZM53.2666 14.916V13.7881H54.4053V14.916H53.2666ZM57.7998 14.916V13.7881H58.9277V14.916H57.7998ZM55.5225 14.916V13.7881H56.6611V14.916H55.5225ZM62.3223 14.916V13.7881H63.4609V14.916H62.3223ZM53.2666 16.0547V17.1826H52.1387V16.0547H53.2666ZM55.5225 16.0547V17.1826H54.4053V16.0547H55.5225ZM62.3223 16.0547V17.1826H61.1943V16.0547H62.3223ZM57.7998 16.0547V17.1826H56.6611V16.0547H57.7998ZM60.0664 16.0547V17.1826H58.9277V16.0547H60.0664ZM57.7998 19.4492V18.3213H58.9277V19.4492H57.7998ZM62.3223 19.4492V18.3213H63.4609V19.4492H62.3223ZM53.2666 19.4492V18.3213H54.4053V19.4492H53.2666ZM55.5225 19.4492V18.3213H56.6611V19.4492H55.5225ZM60.0664 19.4492V18.3213H61.1943V19.4492H60.0664Z"
    fill="#282C34" />
</svg>