<svg width="64" height="27" viewBox="0 0 64 27" fill="none" xmlns="http://www.w3.org/2000/svg">
<path d="M21.2554 17.5454V20H14.2736V17.5454H16.2736V11.5454H14.2736V9.09089H19.8008V10.9454H20.2917C20.5827 10.2424 21.013 9.72726 21.5827 9.39998C22.1645 9.07271 22.7766 8.90907 23.419 8.90907C24.3039 8.90907 25.0311 9.21817 25.6008 9.83635C26.1827 10.4424 26.4736 11.3636 26.4736 12.6V17.5454H28.4736V20H22.9463V13.0545C22.9463 12.5454 22.8493 12.1636 22.6554 11.9091C22.4736 11.6545 22.213 11.5273 21.8736 11.5273C21.5099 11.5273 21.1463 11.6606 20.7826 11.9273C20.419 12.1939 20.0917 12.5576 19.8008 13.0182V17.5454H21.2554Z" fill="#282C34"/>
<path d="M36.3048 17.5454C36.6806 17.5454 37.0321 17.4727 37.3594 17.3273C37.6866 17.1697 38.0078 16.9273 38.323 16.6V12.1273C37.9836 11.897 37.6563 11.7333 37.3412 11.6363C37.026 11.5394 36.7351 11.4909 36.4684 11.4909C36.0078 11.4909 35.6745 11.6242 35.4684 11.8909C35.2745 12.1576 35.1775 12.6 35.1775 13.2182V15.9818C35.1775 16.5273 35.2806 16.9273 35.4866 17.1818C35.6927 17.4242 35.9654 17.5454 36.3048 17.5454ZM37.8139 18.0727C37.62 18.703 37.2442 19.2121 36.6866 19.6C36.1412 19.9879 35.5048 20.1818 34.7775 20.1818C33.6866 20.1818 32.8927 19.8121 32.3957 19.0727C31.8987 18.3333 31.6503 17.3333 31.6503 16.0727V13.0727C31.6503 11.8363 32.0018 10.8606 32.7048 10.1454C33.42 9.41817 34.3897 9.05453 35.6139 9.05453C36.1594 9.04241 36.6503 9.09089 37.0866 9.19998C37.5351 9.29695 37.9472 9.43029 38.323 9.59998V7.90907H36.3594V5.45453H41.8321V17.5454H43.8321V20H38.323V18.0727H37.8139Z" fill="#282C34"/>
<path d="M0.199951 23.6363L6.87268 5.45453H9.6545L2.98177 23.6363H0.199951Z" fill="#282C34"/>
<mask id="path-3-outside-1" maskUnits="userSpaceOnUse" x="49" y="0" width="15" height="27" fill="black">
<rect fill="white" x="49" width="15" height="27"/>
<path d="M50 5.32738H51.1818V6.43274H50V5.32738ZM54.7273 5.32738H55.9091V6.43274H54.7273V5.32738ZM59.4545 5.32738H60.6364V6.43274H59.4545V5.32738ZM52.3636 7.51458H53.5455V8.61994H52.3636V7.51458ZM57.0909 7.51458H58.2727V8.61994H57.0909V7.51458ZM61.8182 7.51458H63V8.61994H61.8182V7.51458ZM59.4545 9.67827H60.6364V10.7836H59.4545V9.67827ZM54.7273 9.67827H55.9091V10.7836H54.7273V9.67827ZM50 9.67827H51.1818V10.7836H50V9.67827ZM61.8182 11.842H63V12.9708H61.8182V11.842ZM57.0909 11.842H58.2727V12.9708H57.0909V11.842ZM52.3636 11.842H53.5455V12.9708H52.3636V11.842ZM50 14.0292H51.1818V15.1345H50V14.0292ZM54.7273 14.0292H55.9091V15.1345H54.7273V14.0292ZM59.4545 14.0292H60.6364V15.1345H59.4545V14.0292ZM61.8182 16.1929H63V17.2982H61.8182V16.1929ZM57.0909 16.1929H58.2727V17.2982H57.0909V16.1929ZM52.3636 16.1929H53.5455V17.2982H52.3636V16.1929ZM50 18.3565H51.1818V19.4854H50V18.3565ZM54.7273 18.3565H55.9091V19.4854H54.7273V18.3565ZM59.4545 18.3565H60.6364V19.4854H59.4545V18.3565ZM52.3636 20.5437H53.5455V21.6491H52.3636V20.5437ZM57.0909 20.5437H58.2727V21.6491H57.0909V20.5437ZM61.8182 20.5437H63V21.6491H61.8182V20.5437ZM59.4545 22.7074H60.6364V23.8363H59.4545V22.7074ZM54.7273 22.7074H55.9091V23.8363H54.7273V22.7074ZM50 22.7074H51.1818V23.8363H50V22.7074ZM52.3636 24.8946H53.5455V26H52.3636V24.8946ZM57.0909 24.8946H58.2727V26H57.0909V24.8946ZM61.8182 24.8946H63V26H61.8182V24.8946ZM52.3636 3.16369H53.5455V4.26905H52.3636V3.16369ZM57.0909 3.16369H58.2727V4.26905H57.0909V3.16369ZM61.8182 3.16369H63V4.26905H61.8182V3.16369ZM50 1H51.1818V2.08184H50V1ZM54.7273 1H55.9091V2.08184H54.7273V1ZM59.4545 1H60.6364V2.08184H59.4545V1Z"/>
</mask>
<path d="M50 5.32738H51.1818V6.43274H50V5.32738ZM54.7273 5.32738H55.9091V6.43274H54.7273V5.32738ZM59.4545 5.32738H60.6364V6.43274H59.4545V5.32738ZM52.3636 7.51458H53.5455V8.61994H52.3636V7.51458ZM57.0909 7.51458H58.2727V8.61994H57.0909V7.51458ZM61.8182 7.51458H63V8.61994H61.8182V7.51458ZM59.4545 9.67827H60.6364V10.7836H59.4545V9.67827ZM54.7273 9.67827H55.9091V10.7836H54.7273V9.67827ZM50 9.67827H51.1818V10.7836H50V9.67827ZM61.8182 11.842H63V12.9708H61.8182V11.842ZM57.0909 11.842H58.2727V12.9708H57.0909V11.842ZM52.3636 11.842H53.5455V12.9708H52.3636V11.842ZM50 14.0292H51.1818V15.1345H50V14.0292ZM54.7273 14.0292H55.9091V15.1345H54.7273V14.0292ZM59.4545 14.0292H60.6364V15.1345H59.4545V14.0292ZM61.8182 16.1929H63V17.2982H61.8182V16.1929ZM57.0909 16.1929H58.2727V17.2982H57.0909V16.1929ZM52.3636 16.1929H53.5455V17.2982H52.3636V16.1929ZM50 18.3565H51.1818V19.4854H50V18.3565ZM54.7273 18.3565H55.9091V19.4854H54.7273V18.3565ZM59.4545 18.3565H60.6364V19.4854H59.4545V18.3565ZM52.3636 20.5437H53.5455V21.6491H52.3636V20.5437ZM57.0909 20.5437H58.2727V21.6491H57.0909V20.5437ZM61.8182 20.5437H63V21.6491H61.8182V20.5437ZM59.4545 22.7074H60.6364V23.8363H59.4545V22.7074ZM54.7273 22.7074H55.9091V23.8363H54.7273V22.7074ZM50 22.7074H51.1818V23.8363H50V22.7074ZM52.3636 24.8946H53.5455V26H52.3636V24.8946ZM57.0909 24.8946H58.2727V26H57.0909V24.8946ZM61.8182 24.8946H63V26H61.8182V24.8946ZM52.3636 3.16369H53.5455V4.26905H52.3636V3.16369ZM57.0909 3.16369H58.2727V4.26905H57.0909V3.16369ZM61.8182 3.16369H63V4.26905H61.8182V3.16369ZM50 1H51.1818V2.08184H50V1ZM54.7273 1H55.9091V2.08184H54.7273V1ZM59.4545 1H60.6364V2.08184H59.4545V1Z" fill="#282C34"/>
<path d="M50 5.32738H51.1818V6.43274H50V5.32738ZM54.7273 5.32738H55.9091V6.43274H54.7273V5.32738ZM59.4545 5.32738H60.6364V6.43274H59.4545V5.32738ZM52.3636 7.51458H53.5455V8.61994H52.3636V7.51458ZM57.0909 7.51458H58.2727V8.61994H57.0909V7.51458ZM61.8182 7.51458H63V8.61994H61.8182V7.51458ZM59.4545 9.67827H60.6364V10.7836H59.4545V9.67827ZM54.7273 9.67827H55.9091V10.7836H54.7273V9.67827ZM50 9.67827H51.1818V10.7836H50V9.67827ZM61.8182 11.842H63V12.9708H61.8182V11.842ZM57.0909 11.842H58.2727V12.9708H57.0909V11.842ZM52.3636 11.842H53.5455V12.9708H52.3636V11.842ZM50 14.0292H51.1818V15.1345H50V14.0292ZM54.7273 14.0292H55.9091V15.1345H54.7273V14.0292ZM59.4545 14.0292H60.6364V15.1345H59.4545V14.0292ZM61.8182 16.1929H63V17.2982H61.8182V16.1929ZM57.0909 16.1929H58.2727V17.2982H57.0909V16.1929ZM52.3636 16.1929H53.5455V17.2982H52.3636V16.1929ZM50 18.3565H51.1818V19.4854H50V18.3565ZM54.7273 18.3565H55.9091V19.4854H54.7273V18.3565ZM59.4545 18.3565H60.6364V19.4854H59.4545V18.3565ZM52.3636 20.5437H53.5455V21.6491H52.3636V20.5437ZM57.0909 20.5437H58.2727V21.6491H57.0909V20.5437ZM61.8182 20.5437H63V21.6491H61.8182V20.5437ZM59.4545 22.7074H60.6364V23.8363H59.4545V22.7074ZM54.7273 22.7074H55.9091V23.8363H54.7273V22.7074ZM50 22.7074H51.1818V23.8363H50V22.7074ZM52.3636 24.8946H53.5455V26H52.3636V24.8946ZM57.0909 24.8946H58.2727V26H57.0909V24.8946ZM61.8182 24.8946H63V26H61.8182V24.8946ZM52.3636 3.16369H53.5455V4.26905H52.3636V3.16369ZM57.0909 3.16369H58.2727V4.26905H57.0909V3.16369ZM61.8182 3.16369H63V4.26905H61.8182V3.16369ZM50 1H51.1818V2.08184H50V1ZM54.7273 1H55.9091V2.08184H54.7273V1ZM59.4545 1H60.6364V2.08184H59.4545V1Z" stroke="#282C34" stroke-width="0.6" mask="url(#path-3-outside-1)"/>
</svg>
