<svg width="63" height="22" viewBox="0 0 63 22" fill="none"
  xmlns="http://www.w3.org/2000/svg">
  <path
    d="M36.2348 15.1475C36.7075 15.1475 37.1439 15.0384 37.5439 14.8202C37.956 14.5899 38.3499 14.2323 38.7257 13.7475V8.74749C38.3863 8.51719 38.0409 8.34749 37.6893 8.2384C37.3378 8.12931 36.9863 8.07477 36.6348 8.07477C35.9681 8.07477 35.4772 8.25052 35.1621 8.60204C34.859 8.94143 34.7075 9.47477 34.7075 10.202V13.1839C34.7075 13.8505 34.8348 14.3475 35.0893 14.6748C35.3439 14.9899 35.7257 15.1475 36.2348 15.1475ZM38.2166 15.3111C37.9863 15.9051 37.6045 16.3839 37.0712 16.7475C36.5378 17.1111 35.9318 17.2929 35.253 17.2929C34.1984 17.2929 33.3984 16.9354 32.853 16.2202C32.3196 15.4929 32.053 14.499 32.053 13.2384V10.1111C32.053 8.86264 32.4166 7.88083 33.1439 7.16567C33.8833 6.45052 34.8893 6.09295 36.1621 6.09295C36.6348 6.08083 37.0833 6.12931 37.5075 6.2384C37.9439 6.33537 38.3499 6.46264 38.7257 6.62022V4.58386H36.5803V2.56567H41.3621V15.0929H43.3621V17.1111H38.7257V15.3111H38.2166Z"
    fill="#FBFAFE" />
  <path
    d="M49 21H49.8V22H49V21ZM50 20H50.8V21H50V20ZM49 19H49.8V20H49V19ZM50 18H50.8V19H50V18ZM49 17H49.8V18H49V17ZM50 16H50.8V17H50V16ZM49 15H49.8V16H49V15ZM50 14H50.8V15H50V14ZM49 13H49.8V14H49V13ZM50 12H50.8V13H50V12ZM49 11H49.8V12H49V11ZM50 10H50.8V11H50V10ZM49 9H49.8V10H49V9ZM50 8H50.8V9H50V8ZM49 7H49.8V8H49V7ZM50 6H50.8V7H50V6ZM49 5H49.8V6H49V5ZM50 4H50.8V5H50V4ZM49 3H49.8V4H49V3ZM50 2H50.8V3H50V2ZM49 1H49.8V2H49V1ZM50 0H50.8V1H50V0ZM51 21H51.8V22H51V21ZM52 20H52.8V21H52V20ZM51 19H51.8V20H51V19ZM52 18H52.8V19H52V18ZM51 17H51.8V18H51V17ZM52 16H52.8V17H52V16ZM51 15H51.8V16H51V15ZM52 14H52.8V15H52V14ZM51 13H51.8V14H51V13ZM52 12H52.8V13H52V12ZM51 11H51.8V12H51V11ZM52 10H52.8V11H52V10ZM51 9H51.8V10H51V9ZM52 8H52.8V9H52V8ZM51 7H51.8V8H51V7ZM52 6H52.8V7H52V6ZM51 5H51.8V6H51V5ZM52 4H52.8V5H52V4ZM51 3H51.8V4H51V3ZM52 2H52.8V3H52V2ZM51 1H51.8V2H51V1ZM52 0H52.8V1H52V0ZM53 21H53.8V22H53V21ZM54 20H54.8V21H54V20ZM53 19H53.8V20H53V19ZM54 18H54.8V19H54V18ZM53 17H53.8V18H53V17ZM54 16H54.8V17H54V16ZM53 15H53.8V16H53V15ZM54 14H54.8V15H54V14ZM53 13H53.8V14H53V13ZM54 12H54.8V13H54V12ZM53 11H53.8V12H53V11ZM54 10H54.8V11H54V10ZM53 9H53.8V10H53V9ZM54 8H54.8V9H54V8ZM53 7H53.8V8H53V7ZM54 6H54.8V7H54V6ZM53 5H53.8V6H53V5ZM54 4H54.8V5H54V4ZM53 3H53.8V4H53V3ZM54 2H54.8V3H54V2ZM53 1H53.8V2H53V1ZM54 0H54.8V1H54V0ZM55 21H55.8V22H55V21ZM56 20H56.8V21H56V20ZM55 19H55.8V20H55V19ZM56 18H56.8V19H56V18ZM55 17H55.8V18H55V17ZM56 16H56.8V17H56V16ZM55 15H55.8V16H55V15ZM56 14H56.8V15H56V14ZM55 13H55.8V14H55V13ZM56 12H56.8V13H56V12ZM55 11H55.8V12H55V11ZM56 10H56.8V11H56V10ZM55 9H55.8V10H55V9ZM56 8H56.8V9H56V8ZM55 7H55.8V8H55V7ZM56 6H56.8V7H56V6ZM55 5H55.8V6H55V5ZM56 4H56.8V5H56V4ZM55 3H55.8V4H55V3ZM56 2H56.8V3H56V2ZM55 1H55.8V2H55V1ZM56 0H56.8V1H56V0ZM57 21H57.8V22H57V21ZM58 20H58.8V21H58V20ZM57 19H57.8V20H57V19ZM58 18H58.8V19H58V18ZM57 17H57.8V18H57V17ZM58 16H58.8V17H58V16ZM57 15H57.8V16H57V15ZM58 14H58.8V15H58V14ZM57 13H57.8V14H57V13ZM58 12H58.8V13H58V12ZM57 11H57.8V12H57V11ZM58 10H58.8V11H58V10ZM57 9H57.8V10H57V9ZM58 8H58.8V9H58V8ZM57 7H57.8V8H57V7ZM58 6H58.8V7H58V6ZM57 5H57.8V6H57V5ZM58 4H58.8V5H58V4ZM57 3H57.8V4H57V3ZM58 2H58.8V3H58V2ZM57 1H57.8V2H57V1ZM58 0H58.8V1H58V0ZM59 21H59.8V22H59V21ZM60 20H60.8V21H60V20ZM59 19H59.8V20H59V19ZM60 18H60.8V19H60V18ZM59 17H59.8V18H59V17ZM60 16H60.8V17H60V16ZM59 15H59.8V16H59V15ZM60 14H60.8V15H60V14ZM59 13H59.8V14H59V13ZM60 12H60.8V13H60V12ZM59 11H59.8V12H59V11ZM60 10H60.8V11H60V10ZM59 9H59.8V10H59V9ZM60 8H60.8V9H60V8ZM59 7H59.8V8H59V7ZM60 6H60.8V7H60V6ZM59 5H59.8V6H59V5ZM60 4H60.8V5H60V4ZM59 3H59.8V4H59V3ZM60 2H60.8V3H60V2ZM59 1H59.8V2H59V1ZM60 0H60.8V1H60V0ZM61 21H61.8V22H61V21ZM62 20H62.8V21H62V20ZM61 19H61.8V20H61V19ZM62 18H62.8V19H62V18ZM61 17H61.8V18H61V17ZM62 16H62.8V17H62V16ZM61 15H61.8V16H61V15ZM62 14H62.8V15H62V14ZM61 13H61.8V14H61V13ZM62 12H62.8V13H62V12ZM61 11H61.8V12H61V11ZM62 10H62.8V11H62V10ZM61 9H61.8V10H61V9ZM62 8H62.8V9H62V8ZM61 7H61.8V8H61V7ZM62 6H62.8V7H62V6ZM61 5H61.8V6H61V5ZM62 4H62.8V5H62V4ZM61 3H61.8V4H61V3ZM62 2H62.8V3H62V2ZM61 1H61.8V2H61V1ZM62 0H62.8V1H62V0Z"
    fill="#FBFAFE" />
  <path d="M0.220947 20.7475L6.89367 2.56567H9.14822L2.47549 20.7475H0.220947Z"
    fill="#FBFAFE" />
  <path
    d="M20.5672 15.093V17.1112H14.2036V15.093H16.2036V8.22026H14.2036V6.20208H18.8582V7.9839H19.3491C19.6036 7.34148 20.0097 6.85663 20.5672 6.52935C21.1248 6.18996 21.7369 6.02026 22.4036 6.02026C23.3369 6.02026 24.0885 6.33542 24.6582 6.96572C25.24 7.5839 25.5309 8.47481 25.5309 9.63845V15.093H27.5309V17.1112H22.8763V10.0021C22.8763 9.3839 22.7369 8.92329 22.4582 8.62026C22.1915 8.31723 21.8339 8.16572 21.3854 8.16572C20.8885 8.16572 20.4279 8.31723 20.0036 8.62026C19.5915 8.91117 19.2097 9.31117 18.8582 9.82026V15.093H20.5672Z"
    fill="#FBFAFE" />
</svg>