<svg width="67" height="27" viewBox="0 0 67 27" fill="none"
  xmlns="http://www.w3.org/2000/svg">
  <path d="M0.130249 23.6363L6.80298 5.45453H9.58479L2.91207 23.6363H0.130249Z"
    fill="#282C34" />
  <path
    d="M37.7119 17.5454C38.0877 17.5454 38.4392 17.4727 38.7665 17.3273C39.0937 17.1697 39.4149 16.9273 39.7301 16.6V12.1273C39.3907 11.897 39.0634 11.7333 38.7483 11.6363C38.4331 11.5394 38.1422 11.4909 37.8756 11.4909C37.4149 11.4909 37.0816 11.6242 36.8756 11.8909C36.6816 12.1576 36.5846 12.6 36.5846 13.2182V15.9818C36.5846 16.5273 36.6877 16.9273 36.8937 17.1818C37.0998 17.4242 37.3725 17.5454 37.7119 17.5454ZM39.221 18.0727C39.0271 18.703 38.6513 19.2121 38.0937 19.6C37.5483 19.9879 36.9119 20.1818 36.1846 20.1818C35.0937 20.1818 34.2998 19.8121 33.8028 19.0727C33.3059 18.3333 33.0574 17.3333 33.0574 16.0727V13.0727C33.0574 11.8363 33.4089 10.8606 34.1119 10.1454C34.8271 9.41817 35.7968 9.05453 37.021 9.05453C37.5665 9.04241 38.0574 9.09089 38.4937 9.19998C38.9422 9.29695 39.3543 9.43029 39.7301 9.59998V7.90907H37.7665V5.45453H43.2392V17.5454H45.2392V20H39.7301V18.0727H39.221Z"
    fill="#282C34" />
  <path
    d="M51.5408 4.71014V5.83807H52.6687V4.71014H51.5408ZM53.8074 4.71014V5.83807H54.9353V4.71014H53.8074ZM56.0632 4.71014V5.83807H57.2019V4.71014H56.0632ZM58.3298 4.71014V5.83807H59.4685V4.71014H58.3298ZM60.6072 4.71014V5.83807H61.7351V4.71014H60.6072ZM62.863 4.71014V5.83807H64.0017V4.71014H62.863ZM50.4021 6.966V8.10467H51.5408V6.966H50.4021ZM52.6687 6.966V8.10467H53.8074V6.966H52.6687ZM54.9353 6.966V8.10467H56.0632V6.966H54.9353ZM57.2019 6.966V8.10467H58.3298V6.966H57.2019ZM59.4685 6.966V8.10467H60.6072V6.966H59.4685ZM61.7351 6.966V8.10467H62.863V6.966H61.7351ZM62.863 9.2326V10.3713H64.0017V9.2326H62.863ZM60.6072 9.2326V10.3713H61.7351V9.2326H60.6072ZM58.3298 9.2326V10.3713H59.4685V9.2326H58.3298ZM56.0632 9.2326V10.3713H57.2019V9.2326H56.0632ZM53.8074 9.2326V10.3713H54.9353V9.2326H53.8074ZM51.5408 9.2326V10.3713H52.6687V9.2326H51.5408ZM50.4021 11.4992V12.6271H51.5408V11.4992H50.4021ZM52.6687 11.4992V12.6271H53.8074V11.4992H52.6687ZM54.9353 11.4992V12.6271H56.0632V11.4992H54.9353ZM57.2019 11.4992V12.6271H58.3298V11.4992H57.2019ZM59.4685 11.4992V12.6271H60.6072V11.4992H59.4685ZM61.7351 11.4992V12.6271H62.863V11.4992H61.7351ZM62.863 13.7658V14.9045H64.0017V13.7658H62.863ZM60.6072 13.7658V14.9045H61.7351V13.7658H60.6072ZM58.3298 13.7658V14.9045H59.4685V13.7658H58.3298ZM56.0632 13.7658V14.9045H57.2019V13.7658H56.0632ZM53.8074 13.7658V14.9045H54.9353V13.7658H53.8074ZM51.5408 13.7658V14.9045H52.6687V13.7658H51.5408ZM52.6687 16.0324V17.1711H53.8074V16.0324H52.6687ZM61.7351 16.0324V17.1711H62.863V16.0324H61.7351ZM59.4685 16.0324V17.1711H60.6072V16.0324H59.4685ZM57.2019 16.0324V17.1711H58.3298V16.0324H57.2019ZM54.9353 16.0324V17.1711H56.0632V16.0324H54.9353ZM50.4021 16.0324V17.1711H51.5408V16.0324H50.4021ZM62.863 18.2883V19.4269H64.0017V18.2883H62.863ZM60.6072 18.2883V19.4269H61.7351V18.2883H60.6072ZM58.3298 18.2883V19.4269H59.4685V18.2883H58.3298ZM56.0632 18.2883V19.4269H57.2019V18.2883H56.0632ZM53.8074 18.2883V19.4269H54.9353V18.2883H53.8074ZM51.5408 18.2883V19.4269H52.6687V18.2883H51.5408ZM61.7351 20.5656V21.6935H62.863V20.5656H61.7351ZM59.4685 20.5656V21.6935H60.6072V20.5656H59.4685ZM57.2019 20.5656V21.6935H58.3298V20.5656H57.2019ZM54.9353 20.5656V21.6935H56.0632V20.5656H54.9353ZM52.6687 20.5656V21.6935H53.8074V20.5656H52.6687ZM50.4021 20.5656V21.6935H51.5408V20.5656H50.4021ZM62.863 22.8322V23.9601H64.0017V22.8322H62.863ZM60.6072 22.8322V23.9601H61.7351V22.8322H60.6072ZM58.3298 22.8322V23.9601H59.4685V22.8322H58.3298ZM56.0632 22.8322V23.9601H57.2019V22.8322H56.0632ZM53.8074 22.8322V23.9601H54.9353V22.8322H53.8074ZM51.5408 22.8322V23.9601H52.6687V22.8322H51.5408ZM50.4021 25.0881V26.2267H51.5408V25.0881H50.4021ZM52.6687 25.0881V26.2267H53.8074V25.0881H52.6687ZM54.9353 25.0881V26.2267H56.0632V25.0881H54.9353ZM57.2019 25.0881V26.2267H58.3298V25.0881H57.2019ZM59.4685 25.0881V26.2267H60.6072V25.0881H59.4685ZM61.7351 25.0881V26.2267H62.863V25.0881H61.7351Z"
    fill="#282C34" />
  <path
    d="M51.5408 0.105347V1.23328H52.6687V0.105347H51.5408ZM53.8074 0.105347V1.23328H54.9353V0.105347H53.8074ZM56.0632 0.105347V1.23328H57.2019V0.105347H56.0632ZM58.3298 0.105347V1.23328H59.4685V0.105347H58.3298ZM60.6072 0.105347V1.23328H61.7351V0.105347H60.6072ZM62.863 0.105347V1.23328H64.0017V0.105347H62.863ZM50.4021 2.36121V3.49988H51.5408V2.36121H50.4021ZM52.6687 2.36121V3.49988H53.8074V2.36121H52.6687ZM54.9353 2.36121V3.49988H56.0632V2.36121H54.9353ZM57.2019 2.36121V3.49988H58.3298V2.36121H57.2019ZM59.4685 2.36121V3.49988H60.6072V2.36121H59.4685ZM61.7351 2.36121V3.49988H62.863V2.36121H61.7351Z"
    fill="#282C34" />
  <path d="M65.1296 5.92015V4.79222H66.2683V5.92015H65.1296Z" fill="#282C34" />
  <path d="M64.0017 8.18675V7.04808H65.1296V8.18675H64.0017Z" fill="#282C34" />
  <path d="M65.1296 10.4534V9.31468H66.2683V10.4534H65.1296Z" fill="#282C34" />
  <path d="M64.0017 12.7092V11.5813H65.1296V12.7092H64.0017Z" fill="#282C34" />
  <path d="M65.1296 14.9866V13.8479H66.2683V14.9866H65.1296Z" fill="#282C34" />
  <path d="M64.0017 17.2532V16.1145H65.1296V17.2532H64.0017Z" fill="#282C34" />
  <path d="M65.1296 19.509V18.3703H66.2683V19.509H65.1296Z" fill="#282C34" />
  <path d="M64.0017 21.7756V20.6477H65.1296V21.7756H64.0017Z" fill="#282C34" />
  <path d="M65.1296 24.0422V22.9143H66.2683V24.0422H65.1296Z" fill="#282C34" />
  <path d="M64.0017 26.3088V25.1701H65.1296V26.3088H64.0017Z" fill="#282C34" />
  <path d="M65.1296 1.31536V0.187429H66.2683V1.31536H65.1296Z" fill="#282C34" />
  <path d="M64.0017 3.58196V2.44329H65.1296V3.58196H64.0017Z" fill="#282C34" />
  <path
    d="M21.7295 17.5455V20H14.7477V17.5455H16.7477V11.5455H14.7477V9.09094H20.275V10.9455H20.7659C21.0568 10.2425 21.4871 9.7273 22.0568 9.40003C22.6386 9.07275 23.2507 8.90912 23.8931 8.90912C24.778 8.90912 25.5053 9.21821 26.075 9.83639C26.6568 10.4425 26.9477 11.3637 26.9477 12.6V17.5455H28.9477V20H23.4204V13.0546C23.4204 12.5455 23.3234 12.1637 23.1295 11.9091C22.9477 11.6546 22.6871 11.5273 22.3477 11.5273C21.984 11.5273 21.6204 11.6606 21.2568 11.9273C20.8931 12.194 20.5659 12.5576 20.275 13.0182V17.5455H21.7295Z"
    fill="#282C34" />
</svg>