<svg width="62" height="22" viewBox="0 0 62 22" fill="none"
  xmlns="http://www.w3.org/2000/svg">
  <path
    d="M19.401 14.8909V17.0909H12.801V14.8909H14.801V8.38177H12.801V6.18177H17.801V7.99996H18.2919C18.5586 7.33329 18.9768 6.83632 19.5465 6.50905C20.1162 6.16965 20.7283 5.99996 21.3828 5.99996C22.2919 5.99996 23.0313 6.30905 23.601 6.92723C24.1828 7.54541 24.4738 8.4545 24.4738 9.6545V14.8909H26.4738V17.0909H21.4738V10.0545C21.4738 9.47268 21.3525 9.04238 21.1101 8.76359C20.8798 8.4848 20.5586 8.34541 20.1465 8.34541C19.698 8.34541 19.2738 8.4848 18.8738 8.76359C18.4859 9.04238 18.1283 9.4242 17.801 9.90905V14.8909H19.401Z"
    fill="#FBFAFE" />
  <path
    d="M35.014 14.9272C35.4504 14.9272 35.8504 14.8303 36.214 14.6363C36.5898 14.4303 36.9595 14.1212 37.3231 13.709V8.92723C36.9837 8.69693 36.6443 8.53329 36.3049 8.43632C35.9655 8.32723 35.6383 8.27268 35.3231 8.27268C34.7413 8.27268 34.3171 8.43026 34.0504 8.74541C33.7837 9.04844 33.6504 9.54541 33.6504 10.2363V13.1272C33.6504 13.7454 33.7655 14.2 33.9958 14.4909C34.2383 14.7818 34.5777 14.9272 35.014 14.9272ZM36.814 15.2363C36.5958 15.8545 36.214 16.3515 35.6686 16.7272C35.1352 17.0909 34.5171 17.2727 33.814 17.2727C32.7474 17.2727 31.9534 16.909 31.4322 16.1818C30.911 15.4424 30.6504 14.4424 30.6504 13.1818V10.1272C30.6504 8.87874 31.008 7.89693 31.7231 7.18177C32.4504 6.4545 33.4443 6.09087 34.7049 6.09087C35.2019 6.09087 35.6686 6.13935 36.1049 6.23632C36.5413 6.33329 36.9474 6.46662 37.3231 6.63632V4.74541H35.2504V2.54541H40.3049V14.8909H42.3049V17.0909H37.3231V15.2363H36.814Z"
    fill="#FBFAFE" />
  <path d="M0 20.7272L6.67273 2.54541H8.92727L2.25455 20.7272H0Z" fill="#FBFAFE" />
  <path
    d="M48 21H48.8V22H48V21ZM49 20H49.8V21H49V20ZM48 19H48.8V20H48V19ZM49 18H49.8V19H49V18ZM48 17H48.8V18H48V17ZM49 16H49.8V17H49V16ZM48 15H48.8V16H48V15ZM49 14H49.8V15H49V14ZM48 13H48.8V14H48V13ZM49 12H49.8V13H49V12ZM48 11H48.8V12H48V11ZM49 10H49.8V11H49V10ZM48 9H48.8V10H48V9ZM49 8H49.8V9H49V8ZM48 7H48.8V8H48V7ZM49 6H49.8V7H49V6ZM48 5H48.8V6H48V5ZM49 4H49.8V5H49V4ZM48 3H48.8V4H48V3ZM49 2H49.8V3H49V2ZM48 1H48.8V2H48V1ZM49 0H49.8V1H49V0ZM50 21H50.8V22H50V21ZM51 20H51.8V21H51V20ZM50 19H50.8V20H50V19ZM51 18H51.8V19H51V18ZM50 17H50.8V18H50V17ZM51 16H51.8V17H51V16ZM50 15H50.8V16H50V15ZM51 14H51.8V15H51V14ZM50 13H50.8V14H50V13ZM51 12H51.8V13H51V12ZM50 11H50.8V12H50V11ZM51 10H51.8V11H51V10ZM50 9H50.8V10H50V9ZM51 8H51.8V9H51V8ZM50 7H50.8V8H50V7ZM51 6H51.8V7H51V6ZM50 5H50.8V6H50V5ZM51 4H51.8V5H51V4ZM50 3H50.8V4H50V3ZM51 2H51.8V3H51V2ZM50 1H50.8V2H50V1ZM51 0H51.8V1H51V0ZM52 21H52.8V22H52V21ZM53 20H53.8V21H53V20ZM52 19H52.8V20H52V19ZM53 18H53.8V19H53V18ZM52 17H52.8V18H52V17ZM53 16H53.8V17H53V16ZM52 15H52.8V16H52V15ZM53 14H53.8V15H53V14ZM52 13H52.8V14H52V13ZM53 12H53.8V13H53V12ZM52 11H52.8V12H52V11ZM53 10H53.8V11H53V10ZM52 9H52.8V10H52V9ZM53 8H53.8V9H53V8ZM52 7H52.8V8H52V7ZM53 6H53.8V7H53V6ZM52 5H52.8V6H52V5ZM53 4H53.8V5H53V4ZM52 3H52.8V4H52V3ZM53 2H53.8V3H53V2ZM52 1H52.8V2H52V1ZM53 0H53.8V1H53V0ZM54 21H54.8V22H54V21ZM55 20H55.8V21H55V20ZM54 19H54.8V20H54V19ZM55 18H55.8V19H55V18ZM54 17H54.8V18H54V17ZM55 16H55.8V17H55V16ZM54 15H54.8V16H54V15ZM55 14H55.8V15H55V14ZM54 13H54.8V14H54V13ZM55 12H55.8V13H55V12ZM54 11H54.8V12H54V11ZM55 10H55.8V11H55V10ZM54 9H54.8V10H54V9ZM55 8H55.8V9H55V8ZM54 7H54.8V8H54V7ZM55 6H55.8V7H55V6ZM54 5H54.8V6H54V5ZM55 4H55.8V5H55V4ZM54 3H54.8V4H54V3ZM55 2H55.8V3H55V2ZM54 1H54.8V2H54V1ZM55 0H55.8V1H55V0ZM56 21H56.8V22H56V21ZM57 20H57.8V21H57V20ZM56 19H56.8V20H56V19ZM57 18H57.8V19H57V18ZM56 17H56.8V18H56V17ZM57 16H57.8V17H57V16ZM56 15H56.8V16H56V15ZM57 14H57.8V15H57V14ZM56 13H56.8V14H56V13ZM57 12H57.8V13H57V12ZM56 11H56.8V12H56V11ZM57 10H57.8V11H57V10ZM56 9H56.8V10H56V9ZM57 8H57.8V9H57V8ZM56 7H56.8V8H56V7ZM57 6H57.8V7H57V6ZM56 5H56.8V6H56V5ZM57 4H57.8V5H57V4ZM56 3H56.8V4H56V3ZM57 2H57.8V3H57V2ZM56 1H56.8V2H56V1ZM57 0H57.8V1H57V0ZM58 21H58.8V22H58V21ZM59 20H59.8V21H59V20ZM58 19H58.8V20H58V19ZM59 18H59.8V19H59V18ZM58 17H58.8V18H58V17ZM59 16H59.8V17H59V16ZM58 15H58.8V16H58V15ZM59 14H59.8V15H59V14ZM58 13H58.8V14H58V13ZM59 12H59.8V13H59V12ZM58 11H58.8V12H58V11ZM59 10H59.8V11H59V10ZM58 9H58.8V10H58V9ZM59 8H59.8V9H59V8ZM58 7H58.8V8H58V7ZM59 6H59.8V7H59V6ZM58 5H58.8V6H58V5ZM59 4H59.8V5H59V4ZM58 3H58.8V4H58V3ZM59 2H59.8V3H59V2ZM58 1H58.8V2H58V1ZM59 0H59.8V1H59V0ZM60 21H60.8V22H60V21ZM61 20H61.8V21H61V20ZM60 19H60.8V20H60V19ZM61 18H61.8V19H61V18ZM60 17H60.8V18H60V17ZM61 16H61.8V17H61V16ZM60 15H60.8V16H60V15ZM61 14H61.8V15H61V14ZM60 13H60.8V14H60V13ZM61 12H61.8V13H61V12ZM60 11H60.8V12H60V11ZM61 10H61.8V11H61V10ZM60 9H60.8V10H60V9ZM61 8H61.8V9H61V8ZM60 7H60.8V8H60V7ZM61 6H61.8V7H61V6ZM60 5H60.8V6H60V5ZM61 4H61.8V5H61V4ZM60 3H60.8V4H60V3ZM61 2H61.8V3H61V2ZM60 1H60.8V2H60V1ZM61 0H61.8V1H61V0Z"
    fill="#FBFAFE" />
</svg>