<svg width="66" height="23" viewBox="0 0 66 23" fill="none"
  xmlns="http://www.w3.org/2000/svg">
  <path
    d="M36.5659 16.8885C37.0386 16.8885 37.4749 16.7794 37.8749 16.5612C38.2871 16.3309 38.681 15.9734 39.0568 15.4885V10.4885C38.7174 10.2582 38.3719 10.0885 38.0204 9.97943C37.6689 9.87034 37.3174 9.81579 36.9658 9.81579C36.2992 9.81579 35.8083 9.99155 35.4931 10.3431C35.1901 10.6825 35.0386 11.2158 35.0386 11.9431V14.9249C35.0386 15.5916 35.1659 16.0885 35.4204 16.4158C35.6749 16.7309 36.0568 16.8885 36.5659 16.8885ZM38.5477 17.0522C38.3174 17.6461 37.9355 18.1249 37.4022 18.4885C36.8689 18.8522 36.2628 19.034 35.584 19.034C34.5295 19.034 33.7295 18.6764 33.184 17.9612C32.6507 17.234 32.384 16.24 32.384 14.9794V11.8522C32.384 10.6037 32.7477 9.62185 33.4749 8.9067C34.2143 8.19155 35.2204 7.83397 36.4931 7.83397C36.9659 7.82185 37.4143 7.87034 37.8386 7.97943C38.2749 8.0764 38.681 8.20367 39.0568 8.36125V6.32488H36.9113V4.3067H41.6931V16.834H43.6931V18.8522H39.0568V17.0522H38.5477Z"
    fill="#FBFAFE" />
  <path d="M0.920898 22.4885L7.59363 4.3067H9.84817L3.17544 22.4885H0.920898Z"
    fill="#FBFAFE" />
  <path
    d="M22.2052 16.834V18.8521H15.8416V16.834H17.8416V9.96123H15.8416V7.94305H20.4961V9.72487H20.987C21.2416 9.08244 21.6476 8.59759 22.2052 8.27032C22.7628 7.93093 23.3749 7.76123 24.0416 7.76123C24.9749 7.76123 25.7264 8.07638 26.2961 8.70669C26.8779 9.32487 27.1688 10.2158 27.1688 11.3794V16.834H29.1688V18.8521H24.5143V11.743C24.5143 11.1249 24.3749 10.6643 24.0961 10.3612C23.8294 10.0582 23.4719 9.90668 23.0234 9.90668C22.5264 9.90668 22.0658 10.0582 21.6416 10.3612C21.2294 10.6521 20.8476 11.0521 20.4961 11.5612V16.834H22.2052Z"
    fill="#FBFAFE" />
  <path
    d="M50.0154 21.0728H51.015V22.3728H50.0154V21.0728ZM51.126 20.0728H52.1256V21.3728H51.126V20.0728ZM50.0154 19.0728H51.015V20.3728H50.0154V19.0728ZM51.126 18.0728H52.1256V19.3728H51.126V18.0728ZM50.0154 17.0728H51.015V18.3728H50.0154V17.0728ZM51.126 16.0728H52.1256V17.3728H51.126V16.0728ZM50.0154 15.0728H51.015V16.3728H50.0154V15.0728ZM51.126 14.0728H52.1256V15.3728H51.126V14.0728ZM50.0154 13.0728H51.015V14.3728H50.0154V13.0728ZM51.126 12.0728H52.1256V13.3728H51.126V12.0728ZM50.0154 11.0728H51.015V12.3728H50.0154V11.0728ZM51.126 10.0728H52.1256V11.3728H51.126V10.0728ZM50.0154 9.07282H51.015V10.3728H50.0154V9.07282ZM51.126 8.07281H52.1256V9.37282H51.126V8.07281ZM50.0154 7.07282H51.015V8.37282H50.0154V7.07282ZM51.126 6.07282H52.1256V7.37282H51.126V6.07282ZM50.0154 5.07282H51.015V6.37282H50.0154V5.07282ZM51.126 4.07281H52.1256V5.37282H51.126V4.07281ZM50.0154 3.07282H51.015V4.37281H50.0154V3.07282ZM51.126 2.07282H52.1256V3.37282H51.126V2.07282ZM50.0154 1.07282H51.015V2.37282H50.0154V1.07282ZM51.126 0.0728149H52.1256V1.37282H51.126V0.0728149ZM52.2367 21.0728H53.2363V22.3728H52.2367V21.0728ZM53.3474 20.0728H54.347V21.3728H53.3474V20.0728ZM52.2367 19.0728H53.2363V20.3728H52.2367V19.0728ZM53.3474 18.0728H54.347V19.3728H53.3474V18.0728ZM52.2367 17.0728H53.2363V18.3728H52.2367V17.0728ZM53.3474 16.0728H54.347V17.3728H53.3474V16.0728ZM52.2367 15.0728H53.2363V16.3728H52.2367V15.0728ZM53.3474 14.0728H54.347V15.3728H53.3474V14.0728ZM52.2367 13.0728H53.2363V14.3728H52.2367V13.0728ZM53.3474 12.0728H54.347V13.3728H53.3474V12.0728ZM52.2367 11.0728H53.2363V12.3728H52.2367V11.0728ZM53.3474 10.0728H54.347V11.3728H53.3474V10.0728ZM52.2367 9.07282H53.2363V10.3728H52.2367V9.07282ZM53.3474 8.07281H54.347V9.37282H53.3474V8.07281ZM52.2367 7.07282H53.2363V8.37282H52.2367V7.07282ZM53.3474 6.07282H54.347V7.37282H53.3474V6.07282ZM52.2367 5.07282H53.2363V6.37282H52.2367V5.07282ZM53.3474 4.07281H54.347V5.37282H53.3474V4.07281ZM52.2367 3.07282H53.2363V4.37281H52.2367V3.07282ZM53.3474 2.07282H54.347V3.37282H53.3474V2.07282ZM52.2367 1.07282H53.2363V2.37282H52.2367V1.07282ZM53.3474 0.0728149H54.347V1.37282H53.3474V0.0728149ZM54.458 21.0728H55.4576V22.3728H54.458V21.0728ZM55.5687 20.0728H56.5683V21.3728H55.5687V20.0728ZM54.458 19.0728H55.4576V20.3728H54.458V19.0728ZM55.5687 18.0728H56.5683V19.3728H55.5687V18.0728ZM54.458 17.0728H55.4576V18.3728H54.458V17.0728ZM55.5687 16.0728H56.5683V17.3728H55.5687V16.0728ZM54.458 15.0728H55.4576V16.3728H54.458V15.0728ZM55.5687 14.0728H56.5683V15.3728H55.5687V14.0728ZM54.458 13.0728H55.4576V14.3728H54.458V13.0728ZM55.5687 12.0728H56.5683V13.3728H55.5687V12.0728ZM54.458 11.0728H55.4576V12.3728H54.458V11.0728ZM55.5687 10.0728H56.5683V11.3728H55.5687V10.0728ZM54.458 9.07282H55.4576V10.3728H54.458V9.07282ZM55.5687 8.07281H56.5683V9.37282H55.5687V8.07281ZM54.458 7.07282H55.4576V8.37282H54.458V7.07282ZM55.5687 6.07282H56.5683V7.37282H55.5687V6.07282ZM54.458 5.07282H55.4576V6.37282H54.458V5.07282ZM55.5687 4.07281H56.5683V5.37282H55.5687V4.07281ZM54.458 3.07282H55.4576V4.37281H54.458V3.07282ZM55.5687 2.07282H56.5683V3.37282H55.5687V2.07282ZM54.458 1.07282H55.4576V2.37282H54.458V1.07282ZM55.5687 0.0728149H56.5683V1.37282H55.5687V0.0728149ZM56.6794 21.0728H57.679V22.3728H56.6794V21.0728ZM57.79 20.0728H58.7896V21.3728H57.79V20.0728ZM56.6794 19.0728H57.679V20.3728H56.6794V19.0728ZM57.79 18.0728H58.7896V19.3728H57.79V18.0728ZM56.6794 17.0728H57.679V18.3728H56.6794V17.0728ZM57.79 16.0728H58.7896V17.3728H57.79V16.0728ZM56.6794 15.0728H57.679V16.3728H56.6794V15.0728ZM57.79 14.0728H58.7896V15.3728H57.79V14.0728ZM56.6794 13.0728H57.679V14.3728H56.6794V13.0728ZM57.79 12.0728H58.7896V13.3728H57.79V12.0728ZM56.6794 11.0728H57.679V12.3728H56.6794V11.0728ZM57.79 10.0728H58.7896V11.3728H57.79V10.0728ZM56.6794 9.07282H57.679V10.3728H56.6794V9.07282ZM57.79 8.07281H58.7896V9.37282H57.79V8.07281ZM56.6794 7.07282H57.679V8.37282H56.6794V7.07282ZM57.79 6.07282H58.7896V7.37282H57.79V6.07282ZM56.6794 5.07282H57.679V6.37282H56.6794V5.07282ZM57.79 4.07281H58.7896V5.37282H57.79V4.07281ZM56.6794 3.07282H57.679V4.37281H56.6794V3.07282ZM57.79 2.07282H58.7896V3.37282H57.79V2.07282ZM56.6794 1.07282H57.679V2.37282H56.6794V1.07282ZM57.79 0.0728149H58.7896V1.37282H57.79V0.0728149ZM58.9007 21.0728H59.9003V22.3728H58.9007V21.0728ZM60.0114 20.0728H61.011V21.3728H60.0114V20.0728ZM58.9007 19.0728H59.9003V20.3728H58.9007V19.0728ZM60.0114 18.0728H61.011V19.3728H60.0114V18.0728ZM58.9007 17.0728H59.9003V18.3728H58.9007V17.0728ZM60.0114 16.0728H61.011V17.3728H60.0114V16.0728ZM58.9007 15.0728H59.9003V16.3728H58.9007V15.0728ZM60.0114 14.0728H61.011V15.3728H60.0114V14.0728ZM58.9007 13.0728H59.9003V14.3728H58.9007V13.0728ZM60.0114 12.0728H61.011V13.3728H60.0114V12.0728ZM58.9007 11.0728H59.9003V12.3728H58.9007V11.0728ZM60.0114 10.0728H61.011V11.3728H60.0114V10.0728ZM58.9007 9.07282H59.9003V10.3728H58.9007V9.07282ZM60.0114 8.07281H61.011V9.37282H60.0114V8.07281ZM58.9007 7.07282H59.9003V8.37282H58.9007V7.07282ZM60.0114 6.07282H61.011V7.37282H60.0114V6.07282ZM58.9007 5.07282H59.9003V6.37282H58.9007V5.07282ZM60.0114 4.07281H61.011V5.37282H60.0114V4.07281ZM58.9007 3.07282H59.9003V4.37281H58.9007V3.07282ZM60.0114 2.07282H61.011V3.37282H60.0114V2.07282ZM58.9007 1.07282H59.9003V2.37282H58.9007V1.07282ZM60.0114 0.0728149H61.011V1.37282H60.0114V0.0728149ZM61.122 21.0728H62.1216V22.3728H61.122V21.0728ZM62.2327 20.0728H63.2323V21.3728H62.2327V20.0728ZM61.122 19.0728H62.1216V20.3728H61.122V19.0728ZM62.2327 18.0728H63.2323V19.3728H62.2327V18.0728ZM61.122 17.0728H62.1216V18.3728H61.122V17.0728ZM62.2327 16.0728H63.2323V17.3728H62.2327V16.0728ZM61.122 15.0728H62.1216V16.3728H61.122V15.0728ZM62.2327 14.0728H63.2323V15.3728H62.2327V14.0728ZM61.122 13.0728H62.1216V14.3728H61.122V13.0728ZM62.2327 12.0728H63.2323V13.3728H62.2327V12.0728ZM61.122 11.0728H62.1216V12.3728H61.122V11.0728ZM62.2327 10.0728H63.2323V11.3728H62.2327V10.0728ZM61.122 9.07282H62.1216V10.3728H61.122V9.07282ZM62.2327 8.07281H63.2323V9.37282H62.2327V8.07281ZM61.122 7.07282H62.1216V8.37282H61.122V7.07282ZM62.2327 6.07282H63.2323V7.37282H62.2327V6.07282ZM61.122 5.07282H62.1216V6.37282H61.122V5.07282ZM62.2327 4.07281H63.2323V5.37282H62.2327V4.07281ZM61.122 3.07282H62.1216V4.37281H61.122V3.07282ZM62.2327 2.07282H63.2323V3.37282H62.2327V2.07282ZM61.122 1.07282H62.1216V2.37282H61.122V1.07282ZM62.2327 0.0728149H63.2323V1.37282H62.2327V0.0728149ZM63.3434 21.0728H64.343V22.3728H63.3434V21.0728ZM64.454 20.0728H65.4536V21.3728H64.454V20.0728ZM63.3434 19.0728H64.343V20.3728H63.3434V19.0728ZM64.454 18.0728H65.4536V19.3728H64.454V18.0728ZM63.3434 17.0728H64.343V18.3728H63.3434V17.0728ZM64.454 16.0728H65.4536V17.3728H64.454V16.0728ZM63.3434 15.0728H64.343V16.3728H63.3434V15.0728ZM64.454 14.0728H65.4536V15.3728H64.454V14.0728ZM63.3434 13.0728H64.343V14.3728H63.3434V13.0728ZM64.454 12.0728H65.4536V13.3728H64.454V12.0728ZM63.3434 11.0728H64.343V12.3728H63.3434V11.0728ZM64.454 10.0728H65.4536V11.3728H64.454V10.0728ZM63.3434 9.07282H64.343V10.3728H63.3434V9.07282ZM64.454 8.07281H65.4536V9.37282H64.454V8.07281ZM63.3434 7.07282H64.343V8.37282H63.3434V7.07282ZM64.454 6.07282H65.4536V7.37282H64.454V6.07282ZM63.3434 5.07282H64.343V6.37282H63.3434V5.07282ZM64.454 4.07281H65.4536V5.37282H64.454V4.07281ZM63.3434 3.07282H64.343V4.37281H63.3434V3.07282ZM64.454 2.07282H65.4536V3.37282H64.454V2.07282ZM63.3434 1.07282H64.343V2.37282H63.3434V1.07282ZM64.454 0.0728149H65.4536V1.37282H64.454V0.0728149Z"
    fill="#FBFAFE" />
</svg>