<svg width="151" height="51" viewBox="0 0 151 51" fill="none"
  xmlns="http://www.w3.org/2000/svg">
  <path
    d="M83.7742 37.9545C84.873 37.9545 85.8873 37.7016 86.817 37.196C87.775 36.6622 88.6906 35.8335 89.5641 34.7098V23.1216C88.7752 22.5878 87.9722 22.1945 87.1551 21.9417C86.3381 21.6888 85.521 21.5624 84.7039 21.5624C83.1543 21.5624 82.0133 21.9698 81.2807 22.7844C80.5764 23.571 80.2242 24.8071 80.2242 26.4927V33.4035C80.2242 34.9486 80.52 36.1004 81.1117 36.8589C81.7034 37.5893 82.5908 37.9545 83.7742 37.9545ZM88.3807 38.3337C87.8454 39.7103 86.9579 40.8199 85.7182 41.6627C84.4785 42.5055 83.0698 42.9269 81.492 42.9269C79.0409 42.9269 77.1813 42.0981 75.9135 40.4407C74.6738 38.7551 74.054 36.4515 74.054 33.5299V26.282C74.054 23.3884 74.8992 21.1129 76.5897 19.4555C78.3083 17.798 80.6468 16.9693 83.6051 16.9693C84.7039 16.9412 85.7464 17.0535 86.7325 17.3064C87.7468 17.5311 88.6906 17.8261 89.5641 18.1913V13.4717H84.5772V8.79431H95.692V37.828H100.341V42.5055H89.5641V38.3337H88.3807Z"
    fill="#FBFAFE" />
  <path d="M0.920898 50.9333L16.431 8.79431H21.6715L6.16137 50.9333H0.920898Z"
    fill="#FBFAFE" />
  <path
    d="M50.3942 37.828V42.5054H35.6025V37.828H40.2513V21.8995H35.6025V17.222H46.4216V21.3517H47.5626C48.1543 19.8628 49.0982 18.7391 50.3942 17.9805C51.6902 17.194 53.113 16.8007 54.6626 16.8007C56.8321 16.8007 58.5789 17.5311 59.9031 18.9919C61.2555 20.4246 61.9317 22.4894 61.9317 25.1863V37.828H66.5805V42.5054H55.7614V26.0291C55.7614 24.5964 55.4374 23.5288 54.7894 22.8265C54.1696 22.1242 53.3384 21.7731 52.296 21.7731C51.1408 21.7731 50.0702 22.1242 49.0841 22.8265C48.1261 23.5008 47.2386 24.4278 46.4216 25.6077V37.828H50.3942Z"
    fill="#FBFAFE" />
  <path
    d="M115.036 47.8816H117.36V50.7879H115.036V47.8816ZM117.618 45.6459H119.941V48.5523H117.618V45.6459ZM115.036 43.4103H117.36V46.3166H115.036V43.4103ZM117.618 41.1747H119.941V44.081H117.618V41.1747ZM115.036 38.939H117.36V41.8454H115.036V38.939ZM117.618 36.7034H119.941V39.6097H117.618V36.7034ZM115.036 34.4678H117.36V37.3741H115.036V34.4678ZM117.618 32.2321H119.941V35.1385H117.618V32.2321ZM115.036 29.9965H117.36V32.9028H115.036V29.9965ZM117.618 27.7609H119.941V30.6672H117.618V27.7609ZM115.036 25.5252H117.36V28.4316H115.036V25.5252ZM117.618 23.2896H119.941V26.1959H117.618V23.2896ZM115.036 21.054H117.36V23.9603H115.036V21.054ZM117.618 18.8183H119.941V21.7247H117.618V18.8183ZM115.036 16.5827H117.36V19.489H115.036V16.5827ZM117.618 14.3471H119.941V17.2534H117.618V14.3471ZM115.036 12.1114H117.36V15.0178H115.036V12.1114ZM117.618 9.87582H119.941V12.7821H117.618V9.87582ZM115.036 7.64019H117.36V10.5465H115.036V7.64019ZM117.618 5.40455H119.941V8.31088H117.618V5.40455ZM115.036 3.16892H117.36V6.07524H115.036V3.16892ZM117.618 0.933289H119.941V3.83961H117.618V0.933289ZM120.199 47.8816H122.523V50.7879H120.199V47.8816ZM122.781 45.6459H125.105V48.5523H122.781V45.6459ZM120.199 43.4103H122.523V46.3166H120.199V43.4103ZM122.781 41.1747H125.105V44.081H122.781V41.1747ZM120.199 38.939H122.523V41.8454H120.199V38.939ZM122.781 36.7034H125.105V39.6097H122.781V36.7034ZM120.199 34.4678H122.523V37.3741H120.199V34.4678ZM122.781 32.2321H125.105V35.1385H122.781V32.2321ZM120.199 29.9965H122.523V32.9028H120.199V29.9965ZM122.781 27.7609H125.105V30.6672H122.781V27.7609ZM120.199 25.5252H122.523V28.4316H120.199V25.5252ZM122.781 23.2896H125.105V26.1959H122.781V23.2896ZM120.199 21.054H122.523V23.9603H120.199V21.054ZM122.781 18.8183H125.105V21.7247H122.781V18.8183ZM120.199 16.5827H122.523V19.489H120.199V16.5827ZM122.781 14.3471H125.105V17.2534H122.781V14.3471ZM120.199 12.1114H122.523V15.0178H120.199V12.1114ZM122.781 9.87582H125.105V12.7821H122.781V9.87582ZM120.199 7.64019H122.523V10.5465H120.199V7.64019ZM122.781 5.40455H125.105V8.31088H122.781V5.40455ZM120.199 3.16892H122.523V6.07524H120.199V3.16892ZM122.781 0.933289H125.105V3.83961H122.781V0.933289ZM125.363 47.8816H127.686V50.7879H125.363V47.8816ZM127.944 45.6459H130.268V48.5523H127.944V45.6459ZM125.363 43.4103H127.686V46.3166H125.363V43.4103ZM127.944 41.1747H130.268V44.081H127.944V41.1747ZM125.363 38.939H127.686V41.8454H125.363V38.939ZM127.944 36.7034H130.268V39.6097H127.944V36.7034ZM125.363 34.4678H127.686V37.3741H125.363V34.4678ZM127.944 32.2321H130.268V35.1385H127.944V32.2321ZM125.363 29.9965H127.686V32.9028H125.363V29.9965ZM127.944 27.7609H130.268V30.6672H127.944V27.7609ZM125.363 25.5252H127.686V28.4316H125.363V25.5252ZM127.944 23.2896H130.268V26.1959H127.944V23.2896ZM125.363 21.054H127.686V23.9603H125.363V21.054ZM127.944 18.8183H130.268V21.7247H127.944V18.8183ZM125.363 16.5827H127.686V19.489H125.363V16.5827ZM127.944 14.3471H130.268V17.2534H127.944V14.3471ZM125.363 12.1114H127.686V15.0178H125.363V12.1114ZM127.944 9.87582H130.268V12.7821H127.944V9.87582ZM125.363 7.64019H127.686V10.5465H125.363V7.64019ZM127.944 5.40455H130.268V8.31088H127.944V5.40455ZM125.363 3.16892H127.686V6.07524H125.363V3.16892ZM127.944 0.933289H130.268V3.83961H127.944V0.933289ZM130.526 47.8816H132.849V50.7879H130.526V47.8816ZM133.108 45.6459H135.431V48.5523H133.108V45.6459ZM130.526 43.4103H132.849V46.3166H130.526V43.4103ZM133.108 41.1747H135.431V44.081H133.108V41.1747ZM130.526 38.939H132.849V41.8454H130.526V38.939ZM133.108 36.7034H135.431V39.6097H133.108V36.7034ZM130.526 34.4678H132.849V37.3741H130.526V34.4678ZM133.108 32.2321H135.431V35.1385H133.108V32.2321ZM130.526 29.9965H132.849V32.9028H130.526V29.9965ZM133.108 27.7609H135.431V30.6672H133.108V27.7609ZM130.526 25.5252H132.849V28.4316H130.526V25.5252ZM133.108 23.2896H135.431V26.1959H133.108V23.2896ZM130.526 21.054H132.849V23.9603H130.526V21.054ZM133.108 18.8183H135.431V21.7247H133.108V18.8183ZM130.526 16.5827H132.849V19.489H130.526V16.5827ZM133.108 14.3471H135.431V17.2534H133.108V14.3471ZM130.526 12.1114H132.849V15.0178H130.526V12.1114ZM133.108 9.87582H135.431V12.7821H133.108V9.87582ZM130.526 7.64019H132.849V10.5465H130.526V7.64019ZM133.108 5.40455H135.431V8.31088H133.108V5.40455ZM130.526 3.16892H132.849V6.07524H130.526V3.16892ZM133.108 0.933289H135.431V3.83961H133.108V0.933289ZM135.689 47.8816H138.013V50.7879H135.689V47.8816ZM138.271 45.6459H140.594V48.5523H138.271V45.6459ZM135.689 43.4103H138.013V46.3166H135.689V43.4103ZM138.271 41.1747H140.594V44.081H138.271V41.1747ZM135.689 38.939H138.013V41.8454H135.689V38.939ZM138.271 36.7034H140.594V39.6097H138.271V36.7034ZM135.689 34.4678H138.013V37.3741H135.689V34.4678ZM138.271 32.2321H140.594V35.1385H138.271V32.2321ZM135.689 29.9965H138.013V32.9028H135.689V29.9965ZM138.271 27.7609H140.594V30.6672H138.271V27.7609ZM135.689 25.5252H138.013V28.4316H135.689V25.5252ZM138.271 23.2896H140.594V26.1959H138.271V23.2896ZM135.689 21.054H138.013V23.9603H135.689V21.054ZM138.271 18.8183H140.594V21.7247H138.271V18.8183ZM135.689 16.5827H138.013V19.489H135.689V16.5827ZM138.271 14.3471H140.594V17.2534H138.271V14.3471ZM135.689 12.1114H138.013V15.0178H135.689V12.1114ZM138.271 9.87582H140.594V12.7821H138.271V9.87582ZM135.689 7.64019H138.013V10.5465H135.689V7.64019ZM138.271 5.40455H140.594V8.31088H138.271V5.40455ZM135.689 3.16892H138.013V6.07524H135.689V3.16892ZM138.271 0.933289H140.594V3.83961H138.271V0.933289ZM140.852 47.8816H143.176V50.7879H140.852V47.8816ZM143.434 45.6459H145.758V48.5523H143.434V45.6459ZM140.852 43.4103H143.176V46.3166H140.852V43.4103ZM143.434 41.1747H145.758V44.081H143.434V41.1747ZM140.852 38.939H143.176V41.8454H140.852V38.939ZM143.434 36.7034H145.758V39.6097H143.434V36.7034ZM140.852 34.4678H143.176V37.3741H140.852V34.4678ZM143.434 32.2321H145.758V35.1385H143.434V32.2321ZM140.852 29.9965H143.176V32.9028H140.852V29.9965ZM143.434 27.7609H145.758V30.6672H143.434V27.7609ZM140.852 25.5252H143.176V28.4316H140.852V25.5252ZM143.434 23.2896H145.758V26.1959H143.434V23.2896ZM140.852 21.054H143.176V23.9603H140.852V21.054ZM143.434 18.8183H145.758V21.7247H143.434V18.8183ZM140.852 16.5827H143.176V19.489H140.852V16.5827ZM143.434 14.3471H145.758V17.2534H143.434V14.3471ZM140.852 12.1114H143.176V15.0178H140.852V12.1114ZM143.434 9.87582H145.758V12.7821H143.434V9.87582ZM140.852 7.64019H143.176V10.5465H140.852V7.64019ZM143.434 5.40455H145.758V8.31088H143.434V5.40455ZM140.852 3.16892H143.176V6.07524H140.852V3.16892ZM143.434 0.933289H145.758V3.83961H143.434V0.933289ZM146.016 47.8816H148.339V50.7879H146.016V47.8816ZM148.597 45.6459H150.921V48.5523H148.597V45.6459ZM146.016 43.4103H148.339V46.3166H146.016V43.4103ZM148.597 41.1747H150.921V44.081H148.597V41.1747ZM146.016 38.939H148.339V41.8454H146.016V38.939ZM148.597 36.7034H150.921V39.6097H148.597V36.7034ZM146.016 34.4678H148.339V37.3741H146.016V34.4678ZM148.597 32.2321H150.921V35.1385H148.597V32.2321ZM146.016 29.9965H148.339V32.9028H146.016V29.9965ZM148.597 27.7609H150.921V30.6672H148.597V27.7609ZM146.016 25.5252H148.339V28.4316H146.016V25.5252ZM148.597 23.2896H150.921V26.1959H148.597V23.2896ZM146.016 21.054H148.339V23.9603H146.016V21.054ZM148.597 18.8183H150.921V21.7247H148.597V18.8183ZM146.016 16.5827H148.339V19.489H146.016V16.5827ZM148.597 14.3471H150.921V17.2534H148.597V14.3471ZM146.016 12.1114H148.339V15.0178H146.016V12.1114ZM148.597 9.87582H150.921V12.7821H148.597V9.87582ZM146.016 7.64019H148.339V10.5465H146.016V7.64019ZM148.597 5.40455H150.921V8.31088H148.597V5.40455ZM146.016 3.16892H148.339V6.07524H146.016V3.16892ZM148.597 0.933289H150.921V3.83961H148.597V0.933289Z"
    fill="#FBFAFE" />
</svg>