<svg width="67" height="19" viewBox="0 0 67 19" fill="none"
  xmlns="http://www.w3.org/2000/svg">

  <path
    d="M19.534 13.1485V15.1667H13.1704V13.1485H15.1704V6.27574H13.1704V4.25756H17.825V6.03938H18.3159C18.5704 5.39696 18.9765 4.91211 19.534 4.58484C20.0916 4.24544 20.7037 4.07574 21.3704 4.07574C22.3037 4.07574 23.0553 4.3909 23.625 5.0212C24.2068 5.63938 24.4977 6.53029 24.4977 7.69393V13.1485H26.4977V15.1667H21.8431V8.05756C21.8431 7.43938 21.7037 6.97877 21.425 6.67574C21.1583 6.37271 20.8007 6.2212 20.3522 6.2212C19.8553 6.2212 19.3947 6.37271 18.9704 6.67574C18.5583 6.96665 18.1765 7.36665 17.825 7.87574V13.1485H19.534Z"
    fill="#FBFAFE" />
  <path
    d="M35.2016 13.203C35.6743 13.203 36.1107 13.0939 36.5107 12.8758C36.9228 12.6455 37.3167 12.2879 37.6925 11.803V6.80303C37.3531 6.57273 37.0077 6.40303 36.6561 6.29394C36.3046 6.18485 35.9531 6.13031 35.6016 6.13031C34.9349 6.13031 34.444 6.30606 34.1289 6.65758C33.8258 6.99697 33.6743 7.53031 33.6743 8.25758V11.2394C33.6743 11.9061 33.8016 12.403 34.0561 12.7303C34.3107 13.0455 34.6925 13.203 35.2016 13.203ZM37.1834 13.3667C36.9531 13.9606 36.5713 14.4394 36.038 14.803C35.5046 15.1667 34.8986 15.3485 34.2198 15.3485C33.1652 15.3485 32.3652 14.9909 31.8198 14.2758C31.2864 13.5485 31.0198 12.5545 31.0198 11.2939V8.16667C31.0198 6.91819 31.3834 5.93637 32.1107 5.22122C32.8501 4.50606 33.8561 4.14849 35.1289 4.14849C35.6016 4.13637 36.0501 4.18485 36.4743 4.29394C36.9107 4.39091 37.3167 4.51819 37.6925 4.67576V2.6394H35.5471V0.621216H40.3289V13.1485H42.3289V15.1667H37.6925V13.3667H37.1834Z"
    fill="#FBFAFE" />
  <path d="M0.442139 18.803L7.11487 0.621216H8.84214L2.16941 18.803H0.442139Z"
    fill="#FBFAFE" />
  <path fill-rule="evenodd" clip-rule="evenodd"
    d="M48 3.09999H49.1V1.89999H48V0H49.7996V1.20005H51.1996V0H53.8V1.20005H55.2V0H57.8005V1.20005H59.2005V0H61.8005V1.20005H63.2005V0H65.7996V1.20005H67V3.89999H65.8996V5.09999H67V7.79999H65.8V9.19999H67V11.8H65.8V13.2H67V15.8H65.8V17.2H67V19H65.1996V17.8H63.7996V19H61.2005V17.8H59.8005V19H57.2005V17.8H55.8005V19H53.2V17.8H51.8V19H49.2V17.8H48V15.2H49.2V13.8H48V11.2H49.2V9.79999H48V7.19999H49.2V5.79999H48V3.09999ZM49.8996 5.09999H51.0996V3.89999H49.8996V5.09999ZM53.9 5.09999H55.1V3.89999H53.9V5.09999ZM57.9005 5.09999H59.1005V3.89999H57.9005V5.09999ZM61.9005 5.09999H63.1005V3.89999H61.9005V5.09999ZM51.7996 7.20005H53.1996V5.80005H51.7996V7.20005ZM49.8 9.19999H51.2V7.79999H49.8V9.19999ZM51.8 11.2H53.2V9.79999H51.8V11.2ZM49.8 13.2H51.2V11.8H49.8V13.2ZM51.8 15.2H53.2V13.8H51.8V15.2ZM49.8 15.8V17.2H51.2V15.8H49.8ZM51.8 3.19999H53.2V1.79999H51.8V3.19999ZM53.8005 9.19999H55.2005V7.79999H53.8005V9.19999ZM53.8005 13.2H55.2005V11.8H53.8005V13.2ZM53.8005 15.8V17.2H55.2005V15.8H53.8005ZM55.8 7.20005H57.2V5.80005H55.8V7.20005ZM55.8005 11.2H57.2005V9.79999H55.8005V11.2ZM55.8005 15.2H57.2005V13.8H55.8005V15.2ZM55.8005 3.19999H57.2005V1.79999H55.8005V3.19999ZM57.801 9.19999H59.201V7.79999H57.801V9.19999ZM57.801 13.2H59.201V11.8H57.801V13.2ZM57.801 15.8V17.2H59.201V15.8H57.801ZM59.8 7.20005H61.2V5.80005H59.8V7.20005ZM59.8005 11.2H61.2005V9.79999H59.8005V11.2ZM59.8005 15.2H61.2005V13.8H59.8005V15.2ZM59.8005 3.19999H61.2005V1.79999H59.8005V3.19999ZM61.801 9.19999H63.201V7.79999H61.801V9.19999ZM61.801 13.2H63.201V11.8H61.801V13.2ZM61.801 15.8V17.2H63.201V15.8H61.801ZM63.7991 5.80005V7.20005H65.1991V5.80005H63.7991ZM63.7996 9.79999V11.2H65.1996V9.79999H63.7996ZM63.7996 13.8V15.2H65.1996V13.8H63.7996ZM63.7996 3.19999H65.1996V1.79999H63.7996V3.19999Z"
    fill="#FBFAFE" />
</svg>