<svg xmlns="http://www.w3.org/2000/svg" width="566.36" height="233.94"
  viewBox="0 0 566.36 233.94">
  <path d="M0,233.94,81.78,29.49h18.61L18.61,233.94Z" fill="#fafafa" />
  <path
    d="M148.94,193.05V70.38h17.38v20h6.13a36.27,36.27,0,0,1,14-16,39.05,39.05,0,0,1,21.36-6q18.81,0,29.85,11.55t11,31.38v81.78H231.34v-78.3q0-14.31-6.65-21.78t-19.32-7.46q-9.62,0-19.52,5.93t-19.53,17.17v84.44Z"
    fill="#fafafa" />
  <path
    d="M373.94,173a42,42,0,0,1-14.72,16.25,38.1,38.1,0,0,1-20.85,5.83q-19.23,0-30-12.27t-10.73-35.58V115.16q0-22.5,13.9-34.76t39.26-12.27a70.27,70.27,0,0,1,14.62,1.64,98.25,98.25,0,0,1,14.61,4.29V29.49h17.38V193.05H380.07V173Zm-32.71,4.9a38.1,38.1,0,0,0,20-5.82q9.62-5.83,18.81-17.89V92.46a44.55,44.55,0,0,0-14-6.44,64.72,64.72,0,0,0-16.26-1.94q-17.78,0-26.27,7.77t-8.48,23.72v33.32q0,14.72,6.44,21.88T341.23,177.92Z"
    fill="#fafafa" />
  <path
    d="M465.14,0l7.9.11L472.92,9,465,8.92Zm-.48,35.68,7.89.1-.12,8.92-7.89-.1Zm-.48,35.67,7.89.11L472,80.38l-7.9-.11Zm-.49,35.91,7.89.11-.12,8.92-7.89-.11Zm-.49,35.68,7.9.11L471,152l-7.9-.11Zm-.48,35.68,7.89.1-.12,8.92-7.89-.11Zm-.49,35.67,7.9.11-.12,8.92-7.9-.11ZM472.8,18l7.89.1L480.57,27l-7.89-.1Zm-.49,35.67,7.9.11-.12,8.92-7.9-.11Zm-.48,35.68,7.89.11-.12,8.92-7.89-.11Zm-.49,35.91,7.9.1-.12,8.92-7.9-.1Zm-.48,35.67,7.89.11-.12,8.92-7.9-.11Zm-.49,35.68,7.9.11-.12,8.92-7.9-.11ZM480.93.21l7.9.11-.12,8.92-7.9-.11Zm-.48,35.68,7.9.11-.13,8.92-7.89-.11ZM480,71.57l7.89.11-.12,8.92-7.9-.11Zm-.49,35.91,7.89.1-.12,8.92-7.89-.1ZM479,143.15l7.9.11-.12,8.92-7.9-.11Zm-.48,35.68,7.89.11-.12,8.92-7.89-.11ZM478,214.51l7.89.1-.12,8.92-7.9-.1ZM488.59,18.16l7.89.11-.12,8.92-7.89-.11Zm-.49,35.68,7.9.1-.12,8.92-7.9-.1Zm-.48,35.67,7.89.11-.12,8.92-7.89-.11Zm-.49,35.91,7.9.11-.12,8.92-7.9-.11Zm-.48,35.68,7.89.11-.12,8.92-7.89-.11Zm-.49,35.68,7.9.1-.12,8.92-7.9-.1ZM496.72.43l7.9.11-.12,8.91-7.9-.1Zm-.48,35.68,7.9.1L504,45.13,496.12,45Zm-.48,35.67,7.89.11-.12,8.92-7.9-.11Zm-.49,35.91,7.89.11-.12,8.92-7.89-.11Zm-.49,35.68,7.9.1-.12,8.92-7.9-.1ZM494.3,179l7.9.11-.13,8.92-7.89-.11Zm-.48,35.68,7.89.11-.12,8.92-7.9-.11ZM504.38,18.37l7.89.11-.12,8.92-7.89-.11Zm-.49,35.68,7.9.11-.12,8.92-7.9-.11Zm-.48,35.68,7.89.11-.12,8.92-7.89-.11Zm-.49,35.91,7.9.1-.12,8.92-7.9-.11Zm-.48,35.67,7.89.11-.12,8.92-7.89-.11ZM502,197l7.9.11-.12,8.92-7.9-.11ZM512.52.64l7.89.11-.12,8.92-7.9-.11ZM512,36.32l7.9.11-.13,8.92-7.89-.11ZM511.55,72l7.89.1L519.32,81l-7.89-.1Zm-.49,35.9L519,108l-.12,8.92-7.89-.11Zm-.49,35.68,7.9.11-.12,8.92-7.9-.11Zm-.48,35.68,7.9.11-.13,8.92-7.89-.11Zm-.48,35.68,7.89.1-.12,8.92-7.9-.1ZM520.17,18.59l7.89.11-.12,8.92-7.89-.11Zm-.49,35.68,7.9.1-.12,8.92-7.9-.1Zm-.48,35.67,7.9.11L527,99l-7.89-.11Zm-.49,35.91,7.9.11-.12,8.92-7.9-.11Zm-.48,35.68,7.89.1-.12,8.92-7.89-.1Zm-.49,35.68,7.9.1-.12,8.92-7.9-.11ZM528.31.86l7.89.1-.12,8.92-7.9-.1Zm-.49,35.67,7.9.11-.12,8.92-7.9-.11Zm-.48,35.68,7.89.11-.12,8.92-7.89-.11Zm-.49,35.91,7.89.11-.12,8.92-7.89-.11Zm-.48,35.68,7.89.1-.12,8.92-7.9-.1Zm-.49,35.67,7.9.11-.13,8.92-7.89-.11Zm-.48,35.68,7.89.11-.12,8.92-7.89-.11ZM536,18.8l7.89.11-.12,8.92-7.89-.11Zm-.49,35.68,7.9.11-.12,8.92-7.9-.11ZM535,90.16l7.9.11-.13,8.91-7.89-.1Zm-.49,35.9,7.9.11-.12,8.92-7.9-.11ZM534,161.74l7.89.11-.12,8.92-7.89-.11Zm-.49,35.68,7.9.11-.12,8.92-7.9-.11ZM544.1,1.07l7.89.11-.12,8.92L544,10Zm-.49,35.68,7.9.11-.12,8.92-7.9-.11Zm-.48,35.68,7.89.1-.12,8.92-7.89-.1Zm-.49,35.9,7.9.11-.13,8.92-7.89-.11ZM542.16,144l7.89.11-.12,8.92-7.89-.11Zm-.49,35.68,7.9.11-.12,8.91-7.9-.1Zm-.48,35.67,7.89.11-.12,8.92-7.89-.1ZM551.75,19l7.89.1L559.52,28l-7.89-.1Zm-.48,35.68,7.89.1L559,63.72l-7.9-.11Zm-.49,35.67,7.9.11-.13,8.92-7.89-.11Zm-.49,35.91,7.9.11-.12,8.92-7.9-.11ZM549.81,162l7.89.1-.12,8.92-7.89-.1Zm-.49,35.67,7.9.11-.12,8.92-7.9-.11ZM559.89,1.29l6.47.08-.12,8.92-6.47-.08ZM559.4,37l6.48.09L565.76,46l-6.48-.09Zm-.48,35.68,6.48.09-.12,8.92-6.48-.09Zm-.49,35.91,6.48.08-.12,8.93-6.48-.09ZM558,144.23l6.47.08-.12,8.92-6.48-.09Zm-.49,35.67,6.48.09-.12,8.92-6.48-.09ZM557,215.58l6.48.09-.13,8.92-6.47-.09Z" />
</svg>