<svg width="43" height="19" viewBox="0 0 43 19" fill="none"
  xmlns="http://www.w3.org/2000/svg">
  <path d="M0.727295 18.6364L7.40002 0.45459H9.12729L2.45457 18.6364H0.727295Z"
    fill="#FBFAFE" />
  <path
    d="M14.2737 15V13.4182H16.2737V5.67277H14.2737V4.09095H18.0373V5.78186H18.5464C18.7767 5.21217 19.1585 4.75762 19.6919 4.41823C20.2252 4.07883 20.8373 3.90914 21.5282 3.90914C22.51 3.90914 23.2858 4.23035 23.8555 4.87277C24.4252 5.5152 24.71 6.3758 24.71 7.45459V13.4182H26.7282V15H21.31V13.4182H22.9464V7.72732C22.9464 6.9758 22.7646 6.43035 22.4009 6.09095C22.0494 5.75156 21.5949 5.58186 21.0373 5.58186C20.407 5.58186 19.8555 5.7455 19.3828 6.07277C18.91 6.40004 18.4616 6.83641 18.0373 7.38186V13.4182H19.6919V15H14.2737Z"
    fill="#FBFAFE" />
  <path
    d="M35.6212 13.5091C36.1788 13.5091 36.7 13.3576 37.1848 13.0546C37.6697 12.7516 38.1363 12.291 38.5848 11.6728V6.1455C38.2454 5.9152 37.8818 5.7455 37.4939 5.63641C37.1182 5.5152 36.706 5.45459 36.2576 5.45459C35.3727 5.45459 34.7182 5.66065 34.2939 6.07277C33.8818 6.48489 33.6757 7.1152 33.6757 7.96368V11.1637C33.6757 11.9637 33.8333 12.5576 34.1485 12.9455C34.4757 13.3213 34.9666 13.5091 35.6212 13.5091ZM38.0757 13.3091C37.8091 13.891 37.4151 14.3516 36.8939 14.691C36.3848 15.0182 35.8091 15.1819 35.1666 15.1819C34.1485 15.1819 33.3485 14.8243 32.7666 14.1091C32.1969 13.394 31.9121 12.4122 31.9121 11.1637V7.9455C31.9121 6.68489 32.2879 5.69701 33.0394 4.98186C33.803 4.25459 34.8515 3.89095 36.1848 3.89095C36.5848 3.90308 36.9909 3.95762 37.403 4.05459C37.8151 4.13944 38.2091 4.26065 38.5848 4.41823V2.03641H36.2576V0.45459H40.3485V13.4182H42.3485V15H38.5848V13.3091H38.0757Z"
    fill="#FBFAFE" />
</svg>