<svg width="54" height="22" viewBox="0 0 54 22" fill="none"
  xmlns="http://www.w3.org/2000/svg">
  <path d="M8.02 3.75999L9.28 4.31999L1.98 20.8L0.720001 20.24L8.02 3.75999Z"
    fill="#222227" />
  <path
    d="M13.2322 7.99999H16.7322L17.0322 9.31999H17.1122C17.4189 8.89332 17.8589 8.51999 18.4322 8.19999C19.0055 7.87999 19.6922 7.71999 20.4922 7.71999C20.9855 7.71999 21.4455 7.78666 21.8722 7.91999C22.3122 8.05332 22.6855 8.27332 22.9922 8.57999C23.2989 8.88666 23.5389 9.30665 23.7122 9.83999C23.8989 10.36 23.9922 11.0067 23.9922 11.78V18H21.3922V12.32C21.3922 11.5067 21.2055 10.92 20.8322 10.56C20.4722 10.2 20.0122 10.02 19.4522 10.02C18.9589 10.02 18.5055 10.1667 18.0922 10.46C17.6922 10.74 17.4189 11.0933 17.2722 11.52V18H14.6722V10.2H13.2322V7.99999Z"
    fill="#222227" />
  <path
    d="M33.1044 3.99999H37.2844V12.64C37.2844 13.64 37.3377 14.6267 37.4444 15.6C37.4444 15.6667 37.451 15.7333 37.4644 15.8H38.7444V18H35.5244L35.2644 16.72H35.1844C35.051 16.96 34.871 17.1733 34.6444 17.36C34.4177 17.5467 34.1644 17.7133 33.8844 17.86C33.6044 17.9933 33.2977 18.0933 32.9644 18.16C32.631 18.24 32.2977 18.28 31.9644 18.28C31.3377 18.28 30.7444 18.18 30.1844 17.98C29.6377 17.78 29.1577 17.4733 28.7444 17.06C28.331 16.6333 28.0044 16.1 27.7644 15.46C27.5244 14.8067 27.4044 14.04 27.4044 13.16C27.4044 12.3067 27.531 11.5467 27.7844 10.88C28.051 10.2133 28.411 9.65332 28.8644 9.19999C29.331 8.73332 29.8777 8.37999 30.5044 8.13999C31.131 7.88665 31.8177 7.75999 32.5644 7.75999C32.9777 7.75999 33.3644 7.78666 33.7244 7.83999C34.0977 7.87999 34.4177 7.95332 34.6844 8.05999V6.19999H33.1044V3.99999ZM32.5644 16.08C33.071 16.08 33.5177 15.96 33.9044 15.72C34.3044 15.4667 34.5644 15.1067 34.6844 14.64V10.4C34.4977 10.2533 34.2377 10.1467 33.9044 10.08C33.5844 9.99999 33.2444 9.95999 32.8844 9.95999C32.5244 9.95999 32.171 10.02 31.8244 10.14C31.491 10.26 31.191 10.4533 30.9244 10.72C30.671 10.9733 30.4644 11.3067 30.3044 11.72C30.1577 12.1333 30.0844 12.64 30.0844 13.24C30.0844 14.0933 30.2977 14.78 30.7244 15.3C31.151 15.82 31.7644 16.08 32.5644 16.08Z"
    fill="#222227" />
  <path
    d="M42.9766 3.97999H43.9766V4.91999H42.9766V3.97999ZM44.9766 3.97999H45.9766V4.91999H44.9766V3.97999ZM46.9766 3.97999H47.9766V4.91999H46.9766V3.97999ZM48.9766 3.97999H49.9766V4.91999H48.9766V3.97999ZM50.9766 3.97999H51.9766V4.91999H50.9766V3.97999ZM52.9766 3.97999H53.9766V4.91999H52.9766V3.97999ZM41.9766 5.83999H42.9766V6.77999H41.9766V5.83999ZM43.9766 5.83999H44.9766V6.77999H43.9766V5.83999ZM45.9766 5.83999H46.9766V6.77999H45.9766V5.83999ZM47.9766 5.83999H48.9766V6.77999H47.9766V5.83999ZM49.9766 5.83999H50.9766V6.77999H49.9766V5.83999ZM51.9766 5.83999H52.9766V6.77999H51.9766V5.83999ZM42.9766 7.67999H43.9766V8.61999H42.9766V7.67999ZM44.9766 7.67999H45.9766V8.61999H44.9766V7.67999ZM46.9766 7.67999H47.9766V8.61999H46.9766V7.67999ZM48.9766 7.67999H49.9766V8.61999H48.9766V7.67999ZM50.9766 7.67999H51.9766V8.61999H50.9766V7.67999ZM52.9766 7.67999H53.9766V8.61999H52.9766V7.67999ZM41.9766 9.51999H42.9766V10.48H41.9766V9.51999ZM43.9766 9.51999H44.9766V10.48H43.9766V9.51999ZM45.9766 9.51999H46.9766V10.48H45.9766V9.51999ZM47.9766 9.51999H48.9766V10.48H47.9766V9.51999ZM49.9766 9.51999H50.9766V10.48H49.9766V9.51999ZM51.9766 9.51999H52.9766V10.48H51.9766V9.51999ZM42.9766 11.38H43.9766V12.32H42.9766V11.38ZM44.9766 11.38H45.9766V12.32H44.9766V11.38ZM46.9766 11.38H47.9766V12.32H46.9766V11.38ZM48.9766 11.38H49.9766V12.32H48.9766V11.38ZM50.9766 11.38H51.9766V12.32H50.9766V11.38ZM52.9766 11.38H53.9766V12.32H52.9766V11.38ZM41.9766 13.22H42.9766V14.16H41.9766V13.22ZM45.9766 13.22H46.9766V14.16H45.9766V13.22ZM47.9766 13.22H48.9766V14.16H47.9766V13.22ZM49.9766 13.22H50.9766V14.16H49.9766V13.22ZM51.9766 13.22H52.9766V14.16H51.9766V13.22ZM43.9766 13.22H44.9766V14.16H43.9766V13.22ZM52.9766 15.06H53.9766V16.02H52.9766V15.06ZM50.9766 15.06H51.9766V16.02H50.9766V15.06ZM48.9766 15.06H49.9766V16.02H48.9766V15.06ZM46.9766 15.06H47.9766V16.02H46.9766V15.06ZM44.9766 15.06H45.9766V16.02H44.9766V15.06ZM42.9766 15.06H43.9766V16.02H42.9766V15.06ZM41.9766 16.92H42.9766V17.86H41.9766V16.92ZM43.9766 16.92H44.9766V17.86H43.9766V16.92ZM45.9766 16.92H46.9766V17.86H45.9766V16.92ZM47.9766 16.92H48.9766V17.86H47.9766V16.92ZM49.9766 16.92H50.9766V17.86H49.9766V16.92ZM51.9766 16.92H52.9766V17.86H51.9766V16.92ZM52.9766 18.76H53.9766V19.72H52.9766V18.76ZM50.9766 18.76H51.9766V19.72H50.9766V18.76ZM48.9766 18.76H49.9766V19.72H48.9766V18.76ZM46.9766 18.76H47.9766V19.72H46.9766V18.76ZM44.9766 18.76H45.9766V19.72H44.9766V18.76ZM42.9766 18.76H43.9766V19.72H42.9766V18.76ZM41.9766 20.62H42.9766V21.56H41.9766V20.62ZM43.9766 20.62H44.9766V21.56H43.9766V20.62ZM45.9766 20.62H46.9766V21.56H45.9766V20.62ZM47.9766 20.62H48.9766V21.56H47.9766V20.62ZM49.9766 20.62H50.9766V21.56H49.9766V20.62ZM51.9766 20.62H52.9766V21.56H51.9766V20.62ZM41.9766 2.13999H42.9766V3.07999H41.9766V2.13999ZM43.9766 2.13999H44.9766V3.07999H43.9766V2.13999ZM45.9766 2.13999H46.9766V3.07999H45.9766V2.13999ZM47.9766 2.13999H48.9766V3.07999H47.9766V2.13999ZM49.9766 2.13999H50.9766V3.07999H49.9766V2.13999ZM51.9766 2.13999H52.9766V3.07999H51.9766V2.13999ZM42.9766 0.299988H43.9766V1.21999H42.9766V0.299988ZM44.9766 0.299988H45.9766V1.21999H44.9766V0.299988ZM46.9766 0.299988H47.9766V1.21999H46.9766V0.299988ZM48.9766 0.299988H49.9766V1.21999H48.9766V0.299988ZM50.9766 0.299988H51.9766V1.21999H50.9766V0.299988ZM52.9766 0.299988H53.9766V1.21999H52.9766V0.299988Z"
    fill="#222227" />
</svg>